<?xml version="1.0" standalone="no"?>
<!DOCTYPE svg PUBLIC "-//W3C//DTD SVG 1.1//EN" "http://www.w3.org/Graphics/SVG/1.1/DTD/svg11.dtd" >
<svg>
<metadata>
Created by FontForge 20090914 at Thu Mar 18 22:53:21 2021
 By www-data
Copyright (c) 2019 by TypeType. Designers Ivan Gladkikh, Pavel Emelyanov. Technical designers Marina Khodak, Nadezhda Polomoshnova, Kseniya Karataeva, Olexa Volochay, Nadyr Rakhimov. All rights reserved. |DCNT
</metadata>
<defs>
<font id="TTHoves-Thin" horiz-adv-x="540" >
  <font-face 
    font-family="TT Hoves Thin"
    font-weight="250"
    font-stretch="normal"
    units-per-em="1000"
    panose-1="2 0 5 3 2 0 0 2 0 4"
    ascent="700"
    descent="-300"
    x-height="499.999"
    cap-height="700"
    bbox="-490 -230 1438 970.002"
    underline-thickness="50"
    underline-position="-150"
    unicode-range="U+000D-U+FB04"
  />
<missing-glyph horiz-adv-x="0" 
 />
    <glyph glyph-name="f_f" unicode="ff" horiz-adv-x="520" 
d="M115 0v465h-80v35h80v100c0 25.333 7 45 21 59s33.667 21 59 21h75v-35h-75c-30 0 -45 -15 -45 -45v-100h195v100c0 25.333 7 45 21 59s33.667 21 59 21h75v-35h-75c-30 0 -45 -15 -45 -45v-100h120v-35h-120v-465h-35v465h-195v-465h-35z" />
    <glyph glyph-name="uniFB01" unicode="fi" horiz-adv-x="470" 
d="M115 0v465h-80v35h80v100c0 25.333 7 45 21 59s33.667 21 59 21h70v-35h-70c-30 0 -45 -15 -45 -45v-100h230v-500h-35v465h-195v-465h-35zM340 635v45h45v-45h-45z" />
    <glyph glyph-name="uniFB02" unicode="fl" horiz-adv-x="475" 
d="M115 0v465h-80v35h80v100c0 25.333 7 45 21 59s33.667 21 59 21h185v-680h-35v645h-150c-30 0 -45 -15 -45 -45v-100h115v-35h-115v-465h-35z" />
    <glyph glyph-name="f_f_i" unicode="ffi" horiz-adv-x="700" 
d="M570 635v45h45v-45h-45zM115 0v465h-80v35h80v100c0 25.333 7 45 21 59s33.667 21 59 21h75v-35h-75c-30 0 -45 -15 -45 -45v-100h195v100c0 25.333 7 45 21 59s33.667 21 59 21h70v-35h-70c-30 0 -45 -15 -45 -45v-100h230v-500h-35v465h-195v-465h-35v465h-195v-465
h-35z" />
    <glyph glyph-name="f_f_l" unicode="ffl" horiz-adv-x="705" 
d="M115 0v465h-80v35h80v100c0 25.333 7 45 21 59s33.667 21 59 21h75v-35h-75c-30 0 -45 -15 -45 -45v-100h195v100c0 25.333 7 45 21 59s33.667 21 59 21h185v-680h-35v645h-150c-30 0 -45 -15 -45 -45v-100h115v-35h-115v-465h-35v465h-195v-465h-35z" />
    <glyph glyph-name="f_f_j" unicode="ffj" horiz-adv-x="700" 
d="M570 635v45h45v-45h-45zM115 0v465h-80v35h80v100c0 25.333 7 45 21 59s33.667 21 59 21h75v-35h-75c-30 0 -45 -15 -45 -45v-100h195v100c0 25.333 7 45 21 59s33.667 21 59 21h70v-35h-70c-30 0 -45 -15 -45 -45v-100h230v-620c0 -25.333 -7 -45 -21 -59
s-33.667 -21 -59 -21h-80v35h80c30 0 45 15 45 45v585h-195v-465h-35v465h-195v-465h-35z" />
    <glyph glyph-name="f_j" unicode="fj" horiz-adv-x="470" 
d="M340 635v45h45v-45h-45zM220 -200v35h80c30 0 45 15 45 45v585h-195v-465h-35v465h-80v35h80v100c0 25.333 7 45 21 59s33.667 21 59 21h70v-35h-70c-30 0 -45 -15 -45 -45v-100h230v-620c0 -25.333 -7 -45 -21 -59s-33.667 -21 -59 -21h-80z" />
    <glyph glyph-name=".notdef" horiz-adv-x="0" 
 />
    <glyph glyph-name="NULL" horiz-adv-x="0" 
 />
    <glyph glyph-name="NULL" horiz-adv-x="0" 
 />
    <glyph glyph-name="CR" unicode="&#xd;" horiz-adv-x="0" 
 />
    <glyph glyph-name="space" unicode=" " horiz-adv-x="215" 
 />
    <glyph glyph-name="exclam" unicode="!" horiz-adv-x="245" 
d="M110 145l-5 235v320h35v-320l-5 -235h-25zM100 0v45h45v-45h-45z" />
    <glyph glyph-name="quotedbl" unicode="&#x22;" horiz-adv-x="305" 
d="M200 510v190h35v-190h-35zM70 510v190h35v-190h-35z" />
    <glyph glyph-name="numbersign" unicode="#" horiz-adv-x="690" 
d="M140 0l45 205h-165l8 35h163l48 220h-164l8 35h163l44 205h35l-44 -205h190l44 205h35l-44 -205h164l-8 -35h-163l-48 -220h164l-8 -35h-162l-45 -205h-35l45 205h-190l-45 -205h-35zM226 240h190l48 220h-190z" />
    <glyph glyph-name="dollar" unicode="$" horiz-adv-x="615" 
d="M285 -110l0.000976562 101.001c-66.667 5.33301 -120.834 28.5 -162.501 69.5s-62.5 89.167 -62.5 144.5h35c0 -49.333 20 -91.666 60 -126.999s91.667 -53 155 -53c64.667 0 115 14.833 151 44.5s54 66.5 54 110.5c0 39.333 -12 71 -36 95s-63.667 40.667 -119 50
l-95 15c-126.667 19.333 -190 79.333 -190 180c0 51.333 19 95.166 57 131.499s89 55.833 153 58.5v100h35v-101c68 -4 122.5 -26.167 163.5 -66.5s61.5 -89.5 61.5 -147.5h-35c0 51.333 -19 94.166 -57 128.499s-89 51.5 -153 51.5c-58 0 -104.167 -14.833 -138.5 -44.5
s-51.5 -66.5 -51.5 -110.5c0 -39.333 12 -71.333 36 -96s63.667 -41 119 -49l95 -15c126.667 -19.333 190 -79.333 190 -180c0 -53.333 -20.333 -98 -61 -134s-97 -54.667 -169 -56v-100h-35z" />
    <glyph glyph-name="percent" unicode="%" horiz-adv-x="765" 
d="M145 0l440 700h35l-440 -700h-35zM570 265c-30.667 0 -56.667 -11.5 -78 -34.5s-32 -51.5 -32 -85.5s10.667 -62.5 32 -85.5s47.333 -34.5 78 -34.5c30 0 55.833 11.5 77.5 34.5s32.5 51.5 32.5 85.5s-10.833 62.5 -32.5 85.5s-47.5 34.5 -77.5 34.5zM570 300
c40.667 0 75 -14.667 103 -44s42 -66.333 42 -111s-14 -81.667 -42 -111s-62.333 -44 -103 -44s-75 14.667 -103 44s-42 66.333 -42 111s14 81.667 42 111s62.333 44 103 44zM195 435c30 0 55.833 11.5 77.5 34.5s32.5 51.5 32.5 85.5s-10.833 62.5 -32.5 85.5
s-47.5 34.5 -77.5 34.5c-30.667 0 -56.667 -11.5 -78 -34.5s-32 -51.5 -32 -85.5s10.667 -62.5 32 -85.5s47.333 -34.5 78 -34.5zM195 400c-40.667 0 -75 14.667 -103 44s-42 66.333 -42 111s14 81.667 42 111s62.333 44 103 44s75 -14.667 103 -44s42 -66.333 42 -111
s-14 -81.667 -42 -111s-62.333 -44 -103 -44z" />
    <glyph glyph-name="ampersand" unicode="&#x26;" horiz-adv-x="615" 
d="M155 320l55.0049 39.9971l-65 70c-36.667 40.667 -55 82.334 -55 125.001c0 46 15.167 83.333 45.5 112s70.166 43 119.499 43c47.333 0 86.666 -15.333 117.999 -46s47 -68.667 47 -114c0 -53.333 -26.667 -98.333 -80 -135l-82 -58l197 -207
c11.333 13.333 23.666 36.333 36.999 69s21 69.667 23 111h35c0 -47.333 -8.16699 -90.166 -24.5 -128.499s-31.5 -65.5 -45.5 -81.5l115 -120h-45l-90 95c-16 -22 -33.667 -39.667 -53 -53c-44.667 -34.667 -95.334 -52 -152.001 -52
c-58.667 0 -105.834 15.833 -141.501 47.5s-53.5 70.834 -53.5 117.501c0 64 31.667 119 95 165zM232.005 337.997l-52 -38.001c-29.333 -20.667 -50.833 -42.167 -64.5 -64.5s-20.5 -49.166 -20.5 -80.499c0 -36 14.667 -66.667 44 -92s68 -38 116 -38
c46.667 0 90.334 15.667 131.001 47c17.333 13.333 33.666 29.333 48.999 48l-95 101zM235.005 379.996l85 59.999c43.333 30.667 65 67.334 65 110.001c0 35.333 -12.333 65 -37 89s-55.667 36 -93 36c-39.333 0 -70.833 -11 -94.5 -33s-35.5 -51 -35.5 -87
c0 -37.333 16.667 -74 50 -110z" />
    <glyph glyph-name="quotesingle" unicode="'" horiz-adv-x="175" 
d="M70 510v190h35v-190h-35z" />
    <glyph glyph-name="parenleft" unicode="(" horiz-adv-x="320" 
d="M285 -200h-40c-40.667 52.667 -76.667 118.5 -108 197.5s-47 168.167 -47 267.5s15.667 188.5 47 267.5s67.333 144.833 108 197.5h40c-106.667 -138 -160 -293 -160 -465s53.333 -327 160 -465z" />
    <glyph glyph-name="parenright" unicode=")" horiz-adv-x="320" 
d="M75 -200h-40c106.667 146.667 160 301.667 160 465s-53.333 318.333 -160 465h40c103.333 -142 155 -297 155 -465s-51.667 -323 -155 -465z" />
    <glyph glyph-name="asterisk" unicode="*" horiz-adv-x="460" 
d="M105 365l100 135l-160 50l10 30l160 -50v170h30v-170l160 50l10 -30l-160 -50l100 -135l-25 -20l-100 135l-100 -135z" />
    <glyph glyph-name="plus" unicode="+" horiz-adv-x="535" 
d="M250 70v205h-190v35h190v203h35v-203h190v-35h-190v-205h-35z" />
    <glyph glyph-name="comma" unicode="," horiz-adv-x="195" 
d="M50 -85l25 135h45l-40 -135h-30z" />
    <glyph glyph-name="hyphen" unicode="-" horiz-adv-x="430" 
d="M55 270v35h320v-35h-320z" />
    <glyph glyph-name="period" unicode="." horiz-adv-x="195" 
d="M75 0v45h45v-45h-45z" />
    <glyph glyph-name="slash" unicode="/" horiz-adv-x="310" 
d="M0 -200l275 930h35l-275 -930h-35z" />
    <glyph glyph-name="zero" unicode="0" horiz-adv-x="640" 
d="M320 675c-62 0 -114.167 -28 -156.5 -84s-63.5 -136.333 -63.5 -241s21.167 -185 63.5 -241s94.5 -84 156.5 -84s114.167 28 156.5 84s63.5 136.333 63.5 241s-21.167 185 -63.5 241s-94.5 84 -156.5 84zM320 710c72 0 132.5 -31.333 181.5 -94
s73.5 -151.334 73.5 -266.001s-24.5 -203.334 -73.5 -266.001s-109.5 -94 -181.5 -94s-132.5 31.333 -181.5 94s-73.5 151.334 -73.5 266.001s24.5 203.334 73.5 266.001s109.5 94 181.5 94z" />
    <glyph glyph-name="one" unicode="1" horiz-adv-x="320" 
d="M185 0v585h-150v35h120c20 0 30 10 30 30v50h35v-700h-35z" />
    <glyph glyph-name="two" unicode="2" horiz-adv-x="535" 
d="M70 0l0.00195312 29.998l285 300c15.333 16 27.166 29.5 35.499 40.5s17 28.333 26 52s13.5 49.5 13.5 77.5c0 52 -15.5 94.167 -46.5 126.5s-70.5 48.5 -118.5 48.5c-46.667 0 -85.834 -17.667 -117.501 -53s-47.5 -81 -47.5 -137h-35
c0 66.667 19.333 120.834 58 162.501s86 62.5 142 62.5c58 0 105.833 -19.5 143.5 -58.5s56.5 -89.5 56.5 -151.5c0 -30.667 -5.5 -59.667 -16.5 -87s-21 -46.666 -30 -57.999s-21.833 -26.333 -38.5 -45l-255 -270v-5h355v-35h-410z" />
    <glyph glyph-name="three" unicode="3" horiz-adv-x="550" 
d="M50 185l35.001 0.000976562c0 -46 16.5 -84.167 49.5 -114.5s76.5 -45.5 130.5 -45.5c56.667 0 101.667 15.167 135 45.5s50 68.5 50 114.5c0 43.333 -16.833 80 -50.5 110s-78.5 45 -134.5 45h-45v35h45c53.333 0 95.833 13.833 127.5 41.5s47.5 62.167 47.5 103.5
c0 43.333 -16.333 80 -49 110s-74.667 45 -126 45c-49.333 0 -90 -15.167 -122 -45.5s-48 -66.833 -48 -109.5h-35c0 53.333 19.333 98.333 58 135s87.667 55 147 55c61.333 0 111.666 -18.333 150.999 -55s59 -81.667 59 -135c0 -74.667 -40 -128 -120 -160v-5
c11.333 -3.33301 23.166 -8.5 35.499 -15.5s26.333 -17 42 -30s28.334 -30.333 38.001 -52s14.5 -45.834 14.5 -72.501c0 -56 -20.167 -102.5 -60.5 -139.5s-93.5 -55.5 -159.5 -55.5c-64 0 -115.833 18.5 -155.5 55.5s-59.5 83.5 -59.5 139.5z" />
    <glyph glyph-name="four" unicode="4" horiz-adv-x="525" 
d="M35 175v35l285 490h75v-490h105v-35h-105v-175h-35v175h-325zM80 210h280v455h-20l-260 -450v-5z" />
    <glyph glyph-name="five" unicode="5" horiz-adv-x="555" 
d="M60 185l35.002 0.000976562c5.33301 -43.333 25.666 -80.833 60.999 -112.5s76.666 -47.5 123.999 -47.5c52.667 0 96.667 18.333 132 55s53 83.334 53 140.001c0 54.667 -17.667 100 -53 136s-79.333 54 -132 54c-60 0 -111.667 -21.667 -155 -65h-50l35 355h350v-35
h-320l-30 -285h5c43.333 43.333 100 65 170 65c60.667 0 111.667 -21.333 153 -64s62 -96.334 62 -161.001c0 -66.667 -21 -121.667 -63 -165s-94.333 -65 -157 -65c-57.333 0 -107 18.667 -149 56s-65.667 83.666 -71 138.999z" />
    <glyph glyph-name="six" unicode="6" horiz-adv-x="550" 
d="M100 370l215.002 330h39l-192 -295h5c34 23.333 73.333 35 118 35c60.667 0 111.667 -21.333 153 -64s62 -96.334 62 -161.001s-21.333 -118.334 -64 -161.001s-96.334 -64 -161.001 -64s-118.334 21.333 -161.001 64s-64 96.334 -64 161.001
c0 54.667 16.667 106.334 50 155.001zM275.002 25c55.333 0 100.833 17.833 136.5 53.5s53.5 81.167 53.5 136.5s-17.833 100.833 -53.5 136.5s-81.167 53.5 -136.5 53.5s-100.833 -17.833 -136.5 -53.5s-53.5 -81.167 -53.5 -136.5s17.833 -100.833 53.5 -136.5
s81.167 -53.5 136.5 -53.5z" />
    <glyph glyph-name="seven" unicode="7" horiz-adv-x="480" 
d="M140 0l265 665h-370v35h410v-20l-270 -680h-35z" />
    <glyph glyph-name="eight" unicode="8" horiz-adv-x="560" 
d="M195 360v5c-10 4 -20.333 9.33301 -31 16s-23 16.167 -37 28.5s-25.333 28.5 -34 48.5s-13 42.333 -13 67c0 50.667 19.167 94.167 57.5 130.5s85.833 54.5 142.5 54.5s104.167 -18.167 142.5 -54.5s57.5 -79.833 57.5 -130.5c0 -24.667 -4.33301 -47 -13 -67
s-20 -36.167 -34 -48.5s-26.333 -21.833 -37 -28.5s-21 -12 -31 -16v-5c11.333 -5.33301 20.5 -9.83301 27.5 -13.5s17.667 -10.834 32 -21.501s26 -21.834 35 -33.501s17.167 -26.834 24.5 -45.501s11 -39 11 -61c0 -53.333 -20.5 -99.166 -61.5 -137.499
s-92.167 -57.5 -153.5 -57.5s-112.5 19.167 -153.5 57.5s-61.5 84.166 -61.5 137.499c0 22 3.66699 42.333 11 61s15.5 33.834 24.5 45.501s20.667 22.834 35 33.501s25 17.834 32 21.501s16.167 8.16699 27.5 13.5zM115 525c0 -40.667 15.333 -75 46 -103
s70.334 -42 119.001 -42s88.334 14 119.001 42s46 62.333 46 103s-15.833 75.834 -47.5 105.501s-70.834 44.5 -117.501 44.5s-85.834 -14.833 -117.501 -44.5s-47.5 -64.834 -47.5 -105.501zM100 185c0 -43.333 17.167 -80.833 51.5 -112.5s77.166 -47.5 128.499 -47.5
s94.166 15.833 128.499 47.5s51.5 69.167 51.5 112.5s-17.167 80.833 -51.5 112.5s-77.166 47.5 -128.499 47.5s-94.166 -15.833 -128.499 -47.5s-51.5 -69.167 -51.5 -112.5z" />
    <glyph glyph-name="nine" unicode="9" horiz-adv-x="550" 
d="M196 0l191.998 295h-5c-34 -23.333 -73.333 -35 -118 -35c-60.667 0 -111.667 21.333 -153 64s-62 96.334 -62 161.001s21.333 118.334 64 161.001s96.334 64 161.001 64s118.334 -21.333 161.001 -64s64 -96.334 64 -161.001c0 -54.667 -16.667 -106.334 -50 -155.001
l-215 -330h-39zM274.998 295c55.333 0 100.833 17.833 136.5 53.5s53.5 81.167 53.5 136.5s-17.833 100.833 -53.5 136.5s-81.167 53.5 -136.5 53.5s-100.833 -17.833 -136.5 -53.5s-53.5 -81.167 -53.5 -136.5s17.833 -100.833 53.5 -136.5s81.167 -53.5 136.5 -53.5z" />
    <glyph glyph-name="colon" unicode=":" horiz-adv-x="195" 
d="M75 0v45h45v-45h-45zM75 455v45h45v-45h-45z" />
    <glyph glyph-name="semicolon" unicode=";" horiz-adv-x="195" 
d="M50 -85l25 135h45l-40 -135h-30zM75 455v45h45v-45h-45z" />
    <glyph glyph-name="less" unicode="&#x3c;" horiz-adv-x="535" 
d="M55 275v30l405 175v-35l-360 -155l360 -155v-35z" />
    <glyph glyph-name="equal" unicode="=" horiz-adv-x="530" 
d="M90 350v35h350v-35h-350zM90 195v35h350v-35h-350z" />
    <glyph glyph-name="greater" unicode="&#x3e;" horiz-adv-x="535" 
d="M75 100v35l360 155l-360 155v35l405 -175v-30z" />
    <glyph glyph-name="question" unicode="?" horiz-adv-x="500" 
d="M220 160v59.999c0 31.333 6.83301 56.833 20.5 76.5s35.167 37.5 64.5 53.5c39.333 21.333 67.5 43.833 84.5 67.5s25.5 56.167 25.5 97.5c0 43.333 -16.5 80.833 -49.5 112.5s-73.167 47.5 -120.5 47.5c-49.333 0 -90 -15.333 -122 -46s-48 -68.667 -48 -114h-35
c0 55.333 19.333 101.666 58 138.999s87.667 56 147 56c56.667 0 105 -19.167 145 -57.5s60 -84.166 60 -137.499c0 -45.333 -9.5 -82.166 -28.5 -110.499s-47.833 -53.166 -86.5 -74.499c-28.667 -15.333 -49.167 -30.833 -61.5 -46.5s-18.5 -36.834 -18.5 -63.501v-60h-35
zM215 -0.000976562v45h45v-45h-45z" />
    <glyph glyph-name="at" unicode="@" horiz-adv-x="915" 
d="M445 115c46 0 84.167 16.167 114.5 48.5s45.5 74.5 45.5 126.5s-15.167 94.167 -45.5 126.5s-68.5 48.5 -114.5 48.5s-84.167 -16.167 -114.5 -48.5s-45.5 -74.5 -45.5 -126.5s15.167 -94.167 45.5 -126.5s68.5 -48.5 114.5 -48.5zM455 -55h200.001v-35h-200
c-114.667 0 -207.5 35.5 -278.5 106.5s-106.5 163.833 -106.5 278.5c0 114 36.5 208.333 109.5 283s164.833 112 275.5 112c116.667 0 212.5 -36.5 287.5 -109.5s112.5 -164.833 112.5 -275.5c0 -73.333 -14 -129.166 -42 -167.499s-62.333 -57.5 -103 -57.5
s-69.334 15 -86.001 45c-7.33301 14 -12 29 -14 45h-5c-12.667 -24 -32.667 -45 -60 -63s-60.666 -27 -99.999 -27c-56 0 -102.5 19.5 -139.5 58.5s-55.5 89.5 -55.5 151.5s18.5 112.5 55.5 151.5s83.5 58.5 139.5 58.5c39.333 0 72.666 -9 99.999 -27s47.333 -39 60 -63h5
l5 80h25v-285c0 -60 23.333 -90 70 -90c30.667 0 56.667 15.833 78 47.5s32 79.167 32 142.5c0 100.667 -34.167 184.167 -102.5 250.5s-155.833 99.5 -262.5 99.5c-102.667 0 -186.667 -33.333 -252 -100s-98 -153.334 -98 -260.001c0 -105.333 32 -190 96 -254
s148.667 -96 254 -96z" />
    <glyph glyph-name="A" unicode="A" horiz-adv-x="620" 
d="M15 0l265 700h60l265 -700h-35l-75 200h-370l-75 -200h-35zM139 235h342l-161 425h-20z" />
    <glyph glyph-name="B" unicode="B" horiz-adv-x="635" 
d="M100 0v700.001h260c59.333 0 107.5 -17.5 144.5 -52.5s55.5 -79.167 55.5 -132.5c0 -49.333 -18.333 -91 -55 -125c-16 -14 -34.333 -25.667 -55 -35v-5c22.667 -6.66699 42.667 -17.334 60 -32.001c40 -30.667 60 -75 60 -133c0 -55.333 -18 -100 -54 -134
s-84.667 -51 -146 -51h-270zM135 370.001l224.998 0.000976562c48.667 0 88.334 14 119.001 42s46 62.333 46 103c0 43.333 -15.167 79.166 -45.5 107.499s-70.166 42.5 -119.499 42.5h-225v-295zM134.998 35.002h235c52 0 92.5 13.5 121.5 40.5s43.5 63.5 43.5 109.5
s-14.5 82.5 -43.5 109.5s-69.5 40.5 -121.5 40.5h-235v-300z" />
    <glyph glyph-name="C" unicode="C" horiz-adv-x="735" 
d="M645 230l40.001 0.000976562c-5.33301 -19.333 -13 -39.166 -23 -59.499s-23.667 -41.5 -41 -63.5s-37 -41.5 -59 -58.5s-48.833 -31 -80.5 -42s-65.5 -16.5 -101.5 -16.5c-89.333 0 -165 33.667 -227 101s-93 153.666 -93 258.999s31 191.666 93 258.999
s137.667 101 227 101c44.667 0 85.667 -8 123 -24s67.666 -36.833 90.999 -62.5s42 -51 56 -76s24 -49.167 30 -72.5h-35c-14 50 -44.667 95.833 -92 137.5s-105 62.5 -173 62.5c-80 0 -147.5 -30.333 -202.5 -91s-82.5 -138.667 -82.5 -234s27.5 -173.333 82.5 -234
s122.5 -91 202.5 -91c68.667 0 126.5 21.167 173.5 63.5s77.5 89.5 91.5 141.5z" />
    <glyph glyph-name="D" unicode="D" horiz-adv-x="705" 
d="M100 0v700h210c100.667 0 181.667 -31.667 243 -95s92 -148.333 92 -255s-30.667 -191.667 -92 -255s-142.333 -95 -243 -95h-210zM135 35l175 -0.00195312c90.667 0 163.334 28.333 218.001 85s82 133.334 82 230.001s-27.333 173.334 -82 230.001
s-127.334 85 -218.001 85h-175v-630z" />
    <glyph glyph-name="E" unicode="E" horiz-adv-x="600" 
d="M100 0v700h430v-35h-395v-295h375v-35h-375v-300h395v-35h-430z" />
    <glyph glyph-name="F" unicode="F" horiz-adv-x="580" 
d="M100 0v700h420v-35h-385v-295h365v-35h-365v-335h-35z" />
    <glyph glyph-name="G" unicode="G" horiz-adv-x="760" 
d="M655 0l-5.00098 150.006h-5c-7.33301 -14.667 -17.666 -30.167 -30.999 -46.5s-30.666 -33.5 -51.999 -51.5s-48 -32.833 -80 -44.5s-66 -17.5 -102 -17.5c-89.333 0 -165 33.667 -227 101s-93 153.666 -93 258.999s31 191.666 93 258.999s137.667 101 227 101
c46 0 87.833 -8.33301 125.5 -25s67.834 -37.834 90.501 -63.501s40.334 -49.334 53.001 -71.001s21.334 -41.834 26.001 -60.501h-35c-6.66699 17.333 -16.334 35.5 -29.001 54.5s-29.334 38.833 -50.001 59.5s-46.834 37.667 -78.501 51s-65.834 20 -102.501 20
c-80 0 -147.5 -30.333 -202.5 -91s-82.5 -138.667 -82.5 -234s27.5 -173.333 82.5 -234s122.5 -91 202.5 -91c72 0 135 25.667 189 77s81 110.666 81 177.999v35h-245v35h280v-350h-30z" />
    <glyph glyph-name="H" unicode="H" horiz-adv-x="725" 
d="M100 0v700h35v-325h455v325h35v-700h-35v340h-455v-340h-35z" />
    <glyph glyph-name="I" unicode="I" horiz-adv-x="235" 
d="M100 0v700h35v-700h-35z" />
    <glyph glyph-name="J" unicode="J" horiz-adv-x="395" 
d="M20 0v35h180c20 0 35.833 5.83301 47.5 17.5s17.5 27.5 17.5 47.5v600h35v-600c0 -66.667 -33.333 -100 -100 -100h-180z" />
    <glyph glyph-name="K" unicode="K" horiz-adv-x="565" 
d="M100 0v700h35v-331l345 331h50l-360 -345l380 -355h-50l-365 341v-341h-35z" />
    <glyph glyph-name="L" unicode="L" 
d="M100 0v700h35v-665h375v-35h-410z" />
    <glyph glyph-name="M" unicode="M" horiz-adv-x="890" 
d="M100 0v700h80l255 -665h20l255 665h80v-700h-35v665h-20l-255 -665h-70l-255 665h-20v-665h-35z" />
    <glyph glyph-name="N" unicode="N" horiz-adv-x="720" 
d="M100 0v700h75l390 -665h20v665h35v-700h-75l-390 665h-20v-665h-35z" />
    <glyph glyph-name="O" unicode="O" horiz-adv-x="760" 
d="M380 675c-80 0 -147.5 -30.333 -202.5 -91s-82.5 -138.667 -82.5 -234s27.5 -173.333 82.5 -234s122.5 -91 202.5 -91s147.5 30.333 202.5 91s82.5 138.667 82.5 234s-27.5 173.333 -82.5 234s-122.5 91 -202.5 91zM380 710c89.333 0 165 -33.667 227 -101
s93 -153.666 93 -258.999s-31 -191.666 -93 -258.999s-137.667 -101 -227 -101s-165 33.667 -227 101s-93 153.666 -93 258.999s31 191.666 93 258.999s137.667 101 227 101z" />
    <glyph glyph-name="P" unicode="P" horiz-adv-x="635" 
d="M100 0v700h265c65.333 0 116.666 -18.5 153.999 -55.5s56 -86.833 56 -149.5s-18.667 -112.5 -56 -149.5s-88.666 -55.5 -153.999 -55.5h-230v-290h-35zM135 325h230c55.333 0 98.333 15.167 129 45.5s46 71.833 46 124.5s-15.333 94.167 -46 124.5
s-73.667 45.5 -129 45.5h-230v-340z" />
    <glyph glyph-name="Q" unicode="Q" horiz-adv-x="760" 
d="M640 -10l-70.001 65.002c-16 -14 -32.667 -25 -50 -33c-44 -21.333 -90.667 -32 -140 -32c-89.333 0 -165 33.667 -227 101s-93 153.666 -93 258.999s31 191.666 93 258.999s137.667 101 227 101s165 -33.667 227 -101s93 -153.666 93 -258.999
c0 -76.667 -17.667 -144.334 -53 -203.001c-14 -24.667 -31.333 -47 -52 -67c11.333 -11.333 27.833 -27 49.5 -47s36.834 -34.333 45.501 -43h-50zM359.999 260.002h50.001l160 -155c18 18 33.667 38.333 47 61c32 54.667 48 116 48 184c0 95.333 -27.5 173.333 -82.5 234
s-122.5 91 -202.5 91s-147.5 -30.333 -202.5 -91s-82.5 -138.667 -82.5 -234s27.5 -173.333 82.5 -234s122.5 -91 202.5 -91c48 0 88.667 9 122 27c17.333 8 31.666 17.333 42.999 28z" />
    <glyph glyph-name="R" unicode="R" horiz-adv-x="645" 
d="M100 0v700h265c65.333 0 116.666 -18.5 153.999 -55.5s56 -86.833 56 -149.5s-18.667 -112.5 -56 -149.5s-88.666 -55.5 -153.999 -55.5h-75l305 -290h-50l-305 290h-105v-290h-35zM135 325h230c55.333 0 98.333 15.167 129 45.5s46 71.833 46 124.5
s-15.333 94.167 -46 124.5s-73.667 45.5 -129 45.5h-230v-340z" />
    <glyph glyph-name="S" unicode="S" horiz-adv-x="615" 
d="M60 205h34.999c0 -49.333 20 -91.666 60 -126.999s91.667 -53 155 -53c64.667 0 115 14.833 151 44.5s54 66.5 54 110.5c0 39.333 -12 71 -36 95s-63.667 40.667 -119 50l-95 15c-126.667 19.333 -190 79.333 -190 180c0 54 20.5 99.167 61.5 135.5s95.5 54.5 163.5 54.5
c73.333 0 132.5 -20.5 177.5 -61.5s67.5 -92.167 67.5 -153.5h-35c0 51.333 -19 94.166 -57 128.499s-89 51.5 -153 51.5c-58 0 -104.167 -14.833 -138.5 -44.5s-51.5 -66.5 -51.5 -110.5c0 -39.333 12 -71.333 36 -96s63.667 -41 119 -49l95 -15
c126.667 -19.333 190 -79.333 190 -180c0 -54.667 -21.167 -100 -63.5 -136s-101.166 -54 -176.499 -54c-72.667 0 -132.5 21 -179.5 63s-70.5 92.667 -70.5 152z" />
    <glyph glyph-name="T" unicode="T" horiz-adv-x="595" 
d="M280 0v665h-250v35h535v-35h-250v-665h-35z" />
    <glyph glyph-name="U" unicode="U" horiz-adv-x="700" 
d="M90 275l0.00195312 425h35v-425c0 -73.333 21.667 -133.333 65 -180s96.666 -70 159.999 -70s116.666 23.333 159.999 70s65 106.667 65 180v425h35v-425c0 -84 -24.833 -152.5 -74.5 -205.5s-111.5 -79.5 -185.5 -79.5s-135.833 26.5 -185.5 79.5
s-74.5 121.5 -74.5 205.5z" />
    <glyph glyph-name="V" unicode="V" horiz-adv-x="610" 
d="M270 0l-250 700h38l237 -665h20l237 665h38l-250 -700h-70z" />
    <glyph glyph-name="W" unicode="W" horiz-adv-x="900" 
d="M200 0l-175 700h35l165 -665h20l170 665h70l170 -665h20l165 665h35l-175 -700h-70l-170 665h-20l-170 -665h-70z" />
    <glyph glyph-name="X" unicode="X" horiz-adv-x="600" 
d="M20 0l243 360l-228 340h40l215 -320h20l215 320h40l-228 -340l243 -360h-40l-230 340h-20l-230 -340h-40z" />
    <glyph glyph-name="Y" unicode="Y" horiz-adv-x="585" 
d="M275 0v260l-260 440h40l225 -385h25l225 385h40l-260 -440v-260h-35z" />
    <glyph glyph-name="Z" unicode="Z" horiz-adv-x="575" 
d="M50 0v30l425 635h-420v35h465v-30l-425 -635h430v-35h-475z" />
    <glyph glyph-name="bracketleft" unicode="[" horiz-adv-x="320" 
d="M105 -200v930h185v-35h-150v-860h150v-35h-185z" />
    <glyph glyph-name="backslash" unicode="\" horiz-adv-x="310" 
d="M275 -200l-275 930h35l275 -930h-35z" />
    <glyph glyph-name="bracketright" unicode="]" horiz-adv-x="320" 
d="M30 -200v35h150v860h-150v35h185v-930h-185z" />
    <glyph glyph-name="asciicircum" unicode="^" horiz-adv-x="395" 
d="M70 430l110 270h35l110 -270h-35l-90 230h-5l-90 -230h-35z" />
    <glyph glyph-name="underscore" unicode="_" horiz-adv-x="335" 
d="M-20 -135v35h375v-35h-375z" />
    <glyph glyph-name="grave" unicode="`" horiz-adv-x="180" 
d="M120 600l-90 115h40l80 -115h-30z" />
    <glyph glyph-name="a" unicode="a" horiz-adv-x="525" 
d="M440 0l-24.998 -0.00195312c-1.33301 10.667 -2.33301 27.334 -3 50.001s-1.33398 39.334 -2.00098 50.001h-5c-38.667 -73.333 -100.334 -110 -185.001 -110c-49.333 0 -88.333 13.333 -117 40s-43 61.667 -43 105c0 46.667 16.167 84.167 48.5 112.5
s77.833 42.5 136.5 42.5h160v35c0 48 -12.667 85 -38 111s-61 39 -107 39c-42.667 0 -77 -10.5 -103 -31.5s-41.667 -50.5 -47 -88.5h-35c6 47.333 24.833 85 56.5 113s74.5 42 128.5 42c56 0 100 -16.333 132 -49s48 -78 48 -136v-325zM405.002 224.998l0.000976562 30.001
h-160c-48.667 0 -85.834 -10.833 -111.501 -32.5s-38.5 -50.834 -38.5 -87.501c0 -33.333 11 -60 33 -80s52.667 -30 92 -30c55.333 0 100 18 134 54s51 84.667 51 146z" />
    <glyph glyph-name="b" unicode="b" horiz-adv-x="585" 
d="M95 0v700h35v-310h5c11.333 22 26 42 44 60c40 40 87 60 141 60c59.333 0 110 -24 152 -72s63 -110.667 63 -188s-21 -140 -63 -188s-92.667 -72 -152 -72c-54 0 -101 20 -141 60c-18 18 -32.667 38 -44 60h-5l-10 -110h-25zM315 25c52 0 95.833 20.5 131.5 61.5
s53.5 95.5 53.5 163.5s-17.833 122.5 -53.5 163.5s-79.5 61.5 -131.5 61.5s-95.833 -20.5 -131.5 -61.5s-53.5 -95.5 -53.5 -163.5s17.833 -122.5 53.5 -163.5s79.5 -61.5 131.5 -61.5z" />
    <glyph glyph-name="c" unicode="c" horiz-adv-x="530" 
d="M450 165h35.0029c-2.66699 -16 -8.66699 -33 -18 -51s-22 -36.833 -38 -56.5s-37.5 -35.834 -64.5 -48.501s-56.833 -19 -89.5 -19c-64 0 -117.5 23.833 -160.5 71.5s-64.5 110.5 -64.5 188.5s21.5 140.833 64.5 188.5s96.5 71.5 160.5 71.5
c32.667 0 62.5 -6.33301 89.5 -19s48.5 -28.5 64.5 -47.5s28.5 -37.167 37.5 -54.5s15.167 -33.666 18.5 -48.999h-35c-10.667 34 -30.334 65 -59.001 93s-67.334 42 -116.001 42c-54 0 -99.167 -20.5 -135.5 -61.5s-54.5 -95.5 -54.5 -163.5s18.167 -122.5 54.5 -163.5
s81.5 -61.5 135.5 -61.5c49.333 0 88.166 14.333 116.499 43s47.833 61 58.5 97z" />
    <glyph glyph-name="d" unicode="d" horiz-adv-x="585" 
d="M465 0l-10 110h-5c-11.333 -22 -26 -42 -44 -60c-40 -40 -87 -60 -141 -60c-59.333 0 -110 24 -152 72s-63 110.667 -63 188s21 140 63 188s92.667 72 152 72c54 0 101 -20 141 -60c18 -18 32.667 -38 44 -60h5v310h35v-700h-25zM270 25c52 0 95.833 20.5 131.5 61.5
s53.5 95.5 53.5 163.5s-17.833 122.5 -53.5 163.5s-79.5 61.5 -131.5 61.5s-95.833 -20.5 -131.5 -61.5s-53.5 -95.5 -53.5 -163.5s17.833 -122.5 53.5 -163.5s79.5 -61.5 131.5 -61.5z" />
    <glyph glyph-name="e" unicode="e" horiz-adv-x="550" 
d="M445 140l35 0.00292969c-3.33301 -12.667 -9.16602 -26.334 -17.499 -41.001s-20.166 -30.834 -35.499 -48.501s-36.333 -32.167 -63 -43.5s-56.334 -17 -89.001 -17c-64 0 -117.5 23.833 -160.5 71.5s-64.5 110.5 -64.5 188.5c0 78.667 21.667 141.667 65 189
s98.333 71 165 71c61.333 0 113.333 -23.333 156 -70s64 -106.667 64 -180v-25h-415c5.33301 -64.667 25.666 -115.834 60.999 -153.501s78.333 -56.5 129 -56.5c48 0 86.333 12.667 115 38s47 51 55 77zM85 270.003h380c-2.66699 61.333 -21.5 110.833 -56.5 148.5
s-77.833 56.5 -128.5 56.5c-53.333 0 -98.5 -18.833 -135.5 -56.5s-56.833 -87.167 -59.5 -148.5z" />
    <glyph glyph-name="f" unicode="f" horiz-adv-x="290" 
d="M115 0v465h-80v35h80v100c0 25.333 7 45 21 59s33.667 21 59 21h75v-35h-75c-30 0 -45 -15 -45 -45v-100h120v-35h-120v-465h-35z" />
    <glyph glyph-name="g" unicode="g" horiz-adv-x="580" 
d="M75 -40h35.001c2.66699 -37.333 19.167 -69.166 49.5 -95.499s70.5 -39.5 120.5 -39.5c55.333 0 98.333 15.333 129 46s46 73.667 46 129v140h-5c-11.333 -22 -26 -42 -44 -60c-40 -40 -87 -60 -141 -60c-58.667 0 -109.167 23.167 -151.5 69.5
s-63.5 104.833 -63.5 175.5s21.167 129.167 63.5 175.5s92.833 69.5 151.5 69.5c54 0 101 -20 141 -60c18 -18 32.667 -38 44 -60h5l4 41c0.666992 7.33301 1.5 19 2.5 35s2.16699 27.333 3.5 34h25v-500c0 -62.667 -19.333 -113.334 -58 -152.001s-89.334 -58 -152.001 -58
c-60 0 -108.5 16.5 -145.5 49.5s-56.833 73.167 -59.5 120.5zM270.001 55c51.333 0 95 19.667 131 59s54 89.666 54 150.999s-18 111.666 -54 150.999s-79.667 59 -131 59s-95 -19.667 -131 -59s-54 -89.666 -54 -150.999s18 -111.666 54 -150.999s79.667 -59 131 -59z" />
    <glyph glyph-name="h" unicode="h" horiz-adv-x="580" 
d="M95 0v700h35v-290h5c8 16.667 20.333 33.334 37 50.001c36 33.333 78.667 50 128 50c58 0 105 -18.833 141 -56.5s54 -88.834 54 -153.501v-300h-35v300c0 52 -15.167 94.167 -45.5 126.5s-68.5 48.5 -114.5 48.5c-48 0 -88.333 -16.667 -121 -50s-49 -75 -49 -125v-300
h-35z" />
    <glyph glyph-name="i" unicode="i" horiz-adv-x="215" 
d="M90 0v500h35v-500h-35zM85 640v45h45v-45h-45z" />
    <glyph glyph-name="j" unicode="j" horiz-adv-x="215" 
d="M85 640v45h45v-45h-45zM-35 -200v35h80c30 0 45 15 45 45v620h35v-620c0 -25.333 -7 -45 -21 -59s-33.667 -21 -59 -21h-80z" />
    <glyph glyph-name="k" unicode="k" horiz-adv-x="470" 
d="M95 0v700h35v-433l275 233h50l-290 -245l300 -255h-50l-285 243v-243h-35z" />
    <glyph glyph-name="l" unicode="l" horiz-adv-x="225" 
d="M95 0v700h35v-700h-35z" />
    <glyph glyph-name="m" unicode="m" horiz-adv-x="840" 
d="M90 0l-0.00195312 499.999h25l5 -75h5c11.333 21.333 28.833 40.833 52.5 58.5s54.5 26.5 92.5 26.5c24 0 46 -4.5 66 -13.5s35.667 -20.5 47 -34.5s19.833 -26 25.5 -36s9.5 -18.667 11.5 -26h5c11.333 28.667 30.333 54.167 57 76.5s61 33.5 103 33.5
c51.333 0 92.5 -17.167 123.5 -51.5s46.5 -82.166 46.5 -143.499v-315h-35v315c0 51.333 -12.167 90.833 -36.5 118.5s-57.166 41.5 -98.499 41.5c-42.667 0 -77.5 -14.667 -104.5 -44s-40.5 -68 -40.5 -116v-315h-35v315c0 51.333 -12.167 90.833 -36.5 118.5
s-57.166 41.5 -98.499 41.5c-42.667 0 -77.5 -14.667 -104.5 -44s-40.5 -68 -40.5 -116v-315h-35z" />
    <glyph glyph-name="n" unicode="n" horiz-adv-x="575" 
d="M90 0v500h25l10 -90h5c8 16.667 20.333 33.334 37 50.001c36 33.333 78.667 50 128 50c58 0 105 -18.833 141 -56.5s54 -88.834 54 -153.501v-300h-35v300c0 52 -15.167 94.167 -45.5 126.5s-68.5 48.5 -114.5 48.5c-48 0 -88.333 -16.667 -121 -50s-49 -75 -49 -125
v-300h-35z" />
    <glyph glyph-name="o" unicode="o" horiz-adv-x="550" 
d="M275 475c-54 0 -99.167 -20.5 -135.5 -61.5s-54.5 -95.5 -54.5 -163.5s18.167 -122.5 54.5 -163.5s81.5 -61.5 135.5 -61.5s99.167 20.5 135.5 61.5s54.5 95.5 54.5 163.5s-18.167 122.5 -54.5 163.5s-81.5 61.5 -135.5 61.5zM275 510c64 0 117.5 -23.833 160.5 -71.5
s64.5 -110.5 64.5 -188.5s-21.5 -140.833 -64.5 -188.5s-96.5 -71.5 -160.5 -71.5s-117.5 23.833 -160.5 71.5s-64.5 110.5 -64.5 188.5s21.5 140.833 64.5 188.5s96.5 71.5 160.5 71.5z" />
    <glyph glyph-name="p" unicode="p" horiz-adv-x="580" 
d="M90 -200v700h25l10 -110h5c11.333 22 26 42 44 60c40 40 87 60 141 60c59.333 0 110 -24 152 -72s63 -110.667 63 -188s-21 -140 -63 -188s-92.667 -72 -152 -72c-54 0 -101 20 -141 60c-18 18 -32.667 38 -44 60h-5v-310h-35zM310 25c52 0 95.833 20.5 131.5 61.5
s53.5 95.5 53.5 163.5s-17.833 122.5 -53.5 163.5s-79.5 61.5 -131.5 61.5s-95.833 -20.5 -131.5 -61.5s-53.5 -95.5 -53.5 -163.5s17.833 -122.5 53.5 -163.5s79.5 -61.5 131.5 -61.5z" />
    <glyph glyph-name="q" unicode="q" horiz-adv-x="580" 
d="M455 -200v310h-5c-11.333 -22 -26 -42 -44 -60c-40 -40 -87 -60 -141 -60c-59.333 0 -110 24 -152 72s-63 110.667 -63 188s21 140 63 188s92.667 72 152 72c54 0 101 -20 141 -60c18 -18 32.667 -38 44 -60h5l10 110h25v-700h-35zM270 25c52 0 95.833 20.5 131.5 61.5
s53.5 95.5 53.5 163.5s-17.833 122.5 -53.5 163.5s-79.5 61.5 -131.5 61.5s-95.833 -20.5 -131.5 -61.5s-53.5 -95.5 -53.5 -163.5s17.833 -122.5 53.5 -163.5s79.5 -61.5 131.5 -61.5z" />
    <glyph glyph-name="r" unicode="r" horiz-adv-x="340" 
d="M90 0l-0.000976562 500h30l5 -50h5c18.667 33.333 50.334 50 95.001 50h100v-35h-100c-28.667 0 -52.5 -10.333 -71.5 -31s-28.5 -47 -28.5 -79v-355h-35z" />
    <glyph glyph-name="s" unicode="s" horiz-adv-x="460" 
d="M45 145l35.001 0.00195312c0 -32.667 13 -60.834 39 -84.501s61.333 -35.5 106 -35.5c48 0 85 10 111 30s39 45 39 75c0 26.667 -7.16699 46.834 -21.5 60.501s-37.166 23.5 -68.499 29.5l-100 20c-48 8.66699 -81.667 24 -101 46s-29 50 -29 84
c0 38.667 15.667 71.667 47 99s72.333 41 123 41c53.333 0 96.666 -15 129.999 -45s50 -66.667 50 -110h-35c0 33.333 -13.167 61.666 -39.5 84.999s-61.5 35 -105.5 35s-77.5 -9.66699 -100.5 -29s-34.5 -44.666 -34.5 -75.999c0 -26.667 6.83301 -47.334 20.5 -62.001
s38.5 -25.667 74.5 -33l100 -20c42.667 -8.66699 74.167 -22.834 94.5 -42.501s30.5 -47.167 30.5 -82.5c0 -39.333 -16.5 -72.5 -49.5 -99.5s-78.167 -40.5 -135.5 -40.5c-54.667 0 -98.334 15 -131.001 45s-49 66.667 -49 110z" />
    <glyph glyph-name="t" unicode="t" horiz-adv-x="335" 
d="M115 80v385h-80v35h80v140h35v-140h135v-35h-135v-385c0 -30 15 -45 45 -45h90v-35h-90c-25.333 0 -45 7 -59 21s-21 33.667 -21 59z" />
    <glyph glyph-name="u" unicode="u" horiz-adv-x="575" 
d="M85 200v299.999h35v-300c0 -52 15.167 -94.167 45.5 -126.5s68.5 -48.5 114.5 -48.5c48 0 88.333 16.667 121 50s49 75 49 125v300h35v-500h-25l-10 85h-5c-10 -18 -23 -34 -39 -48c-35.333 -31.333 -77.333 -47 -126 -47c-58 0 -105 18.833 -141 56.5
s-54 88.834 -54 153.501z" />
    <glyph glyph-name="v" unicode="v" horiz-adv-x="470" 
d="M205 0l-190 500h37l175 -465h16l175 465h37l-190 -500h-60z" />
    <glyph glyph-name="w" unicode="w" horiz-adv-x="710" 
d="M160 0l-135 500h35l122 -460h17l125 460h62l125 -460h17l122 460h35l-135 -500h-60l-127 465h-16l-127 -465h-60z" />
    <glyph glyph-name="x" unicode="x" horiz-adv-x="440" 
d="M15 0l169 255l-164 245h40l150 -225h20l150 225h40l-164 -245l169 -255h-40l-155 235h-20l-155 -235h-40z" />
    <glyph glyph-name="y" unicode="y" horiz-adv-x="450" 
d="M60 -200v35h65c15.333 0 26.5 3 33.5 9s13.833 18 20.5 36l34 95l-198 525h36l170 -450h18l160 450h36l-230 -645c-14 -36.667 -40.667 -55 -80 -55h-65z" />
    <glyph glyph-name="z" unicode="z" horiz-adv-x="420" 
d="M35 0v25l300 440h-295v35h340v-25l-300 -440h305v-35h-350z" />
    <glyph glyph-name="braceleft" unicode="{" horiz-adv-x="315" 
d="M145 -110v275c0 46.667 -25 70 -75 70v60c50 0 75 23.333 75 70v275c0 60 30 90 90 90h45v-35h-45c-20 0 -34.167 -4.16699 -42.5 -12.5s-12.5 -22.5 -12.5 -42.5v-275c0 -38 -13.333 -64.333 -40 -79c-10.667 -6 -24 -9.66699 -40 -11v-20c16 -1.33301 29.333 -5 40 -11
c26.667 -14.667 40 -41 40 -79v-275c0 -20 4.16699 -34.167 12.5 -42.5s22.5 -12.5 42.5 -12.5h45v-35h-45c-60 0 -90 30 -90 90z" />
    <glyph glyph-name="bar" unicode="|" horiz-adv-x="275" 
d="M120 -200v930h35v-930h-35z" />
    <glyph glyph-name="braceright" unicode="}" horiz-adv-x="315" 
d="M35 -200v35h45c20 0 34.167 4.16699 42.5 12.5s12.5 22.5 12.5 42.5v275c0 38 13.333 64.333 40 79c10.667 6 24 9.66699 40 11v20c-16 1.33301 -29.333 5 -40 11c-26.667 14.667 -40 41 -40 79v275c0 20 -4.16699 34.167 -12.5 42.5s-22.5 12.5 -42.5 12.5h-45v35h45
c60 0 90 -30 90 -90v-275c0 -46.667 25 -70 75 -70v-60c-50 0 -75 -23.333 -75 -70v-275c0 -60 -30 -90 -90 -90h-45z" />
    <glyph glyph-name="asciitilde" unicode="~" horiz-adv-x="555" 
d="M90 205h-35c0 46.667 10.833 82.5 32.5 107.5s50.834 37.5 87.501 37.5c21.333 0 41.666 -6 60.999 -18s35.166 -25.167 47.499 -39.5s27 -27.5 44 -39.5s34.5 -18 52.5 -18c26.667 0 47.5 9.16699 62.5 27.5s22.5 45.833 22.5 82.5h35
c0 -46.667 -10.833 -82.5 -32.5 -107.5s-50.834 -37.5 -87.501 -37.5c-21.333 0 -41.666 6 -60.999 18s-35.166 25.167 -47.499 39.5s-27 27.5 -44 39.5s-34.5 18 -52.5 18c-26.667 0 -47.5 -9.16699 -62.5 -27.5s-22.5 -45.833 -22.5 -82.5z" />
    <glyph glyph-name="nbspace" unicode="&#xa0;" horiz-adv-x="215" 
 />
    <glyph glyph-name="exclamdown" unicode="&#xa1;" horiz-adv-x="245" 
d="M105 -200v320l5 235h25l5 -235v-320h-35zM100 455v45h45v-45h-45z" />
    <glyph glyph-name="cent" unicode="&#xa2;" horiz-adv-x="530" 
d="M255 -110l0.00292969 101c-59.333 4 -108.333 29.5 -147 76.5s-58 107.833 -58 182.5c0 74 19.167 134.333 57.5 181s87.5 72.667 147.5 78v101h35v-101c30.667 -2 58.5 -9.5 83.5 -22.5s44.833 -28.833 59.5 -47.5s26.167 -36.334 34.5 -53.001s14.166 -32 17.499 -46
h-35c-10.667 34 -30.334 65 -59.001 93s-67.334 42 -116.001 42c-54 0 -99.167 -20.5 -135.5 -61.5s-54.5 -95.5 -54.5 -163.5s18.167 -122.5 54.5 -163.5s81.5 -61.5 135.5 -61.5c49.333 0 88.166 14.333 116.499 43s47.833 61 58.5 97h35
c-3.33301 -15.333 -9.16602 -31.666 -17.499 -48.999s-19.833 -35.5 -34.5 -54.5s-34.5 -35 -59.5 -48s-52.833 -20.5 -83.5 -22.5v-101h-35z" />
    <glyph glyph-name="sterling" unicode="&#xa3;" horiz-adv-x="590" 
d="M50 0l-0.000976562 35.001h25c36.667 0 55 20 55 60v225h-80v35h80v150c0 60 18.833 109.167 56.5 147.5s85.5 57.5 143.5 57.5c57.333 0 105 -18.833 143 -56.5s57 -83.834 57 -138.501h-35c0 45.333 -15.667 83.333 -47 114s-70.666 46 -117.999 46
c-48 0 -87.5 -15.833 -118.5 -47.5s-46.5 -72.5 -46.5 -122.5v-150h220v-35h-220v-225c0 -20 -4.33301 -35.667 -13 -47c-3.33301 -6 -7.33301 -10.333 -12 -13h410v-35h-500z" />
    <glyph glyph-name="currency" unicode="&#xa4;" horiz-adv-x="550" 
d="M80 180l55 56c-8.66699 10.667 -15.334 21 -20.001 31c-13.333 24 -20 51.667 -20 83s6.66699 59 20 83c4.66699 10 11.334 20.333 20.001 31l-55 56l25 25l55 -55c12 8 23 14.667 33 20c25.333 13.333 52.666 20 81.999 20s56.666 -6.66699 81.999 -20
c10.667 -5.33301 21.667 -12 33 -20l55 55l25 -25l-55 -56c8.66699 -10.667 15.334 -21 20.001 -31c13.333 -24 20 -51.667 20 -83s-6.66699 -59 -20 -83c-4.66699 -10 -11.334 -20.333 -20.001 -31l55 -56l-25 -25l-55 55c-11.333 -8 -22.333 -14.667 -33 -20
c-25.333 -13.333 -52.666 -20 -81.999 -20s-56.666 6.66699 -81.999 20c-10 5.33301 -21 12 -33 20l-55 -55zM275 200c42.667 0 78.334 14.333 107.001 43s43 64.334 43 107.001s-14.333 78.334 -43 107.001s-64.334 43 -107.001 43s-78.334 -14.333 -107.001 -43
s-43 -64.334 -43 -107.001s14.333 -78.334 43 -107.001s64.334 -43 107.001 -43z" />
    <glyph glyph-name="yen" unicode="&#xa5;" horiz-adv-x="555" 
d="M70 140v35h190v115h-190v35h160l-215 375h40l215 -375h15l215 375h40l-215 -375h160v-35h-190v-115h190v-35h-190v-140h-35v140h-190z" />
    <glyph glyph-name="brokenbar" unicode="&#xa6;" horiz-adv-x="275" 
d="M120 360v370h35v-370h-35zM120 -200v370h35v-370h-35z" />
    <glyph glyph-name="section" unicode="&#xa7;" horiz-adv-x="610" 
d="M85 35l34.999 0.00195312c0 -48.667 17.5 -89.167 52.5 -121.5s80.833 -48.5 137.5 -48.5c56 0 99.167 12.667 129.5 38s45.5 57.666 45.5 96.999c0 34.667 -11 62.5 -33 83.5s-57.667 36.5 -107 46.5l-100 20c-60 11.333 -103.333 29.333 -130 54
s-40 58.334 -40 101.001c0 51.333 23.333 94.666 70 129.999c-33.333 20.667 -50 57.334 -50 110.001c0 47.333 18.333 86.666 55 117.999s86.667 47 150 47c64.667 0 117.5 -19.5 158.5 -58.5s61.5 -87.833 61.5 -146.5h-35c0 48.667 -17.333 89.167 -52 121.5
s-79 48.5 -133 48.5c-52.667 0 -94.167 -12.5 -124.5 -37.5s-45.5 -55.833 -45.5 -92.5c0 -64.667 43.333 -104.667 130 -120l105 -20c60.667 -12 104.167 -30.5 130.5 -55.5s39.5 -58.167 39.5 -99.5c0 -17.333 -2 -33.5 -6 -48.5s-10.667 -28.833 -20 -41.5
s-15.666 -20.834 -18.999 -24.501s-10 -10.5 -20 -20.5c33.333 -28 50 -66.333 50 -115c0 -49.333 -18.667 -90 -56 -122s-88.666 -48 -153.999 -48c-66.667 0 -120.834 19.5 -162.501 58.5s-62.5 87.833 -62.5 146.5zM244.999 185.002l119.999 -24.998
c30 -6.66699 50 -12.334 60 -17.001c8 -3.33301 13 -6 15 -8c11.333 10 19.833 18 25.5 24s12.834 17.667 21.501 35s13 36 13 56c0 30 -10 54.667 -30 74s-55 34.666 -105 45.999l-115 25l-56 14c-6 2 -10.667 4 -14 6c-46.667 -32 -70 -68.667 -70 -110
c0 -32.667 10.5 -58.167 31.5 -76.5s55.5 -32.833 103.5 -43.5z" />
    <glyph glyph-name="dieresis" unicode="&#xa8;" horiz-adv-x="275" 
d="M200 640v45h45v-45h-45zM30 640v45h45v-45h-45z" />
    <glyph glyph-name="copyright" unicode="&#xa9;" horiz-adv-x="840" 
d="M420 -10c-100.667 0 -184.167 33.833 -250.5 101.5s-99.5 153.834 -99.5 258.501s33.167 190.834 99.5 258.501s149.833 101.5 250.5 101.5s184.167 -33.833 250.5 -101.5s99.5 -153.834 99.5 -258.501s-33.167 -190.834 -99.5 -258.501s-149.833 -101.5 -250.5 -101.5z
M420 25c90.667 0 165.834 30.5 225.501 91.5s89.5 138.833 89.5 233.5s-29.833 172.5 -89.5 233.5s-134.834 91.5 -225.501 91.5s-165.834 -30.5 -225.501 -91.5s-89.5 -138.833 -89.5 -233.5s29.833 -172.5 89.5 -233.5s134.834 -91.5 225.501 -91.5zM545 290h34.999
c-7.33301 -30.667 -24 -60 -50 -88s-61 -42 -105 -42c-46 0 -85.833 18.167 -119.5 54.5s-50.5 81.5 -50.5 135.5s16.833 99.167 50.5 135.5s73.5 54.5 119.5 54.5c23.333 0 44.833 -4.5 64.5 -13.5s35.334 -20.5 47.001 -34.5s21 -27.333 28 -40s12.167 -25 15.5 -37h-35
c-6.66699 22 -20.5 42.5 -41.5 61.5s-47.167 28.5 -78.5 28.5c-38.667 0 -70.834 -14.167 -96.501 -42.5s-38.5 -65.833 -38.5 -112.5s12.833 -84.167 38.5 -112.5s57.834 -42.5 96.501 -42.5c31.333 0 57.5 9.83301 78.5 29.5s34.833 41.5 41.5 65.5z" />
    <glyph glyph-name="ordfeminine" unicode="&#xaa;" horiz-adv-x="330" 
d="M260 395l-10 50.001h-5c-25.333 -36.667 -58.666 -55 -99.999 -55c-30 0 -55 8.83301 -75 26.5s-30 40.5 -30 68.5c0 28.667 9.66699 51.667 29 69s46.333 26 81 26h95v15c0 25.333 -7 45 -21 59s-33.667 21 -59 21c-40.667 0 -67.334 -20 -80.001 -60h-35
c5.33301 30 18.333 53.333 39 70s46 25 76 25c35.333 0 63.333 -10.333 84 -31s31 -48.334 31 -83.001v-201h-20zM245 535.001l0.000976562 10h-95c-24.667 0 -43.334 -5.5 -56.001 -16.5s-19 -25.5 -19 -43.5s6.16699 -32.5 18.5 -43.5s29.5 -16.5 51.5 -16.5
c30.667 0 55 9.66699 73 29s27 46.333 27 81z" />
    <glyph glyph-name="guillemotleft" unicode="&#xab;" horiz-adv-x="445" 
d="M345 65l-135 185l135 185h40l-135 -185l135 -185h-40zM195 65l-135 185l135 185h40l-135 -185l135 -185h-40z" />
    <glyph glyph-name="logicalnot" unicode="&#xac;" horiz-adv-x="530" 
d="M80 330v35h360v-200h-35v165h-325z" />
    <glyph glyph-name="uni00AD" unicode="&#xad;" horiz-adv-x="430" 
d="M55 270v35h320v-35h-320z" />
    <glyph glyph-name="registered" unicode="&#xae;" horiz-adv-x="840" 
d="M325 340h120c29.333 0 52.5 7.5 69.5 22.5s25.5 34.167 25.5 57.5c0 26 -8.5 46.667 -25.5 62s-40.167 23 -69.5 23h-120v-165zM420 -10c-100.667 0 -184.167 33.833 -250.5 101.5s-99.5 153.834 -99.5 258.501s33.167 190.834 99.5 258.501s149.833 101.5 250.5 101.5
s184.167 -33.833 250.5 -101.5s99.5 -153.834 99.5 -258.501s-33.167 -190.834 -99.5 -258.501s-149.833 -101.5 -250.5 -101.5zM420 25c90.667 0 165.834 30.5 225.501 91.5s89.5 138.833 89.5 233.5s-29.833 172.5 -89.5 233.5s-134.834 91.5 -225.501 91.5
s-165.834 -30.5 -225.501 -91.5s-89.5 -138.833 -89.5 -233.5s29.833 -172.5 89.5 -233.5s134.834 -91.5 225.501 -91.5zM290 165v375h155c39.333 0 70.833 -11 94.5 -33s35.5 -51 35.5 -87c0 -33.333 -11.833 -60.833 -35.5 -82.5s-55.167 -32.5 -94.5 -32.5l135 -140h-45
l-135 140h-75v-140h-35z" />
    <glyph glyph-name="overscore" unicode="&#xaf;" horiz-adv-x="330" 
d="M30 630v35h270v-35h-270z" />
    <glyph glyph-name="degree" unicode="&#xb0;" horiz-adv-x="380" 
d="M190 675c-26 0 -46.667 -8.5 -62 -25.5s-23 -40.167 -23 -69.5s7.66699 -52.5 23 -69.5s36 -25.5 62 -25.5s46.667 8.5 62 25.5s23 40.167 23 69.5s-7.66699 52.5 -23 69.5s-36 25.5 -62 25.5zM190 710c36 0 65 -11.833 87 -35.5s33 -55.167 33 -94.5
s-11 -70.833 -33 -94.5s-51 -35.5 -87 -35.5s-65 11.833 -87 35.5s-33 55.167 -33 94.5s11 70.833 33 94.5s51 35.5 87 35.5z" />
    <glyph glyph-name="plusminus" unicode="&#xb1;" horiz-adv-x="535" 
d="M65 0v35h405v-35h-405zM250 140v200h-190v35h190v205h35v-205h190v-35h-190v-200h-35z" />
    <glyph glyph-name="uni00B2" unicode="&#xb2;" horiz-adv-x="330" 
d="M60 440v35.001l145 150c23.333 23.333 35 48.333 35 75c0 20 -6.66699 36.667 -20 50s-30 20 -50 20c-22.667 0 -41.667 -7.66699 -57 -23s-23 -34.333 -23 -57h-35c0 32 11.167 59.167 33.5 81.5s49.5 33.5 81.5 33.5c30 0 55 -10 75 -30s30 -45 30 -75
c0 -36.667 -13.333 -68.334 -40 -95.001l-120 -125v-5h165v-35h-220z" />
    <glyph glyph-name="uni00B3" unicode="&#xb3;" horiz-adv-x="325" 
d="M45 540l34.999 0.000976562c0 -20.667 7.16699 -37.5 21.5 -50.5s33.833 -19.5 58.5 -19.5s44.167 6.5 58.5 19.5s21.5 29.833 21.5 50.5c0 46.667 -26.667 70 -80 70h-30v35h35c22 0 39.167 5.5 51.5 16.5s18.5 25.5 18.5 43.5c0 20 -6.16699 35.833 -18.5 47.5
s-29.5 17.5 -51.5 17.5c-24.667 0 -44.167 -6.33301 -58.5 -19s-21.5 -28 -21.5 -46h-35c0 28.667 10.5 52.5 31.5 71.5s48.833 28.5 83.5 28.5c29.333 0 54.166 -9.5 74.499 -28.5s30.5 -41.167 30.5 -66.5c0 -17.333 -3.16699 -31.833 -9.5 -43.5
s-12.666 -19.334 -18.999 -23.001s-15.166 -8.16699 -26.499 -13.5v-5c40 -18 60 -46.333 60 -85c0 -30.667 -10.5 -55.834 -31.5 -75.501s-48.833 -29.5 -83.5 -29.5s-62.5 9.83301 -83.5 29.5s-31.5 44.834 -31.5 75.501z" />
    <glyph glyph-name="acute" unicode="&#xb4;" horiz-adv-x="180" 
d="M30 600l80 115h40l-90 -115h-30z" />
    <glyph glyph-name="uni00B5" unicode="&#xb5;" horiz-adv-x="580" 
d="M90 -200v700h35v-300c0 -52 15.167 -94.167 45.5 -126.5s68.5 -48.5 114.5 -48.5c48 0 88.333 16.667 121 50s49 75 49 125v300h35v-500h-25l-10 85h-5c-10 -18 -23 -34 -39 -48c-35.333 -31.333 -77.333 -47 -126 -47c-46.667 0 -87.667 15 -123 45
c-16 14 -28.333 29 -37 45v-280h-35z" />
    <glyph glyph-name="paragraph" unicode="&#xb6;" horiz-adv-x="490" 
d="M220 -100v470.002c-45.333 0 -83.333 15.667 -114 47s-46 70.666 -46 117.999s15.333 86.666 46 117.999s68.667 47 114 47h170v-800h-35v765h-100v-765h-35z" />
    <glyph glyph-name="middot" unicode="&#xb7;" horiz-adv-x="215" 
d="M85 245v45h45v-45h-45z" />
    <glyph glyph-name="cedilla" unicode="&#xb8;" horiz-adv-x="180" 
d="M30 -190v29.998h35c18.667 0 32.5 3.83301 41.5 11.5s13.5 17.167 13.5 28.5c0 12.667 -5 23.334 -15 32.001s-23.333 13 -40 13h-20v25l20 45h35l-20 -45c20 0 36.667 -6.33301 50 -19s20 -28 20 -46c0 -23.333 -7.33301 -41.666 -22 -54.999s-35.667 -20 -63 -20h-35z
" />
    <glyph glyph-name="uni00B9" unicode="&#xb9;" horiz-adv-x="255" 
d="M140 440v265h-100v35h70c20 0 30 10 30 30v30h35v-360h-35z" />
    <glyph glyph-name="ordmasculine" unicode="&#xba;" horiz-adv-x="360" 
d="M180 390c-38.667 0 -70.834 14.5 -96.501 43.5s-38.5 67.833 -38.5 116.5s12.833 87.5 38.5 116.5s57.834 43.5 96.501 43.5s70.834 -14.5 96.501 -43.5s38.5 -67.833 38.5 -116.5s-12.833 -87.5 -38.5 -116.5s-57.834 -43.5 -96.501 -43.5zM180 675
c-28.667 0 -52.5 -11.167 -71.5 -33.5s-28.5 -52.833 -28.5 -91.5s9.5 -69.167 28.5 -91.5s42.833 -33.5 71.5 -33.5s52.5 11.167 71.5 33.5s28.5 52.833 28.5 91.5s-9.5 69.167 -28.5 91.5s-42.833 33.5 -71.5 33.5z" />
    <glyph glyph-name="guillemotright" unicode="&#xbb;" horiz-adv-x="445" 
d="M210 65l135 185l-135 185h40l135 -185l-135 -185h-40zM60 65l135 185l-135 185h40l135 -185l-135 -185h-40z" />
    <glyph glyph-name="onequarter" unicode="&#xbc;" horiz-adv-x="635" 
d="M70 0l430 700h40l-430 -700h-40zM140 340v265h-100v35h70c20 0 30 10 30 30v30h35v-360h-35zM340 85v30l145 245h60v-240h50v-35h-50v-85h-35v85h-170zM385 120h125v205h-10l-115 -200v-5z" />
    <glyph glyph-name="onehalf" unicode="&#xbd;" horiz-adv-x="665" 
d="M70 0l430 700h40l-430 -700h-40zM140 340v265h-100v35h70c20 0 30 10 30 30v30h35v-360h-35zM395 0v35.001l145 150c23.333 23.333 35 48.333 35 75c0 20 -6.66699 36.667 -20 50s-30 20 -50 20c-22.667 0 -41.667 -7.66699 -57 -23s-23 -34.333 -23 -57h-35
c0 32 11.167 59.167 33.5 81.5s49.5 33.5 81.5 33.5c30 0 55 -10 75 -30s30 -45 30 -75c0 -36.667 -13.333 -68.334 -40 -95.001l-120 -125v-5h165v-35h-220z" />
    <glyph glyph-name="threequarters" unicode="&#xbe;" horiz-adv-x="700" 
d="M134 0l430 700h40l-430 -700h-40zM45 440h34.999c0 -20.667 7.16699 -37.5 21.5 -50.5s33.833 -19.5 58.5 -19.5s44.167 6.5 58.5 19.5s21.5 29.833 21.5 50.5c0 46.667 -26.667 70 -80 70h-30v35h35c22 0 39.167 5.5 51.5 16.5s18.5 25.5 18.5 43.5
c0 20 -6.16699 35.833 -18.5 47.5s-29.5 17.5 -51.5 17.5c-24.667 0 -44.167 -6.33301 -58.5 -19s-21.5 -28 -21.5 -46h-35c0 28.667 10.5 52.5 31.5 71.5s48.833 28.5 83.5 28.5c29.333 0 54.166 -9.5 74.499 -28.5s30.5 -41.167 30.5 -66.5
c0 -17.333 -3.16699 -31.833 -9.5 -43.5s-12.666 -19.334 -18.999 -23.001s-15.166 -8.16699 -26.499 -13.5v-5c11.333 -5.33301 20.5 -10.333 27.5 -15s14.167 -13.167 21.5 -25.5s11 -27.166 11 -44.499c0 -30.667 -10.5 -55.834 -31.5 -75.501s-48.833 -29.5 -83.5 -29.5
s-62.5 9.83301 -83.5 29.5s-31.5 44.834 -31.5 75.501zM404.999 85v30l145 245h60v-240h50v-35h-50v-85h-35v85h-170zM449.999 120h125v205h-10l-115 -200v-5z" />
    <glyph glyph-name="questiondown" unicode="&#xbf;" horiz-adv-x="500" 
d="M425 -15l35 -0.000976562c0 -55.333 -19.333 -101.666 -58 -138.999s-87.667 -56 -147 -56c-56.667 0 -105 19.167 -145 57.5s-60 84.166 -60 137.499c0 46 9.33301 83.167 28 111.5s47.667 52.833 87 73.5c28.667 15.333 49.167 30.833 61.5 46.5
s18.5 36.834 18.5 63.501v60h35v-60c0 -31.333 -6.83301 -56.833 -20.5 -76.5s-35.167 -37.5 -64.5 -53.5c-39.333 -21.333 -67.5 -43.833 -84.5 -67.5s-25.5 -56.167 -25.5 -97.5c0 -43.333 16.5 -80.833 49.5 -112.5s73.167 -47.5 120.5 -47.5c49.333 0 90 15.333 122 46
s48 68.667 48 114zM240 454.999v45h45v-45h-45z" />
    <glyph glyph-name="Agrave" unicode="&#xc0;" horiz-adv-x="620" 
d="M15 0l265 700h60l265 -700h-35l-75 200h-370l-75 -200h-35zM139 235h342l-161 425h-20zM295 785l-90 115h40l80 -115h-30z" />
    <glyph glyph-name="Aacute" unicode="&#xc1;" horiz-adv-x="620" 
d="M15 0l265 700h60l265 -700h-35l-75 200h-370l-75 -200h-35zM139 235h342l-161 425h-20zM295 785l80 115h40l-90 -115h-30z" />
    <glyph glyph-name="Acircumflex" unicode="&#xc2;" horiz-adv-x="620" 
d="M15 0l265 700h60l265 -700h-35l-75 200h-370l-75 -200h-35zM139 235h342l-161 425h-20zM185 785l105 115h40l105 -115h-40l-85 95l-85 -95h-40z" />
    <glyph glyph-name="Atilde" unicode="&#xc3;" horiz-adv-x="620" 
d="M15 0l265 700h60l265 -700h-35l-75 200h-370l-75 -200h-35zM139 235h342l-161 425h-20zM205 800h-35c0 27.333 7.5 49.166 22.5 65.499s34.167 24.5 57.5 24.5c20 0 42.833 -9.16699 68.5 -27.5s44.5 -27.5 56.5 -27.5c12.667 0 23.334 5 32.001 15s13 23.333 13 40h35
c0 -27.333 -7.5 -49.166 -22.5 -65.499s-34.167 -24.5 -57.5 -24.5c-20 0 -42.833 9.16699 -68.5 27.5s-44.5 27.5 -56.5 27.5c-12.667 0 -23.334 -5 -32.001 -15s-13 -23.333 -13 -40z" />
    <glyph glyph-name="Adieresis" unicode="&#xc4;" horiz-adv-x="620" 
d="M15 0l265 700h60l265 -700h-35l-75 200h-370l-75 -200h-35zM139 235h342l-161 425h-20zM375 835v45h45v-45h-45zM205 835v45h45v-45h-45z" />
    <glyph glyph-name="Aring" unicode="&#xc5;" horiz-adv-x="620" 
d="M15 0l265 700h60l265 -700h-35l-75 200h-370l-75 -200h-35zM139 235h342l-161 425h-20zM390 860c0 -22.667 -7.66699 -41.667 -23 -57s-34.333 -23 -57 -23s-41.667 7.66699 -57 23s-23 34.333 -23 57s7.66699 41.667 23 57s34.333 23 57 23s41.667 -7.66699 57 -23
s23 -34.333 23 -57zM260 860c0 -15.333 4.5 -27.5 13.5 -36.5s21.167 -13.5 36.5 -13.5s27.5 4.5 36.5 13.5s13.5 21.167 13.5 36.5s-4.5 27.5 -13.5 36.5s-21.167 13.5 -36.5 13.5s-27.5 -4.5 -36.5 -13.5s-13.5 -21.167 -13.5 -36.5z" />
    <glyph glyph-name="AE" unicode="&#xc6;" horiz-adv-x="910" 
d="M-15 0l305 700h550v-35h-395v-295h375v-35h-375v-300h395v-35h-430v210h-299l-91 -210h-35zM126 245h284v420h-100z" />
    <glyph glyph-name="Ccedilla" unicode="&#xc7;" horiz-adv-x="735" 
d="M320 -190v29.999h35c18.667 0 32.5 3.83301 41.5 11.5s13.5 17.167 13.5 28.5c0 12.667 -5 23.334 -15 32.001s-23.333 13 -40 13h-20v25l18 41c-83.333 6.66699 -153 43.167 -209 109.5s-84 149.5 -84 249.5c0 105.333 31 191.666 93 258.999s137.667 101 227 101
c44.667 0 85.667 -8 123 -24s67.666 -36.833 90.999 -62.5s42 -51 56 -76s24 -49.167 30 -72.5h-35c-14 50 -44.667 95.833 -92 137.5s-105 62.5 -173 62.5c-80 0 -147.5 -30.333 -202.5 -91s-82.5 -138.667 -82.5 -234s27.5 -173.333 82.5 -234s122.5 -91 202.5 -91
c68.667 0 126.5 21.167 173.5 63.5s77.5 89.5 91.5 141.5h40c-5.33301 -19.333 -12.666 -38.833 -21.999 -58.5s-22.5 -40.5 -39.5 -62.5s-36.167 -41.333 -57.5 -58s-47.5 -30.667 -78.5 -42s-64.167 -17.333 -99.5 -18l-18 -41c20 0 36.667 -6.33301 50 -19s20 -28 20 -46
c0 -23.333 -7.33301 -41.666 -22 -54.999s-35.667 -20 -63 -20h-35z" />
    <glyph glyph-name="Egrave" unicode="&#xc8;" horiz-adv-x="600" 
d="M100 0v700h430v-35h-395v-295h375v-35h-375v-300h395v-35h-430zM310 785l-90 115h40l80 -115h-30z" />
    <glyph glyph-name="Eacute" unicode="&#xc9;" horiz-adv-x="600" 
d="M100 0v700h430v-35h-395v-295h375v-35h-375v-300h395v-35h-430zM290 785l80 115h40l-90 -115h-30z" />
    <glyph glyph-name="Ecircumflex" unicode="&#xca;" horiz-adv-x="600" 
d="M100 0v700h430v-35h-395v-295h375v-35h-375v-300h395v-35h-430zM195 785l105 115h40l105 -115h-40l-85 95l-85 -95h-40z" />
    <glyph glyph-name="Edieresis" unicode="&#xcb;" horiz-adv-x="600" 
d="M100 0v700h430v-35h-395v-295h375v-35h-375v-300h395v-35h-430zM380 835v45h45v-45h-45zM210 835v45h45v-45h-45z" />
    <glyph glyph-name="Igrave" unicode="&#xcc;" horiz-adv-x="235" 
d="M100 0v700h35v-700h-35zM100 785l-90 115h40l80 -115h-30z" />
    <glyph glyph-name="Iacute" unicode="&#xcd;" horiz-adv-x="235" 
d="M100 0v700h35v-700h-35zM104 785l80 115h40l-90 -115h-30z" />
    <glyph glyph-name="Icircumflex" unicode="&#xce;" horiz-adv-x="235" 
d="M100 0v700h35v-700h-35zM-10 785l105 115h40l105 -115h-40l-85 95l-85 -95h-40z" />
    <glyph glyph-name="Idieresis" unicode="&#xcf;" horiz-adv-x="235" 
d="M100 0v700h35v-700h-35zM180 835v45h45v-45h-45zM10 835v45h45v-45h-45z" />
    <glyph glyph-name="Eth" unicode="&#xd0;" horiz-adv-x="730" 
d="M130 0v335h-105v35h105v330h205c100.667 0 181.667 -31.667 243 -95s92 -148.333 92 -255s-30.667 -191.667 -92 -255s-142.333 -95 -243 -95h-205zM165 35l170 -0.00195312c90.667 0 163.334 28.333 218.001 85s82 133.334 82 230.001s-27.333 173.334 -82 230.001
s-127.334 85 -218.001 85h-170v-295h205v-35h-205v-300z" />
    <glyph glyph-name="Ntilde" unicode="&#xd1;" horiz-adv-x="720" 
d="M100 0v700h75l390 -665h20v665h35v-700h-75l-390 665h-20v-665h-35zM260 800h-35c0 27.333 7.5 49.166 22.5 65.499s34.167 24.5 57.5 24.5c20 0 42.833 -9.16699 68.5 -27.5s44.5 -27.5 56.5 -27.5c12.667 0 23.334 5 32.001 15s13 23.333 13 40h35
c0 -27.333 -7.5 -49.166 -22.5 -65.499s-34.167 -24.5 -57.5 -24.5c-20 0 -42.833 9.16699 -68.5 27.5s-44.5 27.5 -56.5 27.5c-12.667 0 -23.334 -5 -32.001 -15s-13 -23.333 -13 -40z" />
    <glyph glyph-name="Ograve" unicode="&#xd2;" horiz-adv-x="760" 
d="M380 675c-80 0 -147.5 -30.333 -202.5 -91s-82.5 -138.667 -82.5 -234s27.5 -173.333 82.5 -234s122.5 -91 202.5 -91s147.5 30.333 202.5 91s82.5 138.667 82.5 234s-27.5 173.333 -82.5 234s-122.5 91 -202.5 91zM380 710c89.333 0 165 -33.667 227 -101
s93 -153.666 93 -258.999s-31 -191.666 -93 -258.999s-137.667 -101 -227 -101s-165 33.667 -227 101s-93 153.666 -93 258.999s31 191.666 93 258.999s137.667 101 227 101zM370 785l-90 115h40l80 -115h-30z" />
    <glyph glyph-name="Oacute" unicode="&#xd3;" horiz-adv-x="760" 
d="M380 675c-80 0 -147.5 -30.333 -202.5 -91s-82.5 -138.667 -82.5 -234s27.5 -173.333 82.5 -234s122.5 -91 202.5 -91s147.5 30.333 202.5 91s82.5 138.667 82.5 234s-27.5 173.333 -82.5 234s-122.5 91 -202.5 91zM380 710c89.333 0 165 -33.667 227 -101
s93 -153.666 93 -258.999s-31 -191.666 -93 -258.999s-137.667 -101 -227 -101s-165 33.667 -227 101s-93 153.666 -93 258.999s31 191.666 93 258.999s137.667 101 227 101zM365 785l80 115h40l-90 -115h-30z" />
    <glyph glyph-name="Ocircumflex" unicode="&#xd4;" horiz-adv-x="760" 
d="M380 675c-80 0 -147.5 -30.333 -202.5 -91s-82.5 -138.667 -82.5 -234s27.5 -173.333 82.5 -234s122.5 -91 202.5 -91s147.5 30.333 202.5 91s82.5 138.667 82.5 234s-27.5 173.333 -82.5 234s-122.5 91 -202.5 91zM380 710c89.333 0 165 -33.667 227 -101
s93 -153.666 93 -258.999s-31 -191.666 -93 -258.999s-137.667 -101 -227 -101s-165 33.667 -227 101s-93 153.666 -93 258.999s31 191.666 93 258.999s137.667 101 227 101zM255 785l105 115h40l105 -115h-40l-85 95l-85 -95h-40z" />
    <glyph glyph-name="Otilde" unicode="&#xd5;" horiz-adv-x="760" 
d="M380 675c-80 0 -147.5 -30.333 -202.5 -91s-82.5 -138.667 -82.5 -234s27.5 -173.333 82.5 -234s122.5 -91 202.5 -91s147.5 30.333 202.5 91s82.5 138.667 82.5 234s-27.5 173.333 -82.5 234s-122.5 91 -202.5 91zM380 710c89.333 0 165 -33.667 227 -101
s93 -153.666 93 -258.999s-31 -191.666 -93 -258.999s-137.667 -101 -227 -101s-165 33.667 -227 101s-93 153.666 -93 258.999s31 191.666 93 258.999s137.667 101 227 101zM275 800h-35c0 27.333 7.5 49.166 22.5 65.499s34.167 24.5 57.5 24.5
c20 0 42.833 -9.16699 68.5 -27.5s44.5 -27.5 56.5 -27.5c12.667 0 23.334 5 32.001 15s13 23.333 13 40h35c0 -27.333 -7.5 -49.166 -22.5 -65.499s-34.167 -24.5 -57.5 -24.5c-20 0 -42.833 9.16699 -68.5 27.5s-44.5 27.5 -56.5 27.5c-12.667 0 -23.334 -5 -32.001 -15
s-13 -23.333 -13 -40z" />
    <glyph glyph-name="Odieresis" unicode="&#xd6;" horiz-adv-x="760" 
d="M380 675c-80 0 -147.5 -30.333 -202.5 -91s-82.5 -138.667 -82.5 -234s27.5 -173.333 82.5 -234s122.5 -91 202.5 -91s147.5 30.333 202.5 91s82.5 138.667 82.5 234s-27.5 173.333 -82.5 234s-122.5 91 -202.5 91zM380 710c89.333 0 165 -33.667 227 -101
s93 -153.666 93 -258.999s-31 -191.666 -93 -258.999s-137.667 -101 -227 -101s-165 33.667 -227 101s-93 153.666 -93 258.999s31 191.666 93 258.999s137.667 101 227 101zM445 835v45h45v-45h-45zM275 835v45h45v-45h-45z" />
    <glyph glyph-name="multiply" unicode="&#xd7;" horiz-adv-x="530" 
d="M90 145l150 150l-150 150l25 25l150 -150l150 150l25 -25l-150 -150l150 -150l-25 -25l-150 150l-150 -150z" />
    <glyph glyph-name="Oslash" unicode="&#xd8;" horiz-adv-x="760" 
d="M155 -35l45 85c-25.333 17.333 -48.666 40.333 -69.999 69c-46.667 64 -70 141 -70 231c0 105.333 31 191.666 93 258.999s137.667 101 227 101c40 0 76.333 -6.66699 109 -20c14 -6 27.667 -12.667 41 -20l35 65h40l-45 -85c25.333 -17.333 48.666 -40.333 69.999 -69
c46.667 -64 70 -141 70 -231c0 -105.333 -31 -191.666 -93 -258.999s-137.667 -101 -227 -101c-40 0 -76.333 6.66699 -109 20c-14 6 -27.667 12.667 -41 20l-35 -65h-40zM543 620l-298 -560c12 -6.66699 25 -12.667 39 -18c30 -11.333 62 -17 96 -17
c80 0 147.5 30.333 202.5 91s82.5 138.667 82.5 234c0 79.333 -20.333 148 -61 206c-18 26 -38.333 47.333 -61 64zM215 80l300 559.999c-12 6.66699 -24.667 12.334 -38 17.001c-32 12 -64.333 18 -97 18c-80 0 -147.5 -30.333 -202.5 -91s-82.5 -138.667 -82.5 -234
c0 -80.667 20 -149.334 60 -206.001c16.667 -25.333 36.667 -46.666 60 -63.999z" />
    <glyph glyph-name="Ugrave" unicode="&#xd9;" horiz-adv-x="700" 
d="M90 275l0.00195312 425h35v-425c0 -73.333 21.667 -133.333 65 -180s96.666 -70 159.999 -70s116.666 23.333 159.999 70s65 106.667 65 180v425h35v-425c0 -84 -24.833 -152.5 -74.5 -205.5s-111.5 -79.5 -185.5 -79.5s-135.833 26.5 -185.5 79.5
s-74.5 121.5 -74.5 205.5zM345.002 785l-90 115h40l80 -115h-30z" />
    <glyph glyph-name="Uacute" unicode="&#xda;" horiz-adv-x="700" 
d="M90 275l0.00195312 425h35v-425c0 -73.333 21.667 -133.333 65 -180s96.666 -70 159.999 -70s116.666 23.333 159.999 70s65 106.667 65 180v425h35v-425c0 -84 -24.833 -152.5 -74.5 -205.5s-111.5 -79.5 -185.5 -79.5s-135.833 26.5 -185.5 79.5
s-74.5 121.5 -74.5 205.5zM330.002 785l80 115h40l-90 -115h-30z" />
    <glyph glyph-name="Ucircumflex" unicode="&#xdb;" horiz-adv-x="700" 
d="M90 275l0.00195312 425h35v-425c0 -73.333 21.667 -133.333 65 -180s96.666 -70 159.999 -70s116.666 23.333 159.999 70s65 106.667 65 180v425h35v-425c0 -84 -24.833 -152.5 -74.5 -205.5s-111.5 -79.5 -185.5 -79.5s-135.833 26.5 -185.5 79.5
s-74.5 121.5 -74.5 205.5zM225.002 785l105 115h40l105 -115h-40l-85 95l-85 -95h-40z" />
    <glyph glyph-name="Udieresis" unicode="&#xdc;" horiz-adv-x="700" 
d="M90 275l0.00195312 425h35v-425c0 -73.333 21.667 -133.333 65 -180s96.666 -70 159.999 -70s116.666 23.333 159.999 70s65 106.667 65 180v425h35v-425c0 -84 -24.833 -152.5 -74.5 -205.5s-111.5 -79.5 -185.5 -79.5s-135.833 26.5 -185.5 79.5
s-74.5 121.5 -74.5 205.5zM415.002 835v45h45v-45h-45zM245.002 835v45h45v-45h-45z" />
    <glyph glyph-name="Yacute" unicode="&#xdd;" horiz-adv-x="585" 
d="M275 0v260l-260 440h40l225 -385h25l225 385h40l-260 -440v-260h-35zM275 785l80 115h40l-90 -115h-30z" />
    <glyph glyph-name="Thorn" unicode="&#xde;" horiz-adv-x="685" 
d="M100 0v700.002h35v-170h305c56.667 0 102.5 -16.833 137.5 -50.5s52.5 -76.834 52.5 -129.501s-17.5 -95.834 -52.5 -129.501s-80.833 -50.5 -137.5 -50.5h-305v-170h-35zM135 205.002h305c50 0 88.333 12.667 115 38s40 61 40 107s-13.333 81.667 -40 107
s-65 38 -115 38h-305v-290z" />
    <glyph glyph-name="germandbls" unicode="&#xdf;" horiz-adv-x="545" 
d="M85 0l-0.00292969 515.003c0 57.333 17.833 104.166 53.5 140.499s81.167 54.5 136.5 54.5c56.667 0 103.334 -17.667 140.001 -53s55 -79.333 55 -132c0 -50 -18.333 -92 -55 -126c-17.333 -15.333 -35.666 -27.333 -54.999 -36v-5c90 -27.333 135 -83.333 135 -168
c0 -56 -19.333 -101.667 -58 -137s-91 -53 -157 -53h-32v35h32c56.667 0 100.834 14.167 132.501 42.5s47.5 65.833 47.5 112.5c0 44 -16 80 -48 108s-76 42 -132 42h-35v35h30c47.333 0 85.833 14.167 115.5 42.5s44.5 64.166 44.5 107.499s-14.833 79.166 -44.5 107.499
s-68.167 42.5 -115.5 42.5c-46 0 -83.333 -14.667 -112 -44s-43 -68 -43 -116v-515h-35z" />
    <glyph glyph-name="agrave" unicode="&#xe0;" horiz-adv-x="525" 
d="M440 0l-24.998 -0.00195312c-1.33301 10.667 -2.33301 27.334 -3 50.001s-1.33398 39.334 -2.00098 50.001h-5c-38.667 -73.333 -100.334 -110 -185.001 -110c-49.333 0 -88.333 13.333 -117 40s-43 61.667 -43 105c0 46.667 16.167 84.167 48.5 112.5
s77.833 42.5 136.5 42.5h160v35c0 48 -12.667 85 -38 111s-61 39 -107 39c-42.667 0 -77 -10.5 -103 -31.5s-41.667 -50.5 -47 -88.5h-35c6 47.333 24.833 85 56.5 113s74.5 42 128.5 42c56 0 100 -16.333 132 -49s48 -78 48 -136v-325zM405.002 224.998l0.000976562 30.001
h-160c-48.667 0 -85.834 -10.833 -111.501 -32.5s-38.5 -50.834 -38.5 -87.501c0 -33.333 11 -60 33 -80s52.667 -30 92 -30c55.333 0 100 18 134 54s51 84.667 51 146zM245.003 589.999l-90 115h40l80 -115h-30z" />
    <glyph glyph-name="aacute" unicode="&#xe1;" horiz-adv-x="525" 
d="M440 0l-24.998 -0.00195312c-1.33301 10.667 -2.33301 27.334 -3 50.001s-1.33398 39.334 -2.00098 50.001h-5c-38.667 -73.333 -100.334 -110 -185.001 -110c-49.333 0 -88.333 13.333 -117 40s-43 61.667 -43 105c0 46.667 16.167 84.167 48.5 112.5
s77.833 42.5 136.5 42.5h160v35c0 48 -12.667 85 -38 111s-61 39 -107 39c-42.667 0 -77 -10.5 -103 -31.5s-41.667 -50.5 -47 -88.5h-35c6 47.333 24.833 85 56.5 113s74.5 42 128.5 42c56 0 100 -16.333 132 -49s48 -78 48 -136v-325zM405.002 224.998l0.000976562 30.001
h-160c-48.667 0 -85.834 -10.833 -111.501 -32.5s-38.5 -50.834 -38.5 -87.501c0 -33.333 11 -60 33 -80s52.667 -30 92 -30c55.333 0 100 18 134 54s51 84.667 51 146zM250.003 589.999l80 115h40l-90 -115h-30z" />
    <glyph glyph-name="acircumflex" unicode="&#xe2;" horiz-adv-x="525" 
d="M440 0l-24.998 -0.00195312c-1.33301 10.667 -2.33301 27.334 -3 50.001s-1.33398 39.334 -2.00098 50.001h-5c-38.667 -73.333 -100.334 -110 -185.001 -110c-49.333 0 -88.333 13.333 -117 40s-43 61.667 -43 105c0 46.667 16.167 84.167 48.5 112.5
s77.833 42.5 136.5 42.5h160v35c0 48 -12.667 85 -38 111s-61 39 -107 39c-42.667 0 -77 -10.5 -103 -31.5s-41.667 -50.5 -47 -88.5h-35c6 47.333 24.833 85 56.5 113s74.5 42 128.5 42c56 0 100 -16.333 132 -49s48 -78 48 -136v-325zM405.002 224.998l0.000976562 30.001
h-160c-48.667 0 -85.834 -10.833 -111.501 -32.5s-38.5 -50.834 -38.5 -87.501c0 -33.333 11 -60 33 -80s52.667 -30 92 -30c55.333 0 100 18 134 54s51 84.667 51 146zM135.003 589.999l105 115h40l105 -115h-40l-85 95l-85 -95h-40z" />
    <glyph glyph-name="atilde" unicode="&#xe3;" horiz-adv-x="525" 
d="M440 0l-24.998 -0.00195312c-1.33301 10.667 -2.33301 27.334 -3 50.001s-1.33398 39.334 -2.00098 50.001h-5c-38.667 -73.333 -100.334 -110 -185.001 -110c-49.333 0 -88.333 13.333 -117 40s-43 61.667 -43 105c0 46.667 16.167 84.167 48.5 112.5
s77.833 42.5 136.5 42.5h160v35c0 48 -12.667 85 -38 111s-61 39 -107 39c-42.667 0 -77 -10.5 -103 -31.5s-41.667 -50.5 -47 -88.5h-35c6 47.333 24.833 85 56.5 113s74.5 42 128.5 42c56 0 100 -16.333 132 -49s48 -78 48 -136v-325zM405.002 224.998l0.000976562 30.001
h-160c-48.667 0 -85.834 -10.833 -111.501 -32.5s-38.5 -50.834 -38.5 -87.501c0 -33.333 11 -60 33 -80s52.667 -30 92 -30c55.333 0 100 18 134 54s51 84.667 51 146zM160.003 604.999h-35c0 27.333 7.5 49.166 22.5 65.499s34.167 24.5 57.5 24.5
c20 0 42.833 -9.16699 68.5 -27.5s44.5 -27.5 56.5 -27.5c12.667 0 23.334 5 32.001 15s13 23.333 13 40h35c0 -27.333 -7.5 -49.166 -22.5 -65.499s-34.167 -24.5 -57.5 -24.5c-20 0 -42.833 9.16699 -68.5 27.5s-44.5 27.5 -56.5 27.5c-12.667 0 -23.334 -5 -32.001 -15
s-13 -23.333 -13 -40z" />
    <glyph glyph-name="adieresis" unicode="&#xe4;" horiz-adv-x="525" 
d="M440 0l-24.998 -0.00195312c-1.33301 10.667 -2.33301 27.334 -3 50.001s-1.33398 39.334 -2.00098 50.001h-5c-38.667 -73.333 -100.334 -110 -185.001 -110c-49.333 0 -88.333 13.333 -117 40s-43 61.667 -43 105c0 46.667 16.167 84.167 48.5 112.5
s77.833 42.5 136.5 42.5h160v35c0 48 -12.667 85 -38 111s-61 39 -107 39c-42.667 0 -77 -10.5 -103 -31.5s-41.667 -50.5 -47 -88.5h-35c6 47.333 24.833 85 56.5 113s74.5 42 128.5 42c56 0 100 -16.333 132 -49s48 -78 48 -136v-325zM405.002 224.998l0.000976562 30.001
h-160c-48.667 0 -85.834 -10.833 -111.501 -32.5s-38.5 -50.834 -38.5 -87.501c0 -33.333 11 -60 33 -80s52.667 -30 92 -30c55.333 0 100 18 134 54s51 84.667 51 146zM325.003 639.999v45h45v-45h-45zM155.003 639.999v45h45v-45h-45z" />
    <glyph glyph-name="aring" unicode="&#xe5;" horiz-adv-x="525" 
d="M440 0l-24.998 -0.00195312c-1.33301 10.667 -2.33301 27.334 -3 50.001s-1.33398 39.334 -2.00098 50.001h-5c-38.667 -73.333 -100.334 -110 -185.001 -110c-49.333 0 -88.333 13.333 -117 40s-43 61.667 -43 105c0 46.667 16.167 84.167 48.5 112.5
s77.833 42.5 136.5 42.5h160v35c0 48 -12.667 85 -38 111s-61 39 -107 39c-42.667 0 -77 -10.5 -103 -31.5s-41.667 -50.5 -47 -88.5h-35c6 47.333 24.833 85 56.5 113s74.5 42 128.5 42c56 0 100 -16.333 132 -49s48 -78 48 -136v-325zM405.002 224.998l0.000976562 30.001
h-160c-48.667 0 -85.834 -10.833 -111.501 -32.5s-38.5 -50.834 -38.5 -87.501c0 -33.333 11 -60 33 -80s52.667 -30 92 -30c55.333 0 100 18 134 54s51 84.667 51 146zM345.003 659.999c0 -22.667 -7.66699 -41.667 -23 -57s-34.333 -23 -57 -23s-41.667 7.66699 -57 23
s-23 34.333 -23 57s7.66699 41.667 23 57s34.333 23 57 23s41.667 -7.66699 57 -23s23 -34.333 23 -57zM215.003 659.999c0 -15.333 4.5 -27.5 13.5 -36.5s21.167 -13.5 36.5 -13.5s27.5 4.5 36.5 13.5s13.5 21.167 13.5 36.5s-4.5 27.5 -13.5 36.5s-21.167 13.5 -36.5 13.5
s-27.5 -4.5 -36.5 -13.5s-13.5 -21.167 -13.5 -36.5z" />
    <glyph glyph-name="ae" unicode="&#xe6;" horiz-adv-x="895" 
d="M440 275h370c-2.66699 59.333 -21.5 107.5 -56.5 144.5s-77.833 55.5 -128.5 55.5s-93.5 -18.5 -128.5 -55.5s-53.833 -85.167 -56.5 -144.5zM105 355l-35.002 0.000976562c4 45.333 22.667 82.5 56 111.5s78 43.5 134 43.5c50 0 89.167 -13.5 117.5 -40.5
s47.5 -58.5 57.5 -94.5c10.667 34.667 33 65.834 67 93.501s75 41.5 123 41.5c61.333 0 113.333 -23 156 -69s64 -104.667 64 -176v-25h-405c3.33301 -67.333 21.833 -120 55.5 -158s76.834 -57 129.501 -57c36 0 70 9.33301 102 28s54.667 47.667 68 87h35
c-15.333 -48.667 -41 -85.834 -77 -111.501s-78.667 -38.5 -128 -38.5c-54.667 0 -100 17.667 -136 53s-57.333 72.666 -64 111.999c-6.66699 -40 -27.667 -77.5 -63 -112.5s-82.666 -52.5 -141.999 -52.5c-49.333 0 -88.333 13.167 -117 39.5s-43 59.833 -43 100.5
c0 44 15.667 79.167 47 105.5s77.333 39.5 138 39.5h160v50c0 48 -12.667 85 -38 111s-61 39 -107 39c-47.333 0 -83.5 -11 -108.5 -33s-40.5 -51 -46.5 -87zM404.998 230.001l0.000976562 10.001h-160c-50.667 0 -88.334 -9.83301 -113.001 -29.5s-37 -46.5 -37 -80.5
c0 -30.667 11.167 -55.834 33.5 -75.501s52.833 -29.5 91.5 -29.5c56.667 0 101.667 19.333 135 58s50 87.667 50 147z" />
    <glyph glyph-name="ccedilla" unicode="&#xe7;" horiz-adv-x="530" 
d="M220 -190l0.00195312 29.9971h35c18.667 0 32.5 3.83301 41.5 11.5s13.5 17.167 13.5 28.5c0 12.667 -5 23.334 -15 32.001s-23.333 13 -40 13h-20v25l18 41c-59.333 5.33301 -108 31.333 -146 78s-57 107 -57 181c0 78 21.5 140.833 64.5 188.5s96.5 71.5 160.5 71.5
c32.667 0 62.5 -6.33301 89.5 -19s48.5 -28.5 64.5 -47.5s28.5 -37.167 37.5 -54.5s15.167 -33.666 18.5 -48.999h-35c-10.667 34 -30.334 65 -59.001 93s-67.334 42 -116.001 42c-54 0 -99.167 -20.5 -135.5 -61.5s-54.5 -95.5 -54.5 -163.5s18.167 -122.5 54.5 -163.5
s81.5 -61.5 135.5 -61.5c49.333 0 88.166 14.333 116.499 43s47.833 61 58.5 97h35c-3.33301 -16 -9.16602 -32.667 -17.499 -50s-20 -35.5 -35 -54.5s-35.167 -35 -60.5 -48s-53.333 -20.5 -84 -22.5l-18 -40c20 0 36.667 -6.33301 50 -19s20 -28 20 -46
c0 -23.333 -7.33301 -41.666 -22 -54.999s-35.667 -20 -63 -20h-35z" />
    <glyph glyph-name="egrave" unicode="&#xe8;" horiz-adv-x="550" 
d="M445 140l35 0.00292969c-3.33301 -12.667 -9.16602 -26.334 -17.499 -41.001s-20.166 -30.834 -35.499 -48.501s-36.333 -32.167 -63 -43.5s-56.334 -17 -89.001 -17c-64 0 -117.5 23.833 -160.5 71.5s-64.5 110.5 -64.5 188.5c0 78.667 21.667 141.667 65 189
s98.333 71 165 71c61.333 0 113.333 -23.333 156 -70s64 -106.667 64 -180v-25h-415c5.33301 -64.667 25.666 -115.834 60.999 -153.501s78.333 -56.5 129 -56.5c48 0 86.333 12.667 115 38s47 51 55 77zM85 270.003h380c-2.66699 61.333 -21.5 110.833 -56.5 148.5
s-77.833 56.5 -128.5 56.5c-53.333 0 -98.5 -18.833 -135.5 -56.5s-56.833 -87.167 -59.5 -148.5zM265 590.003l-90 115h40l80 -115h-30z" />
    <glyph glyph-name="eacute" unicode="&#xe9;" horiz-adv-x="550" 
d="M445 140l35 0.00292969c-3.33301 -12.667 -9.16602 -26.334 -17.499 -41.001s-20.166 -30.834 -35.499 -48.501s-36.333 -32.167 -63 -43.5s-56.334 -17 -89.001 -17c-64 0 -117.5 23.833 -160.5 71.5s-64.5 110.5 -64.5 188.5c0 78.667 21.667 141.667 65 189
s98.333 71 165 71c61.333 0 113.333 -23.333 156 -70s64 -106.667 64 -180v-25h-415c5.33301 -64.667 25.666 -115.834 60.999 -153.501s78.333 -56.5 129 -56.5c48 0 86.333 12.667 115 38s47 51 55 77zM85 270.003h380c-2.66699 61.333 -21.5 110.833 -56.5 148.5
s-77.833 56.5 -128.5 56.5c-53.333 0 -98.5 -18.833 -135.5 -56.5s-56.833 -87.167 -59.5 -148.5zM265 590.003l80 115h40l-90 -115h-30z" />
    <glyph glyph-name="ecircumflex" unicode="&#xea;" horiz-adv-x="550" 
d="M445 140l35 0.00292969c-3.33301 -12.667 -9.16602 -26.334 -17.499 -41.001s-20.166 -30.834 -35.499 -48.501s-36.333 -32.167 -63 -43.5s-56.334 -17 -89.001 -17c-64 0 -117.5 23.833 -160.5 71.5s-64.5 110.5 -64.5 188.5c0 78.667 21.667 141.667 65 189
s98.333 71 165 71c61.333 0 113.333 -23.333 156 -70s64 -106.667 64 -180v-25h-415c5.33301 -64.667 25.666 -115.834 60.999 -153.501s78.333 -56.5 129 -56.5c48 0 86.333 12.667 115 38s47 51 55 77zM85 270.003h380c-2.66699 61.333 -21.5 110.833 -56.5 148.5
s-77.833 56.5 -128.5 56.5c-53.333 0 -98.5 -18.833 -135.5 -56.5s-56.833 -87.167 -59.5 -148.5zM155 590.003l105 115h40l105 -115h-40l-85 95l-85 -95h-40z" />
    <glyph glyph-name="edieresis" unicode="&#xeb;" horiz-adv-x="550" 
d="M445 140l35 0.00292969c-3.33301 -12.667 -9.16602 -26.334 -17.499 -41.001s-20.166 -30.834 -35.499 -48.501s-36.333 -32.167 -63 -43.5s-56.334 -17 -89.001 -17c-64 0 -117.5 23.833 -160.5 71.5s-64.5 110.5 -64.5 188.5c0 78.667 21.667 141.667 65 189
s98.333 71 165 71c61.333 0 113.333 -23.333 156 -70s64 -106.667 64 -180v-25h-415c5.33301 -64.667 25.666 -115.834 60.999 -153.501s78.333 -56.5 129 -56.5c48 0 86.333 12.667 115 38s47 51 55 77zM85 270.003h380c-2.66699 61.333 -21.5 110.833 -56.5 148.5
s-77.833 56.5 -128.5 56.5c-53.333 0 -98.5 -18.833 -135.5 -56.5s-56.833 -87.167 -59.5 -148.5zM340 640.003v45h45v-45h-45zM170 640.003v45h45v-45h-45z" />
    <glyph glyph-name="igrave" unicode="&#xec;" horiz-adv-x="215" 
d="M90 0v500h35v-500h-35zM90 590l-90 115h40l80 -115h-30z" />
    <glyph glyph-name="iacute" unicode="&#xed;" horiz-adv-x="215" 
d="M90 0v500h35v-500h-35zM95 590l80 115h40l-90 -115h-30z" />
    <glyph glyph-name="icircumflex" unicode="&#xee;" horiz-adv-x="215" 
d="M90 0v500h35v-500h-35zM-15 590l105 115h40l105 -115h-40l-85 95l-85 -95h-40z" />
    <glyph glyph-name="idieresis" unicode="&#xef;" horiz-adv-x="215" 
d="M90 0v500h35v-500h-35zM170 640v45h45v-45h-45zM0 640v45h45v-45h-45z" />
    <glyph glyph-name="eth" unicode="&#xf0;" horiz-adv-x="535" 
d="M160 515l-15.001 26.999l122 65c-18 16 -43.333 35.667 -76 59l-36 24l29 17c13.333 -7.33301 26.333 -15.333 39 -24c26 -16.667 51 -36.667 75 -60l117 62l17 -28l-109 -57c14 -13.333 28.5 -29.333 43.5 -48s31.833 -43.5 50.5 -74.5s33.834 -67.833 45.501 -110.5
s17.5 -86.667 17.5 -132c0 -73.333 -20.5 -132.5 -61.5 -177.5s-92.167 -67.5 -153.5 -67.5c-60.667 0 -111.667 22 -153 66s-62 100.333 -62 169s20.667 125 62 169s92.333 66 153 66c45.333 0 84 -12.667 116 -38c12 -9.33301 23.333 -21.666 34 -36.999h5
c-23.333 70.667 -66 137 -128 199zM264.999 24.999c50.667 0 93.334 18.667 128.001 56s52 85.333 52 144s-17.333 106.667 -52 144s-77.334 56 -128.001 56s-93.334 -18.667 -128.001 -56s-52 -85.333 -52 -144s17.333 -106.667 52 -144s77.334 -56 128.001 -56z" />
    <glyph glyph-name="ntilde" unicode="&#xf1;" horiz-adv-x="575" 
d="M90 0v500h25l10 -90h5c8 16.667 20.333 33.334 37 50.001c36 33.333 78.667 50 128 50c58 0 105 -18.833 141 -56.5s54 -88.834 54 -153.501v-300h-35v300c0 52 -15.167 94.167 -45.5 126.5s-68.5 48.5 -114.5 48.5c-48 0 -88.333 -16.667 -121 -50s-49 -75 -49 -125
v-300h-35zM190 605h-35c0 27.333 7.5 49.166 22.5 65.499s34.167 24.5 57.5 24.5c20 0 42.833 -9.16699 68.5 -27.5s44.5 -27.5 56.5 -27.5c12.667 0 23.334 5 32.001 15s13 23.333 13 40h35c0 -27.333 -7.5 -49.166 -22.5 -65.499s-34.167 -24.5 -57.5 -24.5
c-20 0 -42.833 9.16699 -68.5 27.5s-44.5 27.5 -56.5 27.5c-12.667 0 -23.334 -5 -32.001 -15s-13 -23.333 -13 -40z" />
    <glyph glyph-name="ograve" unicode="&#xf2;" horiz-adv-x="550" 
d="M275 475c-54 0 -99.167 -20.5 -135.5 -61.5s-54.5 -95.5 -54.5 -163.5s18.167 -122.5 54.5 -163.5s81.5 -61.5 135.5 -61.5s99.167 20.5 135.5 61.5s54.5 95.5 54.5 163.5s-18.167 122.5 -54.5 163.5s-81.5 61.5 -135.5 61.5zM275 510c64 0 117.5 -23.833 160.5 -71.5
s64.5 -110.5 64.5 -188.5s-21.5 -140.833 -64.5 -188.5s-96.5 -71.5 -160.5 -71.5s-117.5 23.833 -160.5 71.5s-64.5 110.5 -64.5 188.5s21.5 140.833 64.5 188.5s96.5 71.5 160.5 71.5zM265 590l-90 115h40l80 -115h-30z" />
    <glyph glyph-name="oacute" unicode="&#xf3;" horiz-adv-x="550" 
d="M275 475c-54 0 -99.167 -20.5 -135.5 -61.5s-54.5 -95.5 -54.5 -163.5s18.167 -122.5 54.5 -163.5s81.5 -61.5 135.5 -61.5s99.167 20.5 135.5 61.5s54.5 95.5 54.5 163.5s-18.167 122.5 -54.5 163.5s-81.5 61.5 -135.5 61.5zM275 510c64 0 117.5 -23.833 160.5 -71.5
s64.5 -110.5 64.5 -188.5s-21.5 -140.833 -64.5 -188.5s-96.5 -71.5 -160.5 -71.5s-117.5 23.833 -160.5 71.5s-64.5 110.5 -64.5 188.5s21.5 140.833 64.5 188.5s96.5 71.5 160.5 71.5zM260 590l80 115h40l-90 -115h-30z" />
    <glyph glyph-name="ocircumflex" unicode="&#xf4;" horiz-adv-x="550" 
d="M275 475c-54 0 -99.167 -20.5 -135.5 -61.5s-54.5 -95.5 -54.5 -163.5s18.167 -122.5 54.5 -163.5s81.5 -61.5 135.5 -61.5s99.167 20.5 135.5 61.5s54.5 95.5 54.5 163.5s-18.167 122.5 -54.5 163.5s-81.5 61.5 -135.5 61.5zM275 510c64 0 117.5 -23.833 160.5 -71.5
s64.5 -110.5 64.5 -188.5s-21.5 -140.833 -64.5 -188.5s-96.5 -71.5 -160.5 -71.5s-117.5 23.833 -160.5 71.5s-64.5 110.5 -64.5 188.5s21.5 140.833 64.5 188.5s96.5 71.5 160.5 71.5zM150 590l105 115h40l105 -115h-40l-85 95l-85 -95h-40z" />
    <glyph glyph-name="otilde" unicode="&#xf5;" horiz-adv-x="550" 
d="M275 475c-54 0 -99.167 -20.5 -135.5 -61.5s-54.5 -95.5 -54.5 -163.5s18.167 -122.5 54.5 -163.5s81.5 -61.5 135.5 -61.5s99.167 20.5 135.5 61.5s54.5 95.5 54.5 163.5s-18.167 122.5 -54.5 163.5s-81.5 61.5 -135.5 61.5zM275 510c64 0 117.5 -23.833 160.5 -71.5
s64.5 -110.5 64.5 -188.5s-21.5 -140.833 -64.5 -188.5s-96.5 -71.5 -160.5 -71.5s-117.5 23.833 -160.5 71.5s-64.5 110.5 -64.5 188.5s21.5 140.833 64.5 188.5s96.5 71.5 160.5 71.5zM170 605h-35c0 27.333 7.5 49.166 22.5 65.499s34.167 24.5 57.5 24.5
c20 0 42.833 -9.16699 68.5 -27.5s44.5 -27.5 56.5 -27.5c12.667 0 23.334 5 32.001 15s13 23.333 13 40h35c0 -27.333 -7.5 -49.166 -22.5 -65.499s-34.167 -24.5 -57.5 -24.5c-20 0 -42.833 9.16699 -68.5 27.5s-44.5 27.5 -56.5 27.5c-12.667 0 -23.334 -5 -32.001 -15
s-13 -23.333 -13 -40z" />
    <glyph glyph-name="odieresis" unicode="&#xf6;" horiz-adv-x="550" 
d="M275 475c-54 0 -99.167 -20.5 -135.5 -61.5s-54.5 -95.5 -54.5 -163.5s18.167 -122.5 54.5 -163.5s81.5 -61.5 135.5 -61.5s99.167 20.5 135.5 61.5s54.5 95.5 54.5 163.5s-18.167 122.5 -54.5 163.5s-81.5 61.5 -135.5 61.5zM275 510c64 0 117.5 -23.833 160.5 -71.5
s64.5 -110.5 64.5 -188.5s-21.5 -140.833 -64.5 -188.5s-96.5 -71.5 -160.5 -71.5s-117.5 23.833 -160.5 71.5s-64.5 110.5 -64.5 188.5s21.5 140.833 64.5 188.5s96.5 71.5 160.5 71.5zM340 640v45h45v-45h-45zM170 640v45h45v-45h-45z" />
    <glyph glyph-name="divide" unicode="&#xf7;" horiz-adv-x="530" 
d="M75 275v35h380v-35h-380zM240 135c0 16.667 8.33301 25 25 25s25 -8.33301 25 -25s-8.33301 -25 -25 -25s-25 8.33301 -25 25zM240 450c0 16.667 8.33301 25 25 25s25 -8.33301 25 -25s-8.33301 -25 -25 -25s-25 8.33301 -25 25z" />
    <glyph glyph-name="oslash" unicode="&#xf8;" horiz-adv-x="550" 
d="M105 -35l37 70c-61.333 48 -92 119.667 -92 215c0 78 21.5 140.833 64.5 188.5s96.5 71.5 160.5 71.5c37.333 0 71.666 -8.66699 102.999 -26l27 51h40l-37 -71c61.333 -48 92 -119.333 92 -214c0 -78 -21.5 -140.833 -64.5 -188.5s-96.5 -71.5 -160.5 -71.5
c-37.333 0 -71.666 8.66699 -102.999 26l-27 -51h-40zM160 65l204.999 390c-5.33301 2.66699 -14 6 -26 10c-21.333 6.66699 -42.666 10 -63.999 10c-54 0 -99.167 -20.5 -135.5 -61.5s-54.5 -95.5 -54.5 -163.5c0 -54 12.333 -101 37 -141c11.333 -17.333 24 -32 38 -44z
M389.999 435l-204.999 -390c5.33301 -2.66699 14 -6 26 -10c21.333 -6.66699 42.666 -10 63.999 -10c54 0 99.167 20.5 135.5 61.5s54.5 95.5 54.5 163.5c0 52.667 -12.667 99.667 -38 141c-10.667 16 -23 30.667 -37 44z" />
    <glyph glyph-name="ugrave" unicode="&#xf9;" horiz-adv-x="575" 
d="M85 200v299.999h35v-300c0 -52 15.167 -94.167 45.5 -126.5s68.5 -48.5 114.5 -48.5c48 0 88.333 16.667 121 50s49 75 49 125v300h35v-500h-25l-10 85h-5c-10 -18 -23 -34 -39 -48c-35.333 -31.333 -77.333 -47 -126 -47c-58 0 -105 18.833 -141 56.5
s-54 88.834 -54 153.501zM275 589.999l-90 115h40l80 -115h-30z" />
    <glyph glyph-name="uacute" unicode="&#xfa;" horiz-adv-x="575" 
d="M85 200v299.999h35v-300c0 -52 15.167 -94.167 45.5 -126.5s68.5 -48.5 114.5 -48.5c48 0 88.333 16.667 121 50s49 75 49 125v300h35v-500h-25l-10 85h-5c-10 -18 -23 -34 -39 -48c-35.333 -31.333 -77.333 -47 -126 -47c-58 0 -105 18.833 -141 56.5
s-54 88.834 -54 153.501zM265 589.999l80 115h40l-90 -115h-30z" />
    <glyph glyph-name="ucircumflex" unicode="&#xfb;" horiz-adv-x="575" 
d="M85 200v299.999h35v-300c0 -52 15.167 -94.167 45.5 -126.5s68.5 -48.5 114.5 -48.5c48 0 88.333 16.667 121 50s49 75 49 125v300h35v-500h-25l-10 85h-5c-10 -18 -23 -34 -39 -48c-35.333 -31.333 -77.333 -47 -126 -47c-58 0 -105 18.833 -141 56.5
s-54 88.834 -54 153.501zM165 589.999l105 115h40l105 -115h-40l-85 95l-85 -95h-40z" />
    <glyph glyph-name="udieresis" unicode="&#xfc;" horiz-adv-x="575" 
d="M85 200v299.999h35v-300c0 -52 15.167 -94.167 45.5 -126.5s68.5 -48.5 114.5 -48.5c48 0 88.333 16.667 121 50s49 75 49 125v300h35v-500h-25l-10 85h-5c-10 -18 -23 -34 -39 -48c-35.333 -31.333 -77.333 -47 -126 -47c-58 0 -105 18.833 -141 56.5
s-54 88.834 -54 153.501zM350 639.999v45h45v-45h-45zM180 639.999v45h45v-45h-45z" />
    <glyph glyph-name="yacute" unicode="&#xfd;" horiz-adv-x="450" 
d="M60 -200v35h65c15.333 0 26.5 3 33.5 9s13.833 18 20.5 36l34 95l-198 525h36l170 -450h18l160 450h36l-230 -645c-14 -36.667 -40.667 -55 -80 -55h-65zM215 590l80 115h40l-90 -115h-30z" />
    <glyph glyph-name="thorn" unicode="&#xfe;" horiz-adv-x="580" 
d="M90 -200v900h35v-310h5c11.333 22 26 42 44 60c40 40 87 60 141 60c59.333 0 110 -24 152 -72s63 -110.667 63 -188s-21 -140 -63 -188s-92.667 -72 -152 -72c-54 0 -101 20 -141 60c-18 18 -32.667 38 -44 60h-5v-310h-35zM310 25c52 0 95.833 20.5 131.5 61.5
s53.5 95.5 53.5 163.5s-17.833 122.5 -53.5 163.5s-79.5 61.5 -131.5 61.5s-95.833 -20.5 -131.5 -61.5s-53.5 -95.5 -53.5 -163.5s17.833 -122.5 53.5 -163.5s79.5 -61.5 131.5 -61.5z" />
    <glyph glyph-name="ydieresis" unicode="&#xff;" horiz-adv-x="450" 
d="M60 -200v35h65c15.333 0 26.5 3 33.5 9s13.833 18 20.5 36l34 95l-198 525h36l170 -450h18l160 450h36l-230 -645c-14 -36.667 -40.667 -55 -80 -55h-65zM295 640v45h45v-45h-45zM125 640v45h45v-45h-45z" />
    <glyph glyph-name="Amacron" unicode="&#x100;" horiz-adv-x="620" 
d="M15 0l265 700h60l265 -700h-35l-75 200h-370l-75 -200h-35zM139 235h342l-161 425h-20zM175 825v35h270v-35h-270z" />
    <glyph glyph-name="amacron" unicode="&#x101;" horiz-adv-x="525" 
d="M440 0l-24.998 -0.00195312c-1.33301 10.667 -2.33301 27.334 -3 50.001s-1.33398 39.334 -2.00098 50.001h-5c-38.667 -73.333 -100.334 -110 -185.001 -110c-49.333 0 -88.333 13.333 -117 40s-43 61.667 -43 105c0 46.667 16.167 84.167 48.5 112.5
s77.833 42.5 136.5 42.5h160v35c0 48 -12.667 85 -38 111s-61 39 -107 39c-42.667 0 -77 -10.5 -103 -31.5s-41.667 -50.5 -47 -88.5h-35c6 47.333 24.833 85 56.5 113s74.5 42 128.5 42c56 0 100 -16.333 132 -49s48 -78 48 -136v-325zM405.002 224.998l0.000976562 30.001
h-160c-48.667 0 -85.834 -10.833 -111.501 -32.5s-38.5 -50.834 -38.5 -87.501c0 -33.333 11 -60 33 -80s52.667 -30 92 -30c55.333 0 100 18 134 54s51 84.667 51 146zM130.003 629.999v35h270v-35h-270z" />
    <glyph glyph-name="Abreve" unicode="&#x102;" horiz-adv-x="620" 
d="M15 0l265 700h60l265 -700h-35l-75 200h-370l-75 -200h-35zM139 235h342l-161 425h-20zM185 900h35c2.66699 -24 11.667 -43.333 27 -58s36.333 -22 63 -22s47.667 7.33301 63 22s24.333 34 27 58h35c-2.66699 -33.333 -15.5 -60.833 -38.5 -82.5
s-51.833 -32.5 -86.5 -32.5s-63.5 10.833 -86.5 32.5s-35.833 49.167 -38.5 82.5z" />
    <glyph glyph-name="abreve" unicode="&#x103;" horiz-adv-x="525" 
d="M440 0l-24.998 -0.00195312c-1.33301 10.667 -2.33301 27.334 -3 50.001s-1.33398 39.334 -2.00098 50.001h-5c-38.667 -73.333 -100.334 -110 -185.001 -110c-49.333 0 -88.333 13.333 -117 40s-43 61.667 -43 105c0 46.667 16.167 84.167 48.5 112.5
s77.833 42.5 136.5 42.5h160v35c0 48 -12.667 85 -38 111s-61 39 -107 39c-42.667 0 -77 -10.5 -103 -31.5s-41.667 -50.5 -47 -88.5h-35c6 47.333 24.833 85 56.5 113s74.5 42 128.5 42c56 0 100 -16.333 132 -49s48 -78 48 -136v-325zM405.002 224.998l0.000976562 30.001
h-160c-48.667 0 -85.834 -10.833 -111.501 -32.5s-38.5 -50.834 -38.5 -87.501c0 -33.333 11 -60 33 -80s52.667 -30 92 -30c55.333 0 100 18 134 54s51 84.667 51 146zM135.003 704.999h35c2.66699 -24 11.667 -43.333 27 -58s36.333 -22 63 -22s47.667 7.33301 63 22
s24.333 34 27 58h35c-2.66699 -33.333 -15.5 -60.833 -38.5 -82.5s-51.833 -32.5 -86.5 -32.5s-63.5 10.833 -86.5 32.5s-35.833 49.167 -38.5 82.5z" />
    <glyph glyph-name="Aogonek" unicode="&#x104;" horiz-adv-x="620" 
d="M15 0l265.002 700.002h60l265 -700c-20.667 -10.667 -35.834 -21.667 -45.501 -33s-14.5 -25.333 -14.5 -42c0 -14.667 4.16699 -25.834 12.5 -33.501s19.166 -11.5 32.499 -11.5h15v-30h-15c-53.333 0 -80 21.667 -80 65c0 39.333 20 67.666 60 84.999l-75 200h-370
l-75 -200h-35zM139.002 235.002h342l-161 425h-20z" />
    <glyph glyph-name="aogonek" unicode="&#x105;" horiz-adv-x="525" 
d="M405 225l0.000976562 30.001h-160c-48.667 0 -85.834 -10.833 -111.501 -32.5s-38.5 -50.834 -38.5 -87.501c0 -33.333 11 -60 33 -80s52.667 -30 92 -30c55.333 0 100 18 134 54s51 84.667 51 146zM440.001 -149.999l-14.9961 -0.000976562c-53.333 0 -80 21.667 -80 65
c0 19.333 6.5 36.333 19.5 51s29.833 26 50.5 34c-1.33301 10.667 -2.33301 27.334 -3 50.001s-1.33398 39.334 -2.00098 50.001h-5c-38.667 -73.333 -100.334 -110 -185.001 -110c-49.333 0 -88.333 13.333 -117 40s-43 61.667 -43 105c0 46.667 16.167 84.167 48.5 112.5
s77.833 42.5 136.5 42.5h160v35c0 48 -12.667 85 -38 111s-61 39 -107 39c-42.667 0 -77 -10.5 -103 -31.5s-41.667 -50.5 -47 -88.5h-35c6 47.333 24.833 85 56.5 113s74.5 42 128.5 42c56 0 100 -16.333 132 -49s48 -78 48 -136v-325
c-20.667 -10.667 -35.834 -21.667 -45.501 -33s-14.5 -25.333 -14.5 -42c0 -14.667 4.16699 -25.834 12.5 -33.501s19.166 -11.5 32.499 -11.5h15v-30z" />
    <glyph glyph-name="Cacute" unicode="&#x106;" horiz-adv-x="735" 
d="M645 230l40.001 0.000976562c-5.33301 -19.333 -13 -39.166 -23 -59.499s-23.667 -41.5 -41 -63.5s-37 -41.5 -59 -58.5s-48.833 -31 -80.5 -42s-65.5 -16.5 -101.5 -16.5c-89.333 0 -165 33.667 -227 101s-93 153.666 -93 258.999s31 191.666 93 258.999
s137.667 101 227 101c44.667 0 85.667 -8 123 -24s67.666 -36.833 90.999 -62.5s42 -51 56 -76s24 -49.167 30 -72.5h-35c-14 50 -44.667 95.833 -92 137.5s-105 62.5 -173 62.5c-80 0 -147.5 -30.333 -202.5 -91s-82.5 -138.667 -82.5 -234s27.5 -173.333 82.5 -234
s122.5 -91 202.5 -91c68.667 0 126.5 21.167 173.5 63.5s77.5 89.5 91.5 141.5zM360.001 785.001l80 115h40l-90 -115h-30z" />
    <glyph glyph-name="cacute" unicode="&#x107;" horiz-adv-x="530" 
d="M450 165h35.0029c-2.66699 -16 -8.66699 -33 -18 -51s-22 -36.833 -38 -56.5s-37.5 -35.834 -64.5 -48.501s-56.833 -19 -89.5 -19c-64 0 -117.5 23.833 -160.5 71.5s-64.5 110.5 -64.5 188.5s21.5 140.833 64.5 188.5s96.5 71.5 160.5 71.5
c32.667 0 62.5 -6.33301 89.5 -19s48.5 -28.5 64.5 -47.5s28.5 -37.167 37.5 -54.5s15.167 -33.666 18.5 -48.999h-35c-10.667 34 -30.334 65 -59.001 93s-67.334 42 -116.001 42c-54 0 -99.167 -20.5 -135.5 -61.5s-54.5 -95.5 -54.5 -163.5s18.167 -122.5 54.5 -163.5
s81.5 -61.5 135.5 -61.5c49.333 0 88.166 14.333 116.499 43s47.833 61 58.5 97zM260.003 590l80 115h40l-90 -115h-30z" />
    <glyph glyph-name="Ccircumflex" unicode="&#x108;" horiz-adv-x="735" 
d="M645 230l40.001 0.000976562c-5.33301 -19.333 -13 -39.166 -23 -59.499s-23.667 -41.5 -41 -63.5s-37 -41.5 -59 -58.5s-48.833 -31 -80.5 -42s-65.5 -16.5 -101.5 -16.5c-89.333 0 -165 33.667 -227 101s-93 153.666 -93 258.999s31 191.666 93 258.999
s137.667 101 227 101c44.667 0 85.667 -8 123 -24s67.666 -36.833 90.999 -62.5s42 -51 56 -76s24 -49.167 30 -72.5h-35c-14 50 -44.667 95.833 -92 137.5s-105 62.5 -173 62.5c-80 0 -147.5 -30.333 -202.5 -91s-82.5 -138.667 -82.5 -234s27.5 -173.333 82.5 -234
s122.5 -91 202.5 -91c68.667 0 126.5 21.167 173.5 63.5s77.5 89.5 91.5 141.5zM255.001 785.001l105 115h40l105 -115h-40l-85 95l-85 -95h-40z" />
    <glyph glyph-name="ccircumflex" unicode="&#x109;" horiz-adv-x="530" 
d="M450 165h35.0029c-2.66699 -16 -8.66699 -33 -18 -51s-22 -36.833 -38 -56.5s-37.5 -35.834 -64.5 -48.501s-56.833 -19 -89.5 -19c-64 0 -117.5 23.833 -160.5 71.5s-64.5 110.5 -64.5 188.5s21.5 140.833 64.5 188.5s96.5 71.5 160.5 71.5
c32.667 0 62.5 -6.33301 89.5 -19s48.5 -28.5 64.5 -47.5s28.5 -37.167 37.5 -54.5s15.167 -33.666 18.5 -48.999h-35c-10.667 34 -30.334 65 -59.001 93s-67.334 42 -116.001 42c-54 0 -99.167 -20.5 -135.5 -61.5s-54.5 -95.5 -54.5 -163.5s18.167 -122.5 54.5 -163.5
s81.5 -61.5 135.5 -61.5c49.333 0 88.166 14.333 116.499 43s47.833 61 58.5 97zM150.003 590l105 115h40l105 -115h-40l-85 95l-85 -95h-40z" />
    <glyph glyph-name="Cdotaccent" unicode="&#x10a;" horiz-adv-x="735" 
d="M645 230l40.001 0.000976562c-5.33301 -19.333 -13 -39.166 -23 -59.499s-23.667 -41.5 -41 -63.5s-37 -41.5 -59 -58.5s-48.833 -31 -80.5 -42s-65.5 -16.5 -101.5 -16.5c-89.333 0 -165 33.667 -227 101s-93 153.666 -93 258.999s31 191.666 93 258.999
s137.667 101 227 101c44.667 0 85.667 -8 123 -24s67.666 -36.833 90.999 -62.5s42 -51 56 -76s24 -49.167 30 -72.5h-35c-14 50 -44.667 95.833 -92 137.5s-105 62.5 -173 62.5c-80 0 -147.5 -30.333 -202.5 -91s-82.5 -138.667 -82.5 -234s27.5 -173.333 82.5 -234
s122.5 -91 202.5 -91c68.667 0 126.5 21.167 173.5 63.5s77.5 89.5 91.5 141.5zM360.001 835.001v45h45v-45h-45z" />
    <glyph glyph-name="cdotaccent" unicode="&#x10b;" horiz-adv-x="530" 
d="M450 165h35.0029c-2.66699 -16 -8.66699 -33 -18 -51s-22 -36.833 -38 -56.5s-37.5 -35.834 -64.5 -48.501s-56.833 -19 -89.5 -19c-64 0 -117.5 23.833 -160.5 71.5s-64.5 110.5 -64.5 188.5s21.5 140.833 64.5 188.5s96.5 71.5 160.5 71.5
c32.667 0 62.5 -6.33301 89.5 -19s48.5 -28.5 64.5 -47.5s28.5 -37.167 37.5 -54.5s15.167 -33.666 18.5 -48.999h-35c-10.667 34 -30.334 65 -59.001 93s-67.334 42 -116.001 42c-54 0 -99.167 -20.5 -135.5 -61.5s-54.5 -95.5 -54.5 -163.5s18.167 -122.5 54.5 -163.5
s81.5 -61.5 135.5 -61.5c49.333 0 88.166 14.333 116.499 43s47.833 61 58.5 97zM255.003 640v45h45v-45h-45z" />
    <glyph glyph-name="Ccaron" unicode="&#x10c;" horiz-adv-x="735" 
d="M645 230l40.001 0.000976562c-5.33301 -19.333 -13 -39.166 -23 -59.499s-23.667 -41.5 -41 -63.5s-37 -41.5 -59 -58.5s-48.833 -31 -80.5 -42s-65.5 -16.5 -101.5 -16.5c-89.333 0 -165 33.667 -227 101s-93 153.666 -93 258.999s31 191.666 93 258.999
s137.667 101 227 101c44.667 0 85.667 -8 123 -24s67.666 -36.833 90.999 -62.5s42 -51 56 -76s24 -49.167 30 -72.5h-35c-14 50 -44.667 95.833 -92 137.5s-105 62.5 -173 62.5c-80 0 -147.5 -30.333 -202.5 -91s-82.5 -138.667 -82.5 -234s27.5 -173.333 82.5 -234
s122.5 -91 202.5 -91c68.667 0 126.5 21.167 173.5 63.5s77.5 89.5 91.5 141.5zM355.001 785.001l-105 115h40l85 -95l85 95h40l-105 -115h-40z" />
    <glyph glyph-name="ccaron" unicode="&#x10d;" horiz-adv-x="530" 
d="M450 165h35.0029c-2.66699 -16 -8.66699 -33 -18 -51s-22 -36.833 -38 -56.5s-37.5 -35.834 -64.5 -48.501s-56.833 -19 -89.5 -19c-64 0 -117.5 23.833 -160.5 71.5s-64.5 110.5 -64.5 188.5s21.5 140.833 64.5 188.5s96.5 71.5 160.5 71.5
c32.667 0 62.5 -6.33301 89.5 -19s48.5 -28.5 64.5 -47.5s28.5 -37.167 37.5 -54.5s15.167 -33.666 18.5 -48.999h-35c-10.667 34 -30.334 65 -59.001 93s-67.334 42 -116.001 42c-54 0 -99.167 -20.5 -135.5 -61.5s-54.5 -95.5 -54.5 -163.5s18.167 -122.5 54.5 -163.5
s81.5 -61.5 135.5 -61.5c49.333 0 88.166 14.333 116.499 43s47.833 61 58.5 97zM255.003 590l-105 115h40l85 -95l85 95h40l-105 -115h-40z" />
    <glyph glyph-name="Dcaron" unicode="&#x10e;" horiz-adv-x="705" 
d="M100 0v700h210c100.667 0 181.667 -31.667 243 -95s92 -148.333 92 -255s-30.667 -191.667 -92 -255s-142.333 -95 -243 -95h-210zM135 35l175 -0.00195312c90.667 0 163.334 28.333 218.001 85s82 133.334 82 230.001s-27.333 173.334 -82 230.001
s-127.334 85 -218.001 85h-175v-630zM325 784.998l-105 115h40l85 -95l85 95h40l-105 -115h-40z" />
    <glyph glyph-name="dcaron" unicode="&#x10f;" horiz-adv-x="590" 
d="M465 0l-10 110h-5c-11.333 -22 -26 -42 -44 -60c-40 -40 -87 -60 -141 -60c-59.333 0 -110 24 -152 72s-63 110.667 -63 188s21 140 63 188s92.667 72 152 72c54 0 101 -20 141 -60c18 -18 32.667 -38 44 -60h5v310h35v-700h-25zM270 25c52 0 95.833 20.5 131.5 61.5
s53.5 95.5 53.5 163.5s-17.833 122.5 -53.5 163.5s-79.5 61.5 -131.5 61.5s-95.833 -20.5 -131.5 -61.5s-53.5 -95.5 -53.5 -163.5s17.833 -122.5 53.5 -163.5s79.5 -61.5 131.5 -61.5zM550 570l35 130h40l-50 -130h-25z" />
    <glyph glyph-name="Dcroat" unicode="&#x110;" horiz-adv-x="730" 
d="M130 0v335h-105v35h105v330h205c100.667 0 181.667 -31.667 243 -95s92 -148.333 92 -255s-30.667 -191.667 -92 -255s-142.333 -95 -243 -95h-205zM165 35l170 -0.00195312c90.667 0 163.334 28.333 218.001 85s82 133.334 82 230.001s-27.333 173.334 -82 230.001
s-127.334 85 -218.001 85h-170v-295h205v-35h-205v-300z" />
    <glyph glyph-name="dslash" unicode="&#x111;" horiz-adv-x="570" 
d="M455 0l-10 99.999h-5c-10 -20.667 -23 -39 -39 -55c-36.667 -36.667 -82 -55 -136 -55c-60.667 0 -111.667 22 -153 66s-62 100.333 -62 169s20.667 125 62 169s92.333 66 153 66c52.667 0 98 -18.333 136 -55c16.667 -17.333 29.667 -35.666 39 -54.999h5v220h-180v35
h180v95h35v-95h85v-35h-85v-570h-25zM445 224.999c0 58.667 -17.333 106.667 -52 144s-77.334 56 -128.001 56s-93.334 -18.667 -128.001 -56s-52 -85.333 -52 -144s17.333 -106.667 52 -144s77.334 -56 128.001 -56s93.334 18.667 128.001 56s52 85.333 52 144z" />
    <glyph glyph-name="Emacron" unicode="&#x112;" horiz-adv-x="600" 
d="M100 0v700h430v-35h-395v-295h375v-35h-375v-300h395v-35h-430zM180 825v35h270v-35h-270z" />
    <glyph glyph-name="emacron" unicode="&#x113;" horiz-adv-x="550" 
d="M445 140l35 0.00292969c-3.33301 -12.667 -9.16602 -26.334 -17.499 -41.001s-20.166 -30.834 -35.499 -48.501s-36.333 -32.167 -63 -43.5s-56.334 -17 -89.001 -17c-64 0 -117.5 23.833 -160.5 71.5s-64.5 110.5 -64.5 188.5c0 78.667 21.667 141.667 65 189
s98.333 71 165 71c61.333 0 113.333 -23.333 156 -70s64 -106.667 64 -180v-25h-415c5.33301 -64.667 25.666 -115.834 60.999 -153.501s78.333 -56.5 129 -56.5c48 0 86.333 12.667 115 38s47 51 55 77zM85 270.003h380c-2.66699 61.333 -21.5 110.833 -56.5 148.5
s-77.833 56.5 -128.5 56.5c-53.333 0 -98.5 -18.833 -135.5 -56.5s-56.833 -87.167 -59.5 -148.5zM145 630.003v35h270v-35h-270z" />
    <glyph glyph-name="Ebreve" unicode="&#x114;" horiz-adv-x="600" 
d="M100 0v700h430v-35h-395v-295h375v-35h-375v-300h395v-35h-430zM190 900h35c2.66699 -24 11.667 -43.333 27 -58s36.333 -22 63 -22s47.667 7.33301 63 22s24.333 34 27 58h35c-2.66699 -33.333 -15.5 -60.833 -38.5 -82.5s-51.833 -32.5 -86.5 -32.5
s-63.5 10.833 -86.5 32.5s-35.833 49.167 -38.5 82.5z" />
    <glyph glyph-name="ebreve" unicode="&#x115;" horiz-adv-x="550" 
d="M445 140l35 0.00292969c-3.33301 -12.667 -9.16602 -26.334 -17.499 -41.001s-20.166 -30.834 -35.499 -48.501s-36.333 -32.167 -63 -43.5s-56.334 -17 -89.001 -17c-64 0 -117.5 23.833 -160.5 71.5s-64.5 110.5 -64.5 188.5c0 78.667 21.667 141.667 65 189
s98.333 71 165 71c61.333 0 113.333 -23.333 156 -70s64 -106.667 64 -180v-25h-415c5.33301 -64.667 25.666 -115.834 60.999 -153.501s78.333 -56.5 129 -56.5c48 0 86.333 12.667 115 38s47 51 55 77zM85 270.003h380c-2.66699 61.333 -21.5 110.833 -56.5 148.5
s-77.833 56.5 -128.5 56.5c-53.333 0 -98.5 -18.833 -135.5 -56.5s-56.833 -87.167 -59.5 -148.5zM150 705.003h35c2.66699 -24 11.667 -43.333 27 -58s36.333 -22 63 -22s47.667 7.33301 63 22s24.333 34 27 58h35c-2.66699 -33.333 -15.5 -60.833 -38.5 -82.5
s-51.833 -32.5 -86.5 -32.5s-63.5 10.833 -86.5 32.5s-35.833 49.167 -38.5 82.5z" />
    <glyph glyph-name="Edotaccent" unicode="&#x116;" horiz-adv-x="600" 
d="M100 0v700h430v-35h-395v-295h375v-35h-375v-300h395v-35h-430zM295 835v45h45v-45h-45z" />
    <glyph glyph-name="edotaccent" unicode="&#x117;" horiz-adv-x="550" 
d="M445 140l35 0.00292969c-3.33301 -12.667 -9.16602 -26.334 -17.499 -41.001s-20.166 -30.834 -35.499 -48.501s-36.333 -32.167 -63 -43.5s-56.334 -17 -89.001 -17c-64 0 -117.5 23.833 -160.5 71.5s-64.5 110.5 -64.5 188.5c0 78.667 21.667 141.667 65 189
s98.333 71 165 71c61.333 0 113.333 -23.333 156 -70s64 -106.667 64 -180v-25h-415c5.33301 -64.667 25.666 -115.834 60.999 -153.501s78.333 -56.5 129 -56.5c48 0 86.333 12.667 115 38s47 51 55 77zM85 270.003h380c-2.66699 61.333 -21.5 110.833 -56.5 148.5
s-77.833 56.5 -128.5 56.5c-53.333 0 -98.5 -18.833 -135.5 -56.5s-56.833 -87.167 -59.5 -148.5zM250 640.003v45h45v-45h-45z" />
    <glyph glyph-name="Eogonek" unicode="&#x118;" horiz-adv-x="600" 
d="M100 0l0.00195312 700.002h430v-35h-395v-295h375v-35h-375v-300h395v-35c-20.667 -10.667 -35.834 -21.667 -45.501 -33s-14.5 -25.333 -14.5 -42c0 -14.667 4.16699 -25.834 12.5 -33.501s19.166 -11.5 32.499 -11.5h15v-30h-15c-53.333 0 -80 21.667 -80 65
c0 39.333 20 67.666 60 84.999h-395z" />
    <glyph glyph-name="eogonek" unicode="&#x119;" horiz-adv-x="550" 
d="M330 -150l-14.9971 0.00195312c-53.333 0 -80 21.667 -80 65c0 33.333 13.667 58.333 41 75h-1c-64 0 -117.5 23.833 -160.5 71.5s-64.5 110.5 -64.5 188.5c0 78.667 21.667 141.667 65 189s98.333 71 165 71c61.333 0 113.333 -23.333 156 -70s64 -106.667 64 -180v-25
h-415c5.33301 -64.667 25.666 -115.834 60.999 -153.501s78.333 -56.5 129 -56.5c48 0 86.333 12.667 115 38s47 51 55 77h35c-2.66699 -10 -7.5 -21.667 -14.5 -35s-16.667 -27.833 -29 -43.5s-28.833 -29.667 -49.5 -42s-43.334 -20.833 -68.001 -25.5
c-32.667 -18.667 -49 -41.667 -49 -69c0 -14.667 4.16699 -25.834 12.5 -33.501s19.166 -11.5 32.499 -11.5h15v-30zM85.0029 270.002h380c-2.66699 61.333 -21.5 110.833 -56.5 148.5s-77.833 56.5 -128.5 56.5c-53.333 0 -98.5 -18.833 -135.5 -56.5
s-56.833 -87.167 -59.5 -148.5z" />
    <glyph glyph-name="Ecaron" unicode="&#x11a;" horiz-adv-x="600" 
d="M100 0v700h430v-35h-395v-295h375v-35h-375v-300h395v-35h-430zM295 785l-105 115h40l85 -95l85 95h40l-105 -115h-40z" />
    <glyph glyph-name="ecaron" unicode="&#x11b;" horiz-adv-x="550" 
d="M445 140l35 0.00292969c-3.33301 -12.667 -9.16602 -26.334 -17.499 -41.001s-20.166 -30.834 -35.499 -48.501s-36.333 -32.167 -63 -43.5s-56.334 -17 -89.001 -17c-64 0 -117.5 23.833 -160.5 71.5s-64.5 110.5 -64.5 188.5c0 78.667 21.667 141.667 65 189
s98.333 71 165 71c61.333 0 113.333 -23.333 156 -70s64 -106.667 64 -180v-25h-415c5.33301 -64.667 25.666 -115.834 60.999 -153.501s78.333 -56.5 129 -56.5c48 0 86.333 12.667 115 38s47 51 55 77zM85 270.003h380c-2.66699 61.333 -21.5 110.833 -56.5 148.5
s-77.833 56.5 -128.5 56.5c-53.333 0 -98.5 -18.833 -135.5 -56.5s-56.833 -87.167 -59.5 -148.5zM260 590.003l-105 115h40l85 -95l85 95h40l-105 -115h-40z" />
    <glyph glyph-name="Gcircumflex" unicode="&#x11c;" horiz-adv-x="760" 
d="M655 0l-5.00098 150.006h-5c-7.33301 -14.667 -17.666 -30.167 -30.999 -46.5s-30.666 -33.5 -51.999 -51.5s-48 -32.833 -80 -44.5s-66 -17.5 -102 -17.5c-89.333 0 -165 33.667 -227 101s-93 153.666 -93 258.999s31 191.666 93 258.999s137.667 101 227 101
c46 0 87.833 -8.33301 125.5 -25s67.834 -37.834 90.501 -63.501s40.334 -49.334 53.001 -71.001s21.334 -41.834 26.001 -60.501h-35c-6.66699 17.333 -16.334 35.5 -29.001 54.5s-29.334 38.833 -50.001 59.5s-46.834 37.667 -78.501 51s-65.834 20 -102.501 20
c-80 0 -147.5 -30.333 -202.5 -91s-82.5 -138.667 -82.5 -234s27.5 -173.333 82.5 -234s122.5 -91 202.5 -91c72 0 135 25.667 189 77s81 110.666 81 177.999v35h-245v35h280v-350h-30zM254.999 785.006l105 115h40l105 -115h-40l-85 95l-85 -95h-40z" />
    <glyph glyph-name="gcircumflex" unicode="&#x11d;" horiz-adv-x="580" 
d="M75 -40h35.001c2.66699 -37.333 19.167 -69.166 49.5 -95.499s70.5 -39.5 120.5 -39.5c55.333 0 98.333 15.333 129 46s46 73.667 46 129v140h-5c-11.333 -22 -26 -42 -44 -60c-40 -40 -87 -60 -141 -60c-58.667 0 -109.167 23.167 -151.5 69.5
s-63.5 104.833 -63.5 175.5s21.167 129.167 63.5 175.5s92.833 69.5 151.5 69.5c54 0 101 -20 141 -60c18 -18 32.667 -38 44 -60h5l4 41c0.666992 7.33301 1.5 19 2.5 35s2.16699 27.333 3.5 34h25v-500c0 -62.667 -19.333 -113.334 -58 -152.001s-89.334 -58 -152.001 -58
c-60 0 -108.5 16.5 -145.5 49.5s-56.833 73.167 -59.5 120.5zM270.001 55c51.333 0 95 19.667 131 59s54 89.666 54 150.999s-18 111.666 -54 150.999s-79.667 59 -131 59s-95 -19.667 -131 -59s-54 -89.666 -54 -150.999s18 -111.666 54 -150.999s79.667 -59 131 -59z
M155.001 590l105 115h40l105 -115h-40l-85 95l-85 -95h-40z" />
    <glyph glyph-name="Gbreve" unicode="&#x11e;" horiz-adv-x="760" 
d="M655 0l-5.00098 150.006h-5c-7.33301 -14.667 -17.666 -30.167 -30.999 -46.5s-30.666 -33.5 -51.999 -51.5s-48 -32.833 -80 -44.5s-66 -17.5 -102 -17.5c-89.333 0 -165 33.667 -227 101s-93 153.666 -93 258.999s31 191.666 93 258.999s137.667 101 227 101
c46 0 87.833 -8.33301 125.5 -25s67.834 -37.834 90.501 -63.501s40.334 -49.334 53.001 -71.001s21.334 -41.834 26.001 -60.501h-35c-6.66699 17.333 -16.334 35.5 -29.001 54.5s-29.334 38.833 -50.001 59.5s-46.834 37.667 -78.501 51s-65.834 20 -102.501 20
c-80 0 -147.5 -30.333 -202.5 -91s-82.5 -138.667 -82.5 -234s27.5 -173.333 82.5 -234s122.5 -91 202.5 -91c72 0 135 25.667 189 77s81 110.666 81 177.999v35h-245v35h280v-350h-30zM254.999 900.006h35c2.66699 -24 11.667 -43.333 27 -58s36.333 -22 63 -22
s47.667 7.33301 63 22s24.333 34 27 58h35c-2.66699 -33.333 -15.5 -60.833 -38.5 -82.5s-51.833 -32.5 -86.5 -32.5s-63.5 10.833 -86.5 32.5s-35.833 49.167 -38.5 82.5z" />
    <glyph glyph-name="gbreve" unicode="&#x11f;" horiz-adv-x="580" 
d="M75 -40h35.001c2.66699 -37.333 19.167 -69.166 49.5 -95.499s70.5 -39.5 120.5 -39.5c55.333 0 98.333 15.333 129 46s46 73.667 46 129v140h-5c-11.333 -22 -26 -42 -44 -60c-40 -40 -87 -60 -141 -60c-58.667 0 -109.167 23.167 -151.5 69.5
s-63.5 104.833 -63.5 175.5s21.167 129.167 63.5 175.5s92.833 69.5 151.5 69.5c54 0 101 -20 141 -60c18 -18 32.667 -38 44 -60h5l4 41c0.666992 7.33301 1.5 19 2.5 35s2.16699 27.333 3.5 34h25v-500c0 -62.667 -19.333 -113.334 -58 -152.001s-89.334 -58 -152.001 -58
c-60 0 -108.5 16.5 -145.5 49.5s-56.833 73.167 -59.5 120.5zM270.001 55c51.333 0 95 19.667 131 59s54 89.666 54 150.999s-18 111.666 -54 150.999s-79.667 59 -131 59s-95 -19.667 -131 -59s-54 -89.666 -54 -150.999s18 -111.666 54 -150.999s79.667 -59 131 -59z
M155.001 705h35c2.66699 -24 11.667 -43.333 27 -58s36.333 -22 63 -22s47.667 7.33301 63 22s24.333 34 27 58h35c-2.66699 -33.333 -15.5 -60.833 -38.5 -82.5s-51.833 -32.5 -86.5 -32.5s-63.5 10.833 -86.5 32.5s-35.833 49.167 -38.5 82.5z" />
    <glyph glyph-name="Gdotaccent" unicode="&#x120;" horiz-adv-x="760" 
d="M655 0l-5.00098 150.006h-5c-7.33301 -14.667 -17.666 -30.167 -30.999 -46.5s-30.666 -33.5 -51.999 -51.5s-48 -32.833 -80 -44.5s-66 -17.5 -102 -17.5c-89.333 0 -165 33.667 -227 101s-93 153.666 -93 258.999s31 191.666 93 258.999s137.667 101 227 101
c46 0 87.833 -8.33301 125.5 -25s67.834 -37.834 90.501 -63.501s40.334 -49.334 53.001 -71.001s21.334 -41.834 26.001 -60.501h-35c-6.66699 17.333 -16.334 35.5 -29.001 54.5s-29.334 38.833 -50.001 59.5s-46.834 37.667 -78.501 51s-65.834 20 -102.501 20
c-80 0 -147.5 -30.333 -202.5 -91s-82.5 -138.667 -82.5 -234s27.5 -173.333 82.5 -234s122.5 -91 202.5 -91c72 0 135 25.667 189 77s81 110.666 81 177.999v35h-245v35h280v-350h-30zM359.999 835.006v45h45v-45h-45z" />
    <glyph glyph-name="gdotaccent" unicode="&#x121;" horiz-adv-x="580" 
d="M75 -40h35.001c2.66699 -37.333 19.167 -69.166 49.5 -95.499s70.5 -39.5 120.5 -39.5c55.333 0 98.333 15.333 129 46s46 73.667 46 129v140h-5c-11.333 -22 -26 -42 -44 -60c-40 -40 -87 -60 -141 -60c-58.667 0 -109.167 23.167 -151.5 69.5
s-63.5 104.833 -63.5 175.5s21.167 129.167 63.5 175.5s92.833 69.5 151.5 69.5c54 0 101 -20 141 -60c18 -18 32.667 -38 44 -60h5l4 41c0.666992 7.33301 1.5 19 2.5 35s2.16699 27.333 3.5 34h25v-500c0 -62.667 -19.333 -113.334 -58 -152.001s-89.334 -58 -152.001 -58
c-60 0 -108.5 16.5 -145.5 49.5s-56.833 73.167 -59.5 120.5zM270.001 55c51.333 0 95 19.667 131 59s54 89.666 54 150.999s-18 111.666 -54 150.999s-79.667 59 -131 59s-95 -19.667 -131 -59s-54 -89.666 -54 -150.999s18 -111.666 54 -150.999s79.667 -59 131 -59z
M260.001 640v45h45v-45h-45z" />
    <glyph glyph-name="Gcommaaccent" unicode="&#x122;" horiz-adv-x="760" 
d="M655 0l-5.00098 150.006h-5c-7.33301 -14.667 -17.666 -30.167 -30.999 -46.5s-30.666 -33.5 -51.999 -51.5s-48 -32.833 -80 -44.5s-66 -17.5 -102 -17.5c-89.333 0 -165 33.667 -227 101s-93 153.666 -93 258.999s31 191.666 93 258.999s137.667 101 227 101
c46 0 87.833 -8.33301 125.5 -25s67.834 -37.834 90.501 -63.501s40.334 -49.334 53.001 -71.001s21.334 -41.834 26.001 -60.501h-35c-6.66699 17.333 -16.334 35.5 -29.001 54.5s-29.334 38.833 -50.001 59.5s-46.834 37.667 -78.501 51s-65.834 20 -102.501 20
c-80 0 -147.5 -30.333 -202.5 -91s-82.5 -138.667 -82.5 -234s27.5 -173.333 82.5 -234s122.5 -91 202.5 -91c72 0 135 25.667 189 77s81 110.666 81 177.999v35h-245v35h280v-350h-30zM319.999 -219.994l35 130h40l-50 -130h-25z" />
    <glyph glyph-name="gcommaaccent" unicode="&#x123;" horiz-adv-x="580" 
d="M260 585l50 135h25l-35 -135h-40zM75 -40h35.001c2.66699 -37.333 19.167 -69.166 49.5 -95.499s70.5 -39.5 120.5 -39.5c55.333 0 98.333 15.333 129 46s46 73.667 46 129v140h-5c-11.333 -22 -26 -42 -44 -60c-40 -40 -87 -60 -141 -60
c-58.667 0 -109.167 23.167 -151.5 69.5s-63.5 104.833 -63.5 175.5s21.167 129.167 63.5 175.5s92.833 69.5 151.5 69.5c54 0 101 -20 141 -60c18 -18 32.667 -38 44 -60h5l4 41c0.666992 7.33301 1.5 19 2.5 35s2.16699 27.333 3.5 34h25v-500
c0 -62.667 -19.333 -113.334 -58 -152.001s-89.334 -58 -152.001 -58c-60 0 -108.5 16.5 -145.5 49.5s-56.833 73.167 -59.5 120.5zM270.001 55c51.333 0 95 19.667 131 59s54 89.666 54 150.999s-18 111.666 -54 150.999s-79.667 59 -131 59s-95 -19.667 -131 -59
s-54 -89.666 -54 -150.999s18 -111.666 54 -150.999s79.667 -59 131 -59z" />
    <glyph glyph-name="Hcircumflex" unicode="&#x124;" horiz-adv-x="725" 
d="M100 0v700h35v-325h455v325h35v-700h-35v340h-455v-340h-35zM235 785l105 115h40l105 -115h-40l-85 95l-85 -95h-40z" />
    <glyph glyph-name="hcircumflex" unicode="&#x125;" horiz-adv-x="580" 
d="M95 0v700h35v-290h5c8 16.667 20.333 33.334 37 50.001c36 33.333 78.667 50 128 50c58 0 105 -18.833 141 -56.5s54 -88.834 54 -153.501v-300h-35v300c0 52 -15.167 94.167 -45.5 126.5s-68.5 48.5 -114.5 48.5c-48 0 -88.333 -16.667 -121 -50s-49 -75 -49 -125v-300
h-35zM170 785l105 115h40l105 -115h-40l-85 95l-85 -95h-40z" />
    <glyph glyph-name="Hbar" unicode="&#x126;" horiz-adv-x="725" 
d="M100 0v525h-75v35h75v140h35v-140h450v140h35v-140h80v-35h-80v-525h-35v340h-450v-340h-35zM135 375h450v150h-450v-150z" />
    <glyph glyph-name="hbar" unicode="&#x127;" horiz-adv-x="580" 
d="M100 0v570h-95v35h95v95h35v-95h185v-35h-185v-220h5c8 16.667 20.333 33.334 37 50.001c36 33.333 78.667 50 128 50c58 0 105 -18.833 141 -56.5s54 -88.834 54 -153.501v-240h-35v240c0 52 -15.167 94.167 -45.5 126.5s-68.5 48.5 -114.5 48.5
c-48 0 -88.333 -16.667 -121 -50s-49 -75 -49 -125v-240h-35z" />
    <glyph glyph-name="Imacron" unicode="&#x12a;" horiz-adv-x="235" 
d="M100 0v700h35v-700h-35zM-15 825v35h270v-35h-270z" />
    <glyph glyph-name="imacron" unicode="&#x12b;" horiz-adv-x="215" 
d="M90 0v500h35v-500h-35zM-25 630v35h270v-35h-270z" />
    <glyph glyph-name="Ibreve" unicode="&#x12c;" horiz-adv-x="235" 
d="M100 0v700h35v-700h-35zM-5 900h35c2.66699 -24 11.667 -43.333 27 -58s36.333 -22 63 -22s47.667 7.33301 63 22s24.333 34 27 58h35c-2.66699 -33.333 -15.5 -60.833 -38.5 -82.5s-51.833 -32.5 -86.5 -32.5s-63.5 10.833 -86.5 32.5s-35.833 49.167 -38.5 82.5z" />
    <glyph glyph-name="ibreve" unicode="&#x12d;" horiz-adv-x="215" 
d="M90 0v500h35v-500h-35zM-15 705h35c2.66699 -24 11.667 -43.333 27 -58s36.333 -22 63 -22s47.667 7.33301 63 22s24.333 34 27 58h35c-2.66699 -33.333 -15.5 -60.833 -38.5 -82.5s-51.833 -32.5 -86.5 -32.5s-63.5 10.833 -86.5 32.5s-35.833 49.167 -38.5 82.5z" />
    <glyph glyph-name="Iogonek" unicode="&#x12e;" horiz-adv-x="235" 
d="M135 -150l-14.998 0.00195312c-53.333 0 -80 21.667 -80 65c0 39.333 20 67.666 60 84.999v700h35v-700c-20.667 -10.667 -35.834 -21.667 -45.501 -33s-14.5 -25.333 -14.5 -42c0 -14.667 4.16699 -25.834 12.5 -33.501s19.166 -11.5 32.499 -11.5h15v-30z" />
    <glyph glyph-name="iogonek" unicode="&#x12f;" horiz-adv-x="215" 
d="M125 -150l-14.998 0.00195312c-53.333 0 -80 21.667 -80 65c0 39.333 20 67.666 60 84.999v500h35v-500c-20.667 -10.667 -35.834 -21.667 -45.501 -33s-14.5 -25.333 -14.5 -42c0 -14.667 4.16699 -25.834 12.5 -33.501s19.166 -11.5 32.499 -11.5h15v-30z
M85.002 640.002v45h45v-45h-45z" />
    <glyph glyph-name="Idot" unicode="&#x130;" horiz-adv-x="235" 
d="M100 0v700h35v-700h-35zM95 835v45h45v-45h-45z" />
    <glyph glyph-name="dotlessi" unicode="&#x131;" horiz-adv-x="215" 
d="M90 0v500h35v-500h-35z" />
    <glyph glyph-name="uni0132" unicode="&#x132;" horiz-adv-x="560" 
d="M100 0v700h35v-700h-35zM185 0v35h180c20 0 35.833 5.83301 47.5 17.5s17.5 27.5 17.5 47.5v600h35v-600c0 -66.667 -33.333 -100 -100 -100h-180z" />
    <glyph glyph-name="uni0133" unicode="&#x133;" horiz-adv-x="430" 
d="M90 0v500h35v-500h-35zM85 640v45h45v-45h-45zM300 640v45h45v-45h-45zM180 -200v35h80c30 0 45 15 45 45v620h35v-620c0 -25.333 -7 -45 -21 -59s-33.667 -21 -59 -21h-80z" />
    <glyph glyph-name="Jcircumflex" unicode="&#x134;" horiz-adv-x="395" 
d="M20 0v35h180c20 0 35.833 5.83301 47.5 17.5s17.5 27.5 17.5 47.5v600h35v-600c0 -66.667 -33.333 -100 -100 -100h-180zM155 785l105 115h40l105 -115h-40l-85 95l-85 -95h-40z" />
    <glyph glyph-name="jcircumflex" unicode="&#x135;" horiz-adv-x="215" 
d="M-34 -200v35h78c30.667 0 46 15.333 46 46v619h35v-619c0 -54 -27 -81 -81 -81h-78zM-15 590l105 115h40l105 -115h-40l-85 95l-85 -95h-40z" />
    <glyph glyph-name="Kcommaaccent" unicode="&#x136;" horiz-adv-x="565" 
d="M100 0v700h35v-331l345 331h50l-360 -345l380 -355h-50l-365 341v-341h-35zM250 -220l35 130h40l-50 -130h-25z" />
    <glyph glyph-name="kcommaaccent" unicode="&#x137;" horiz-adv-x="470" 
d="M95 0v700h35v-433l275 233h50l-290 -245l300 -255h-50l-285 243v-243h-35zM205 -220l35 130h40l-50 -130h-25z" />
    <glyph glyph-name="Lacute" unicode="&#x139;" 
d="M100 0v700h35v-665h375v-35h-410zM105 785l80 115h40l-90 -115h-30z" />
    <glyph glyph-name="lacute" unicode="&#x13a;" horiz-adv-x="225" 
d="M95 0v700h35v-700h-35zM100 785l80 115h40l-90 -115h-30z" />
    <glyph glyph-name="Lcommaaccent" unicode="&#x13b;" 
d="M100 0v700h35v-665h375v-35h-410zM245 -220l35 130h40l-50 -130h-25z" />
    <glyph glyph-name="lcommaaccent" unicode="&#x13c;" horiz-adv-x="225" 
d="M95 0v700h35v-700h-35zM55 -220l35 130h40l-50 -130h-25z" />
    <glyph glyph-name="Lcaron" unicode="&#x13d;" 
d="M100 0v700h35v-665h375v-35h-410zM230 570l35 130h40l-50 -130h-25z" />
    <glyph glyph-name="lcaron" unicode="&#x13e;" horiz-adv-x="225" 
d="M95 0v700h35v-700h-35zM190 570l35 130h40l-50 -130h-25z" />
    <glyph glyph-name="Ldot" unicode="&#x13f;" 
d="M365 350v45h45v-45h-45zM100 0v700h35v-665h375v-35h-410z" />
    <glyph glyph-name="ldot" unicode="&#x140;" horiz-adv-x="315" 
d="M245 335v45h45v-45h-45zM95 0v700h35v-700h-35z" />
    <glyph glyph-name="Lslash" unicode="&#x141;" horiz-adv-x="555" 
d="M120 0v320l-90 -35v35l90 35v345h35v-331l175 66v-35l-175 -66v-299h370v-35h-405z" />
    <glyph glyph-name="lslash" unicode="&#x142;" horiz-adv-x="255" 
d="M110 0v335l-85 -35v35l85 35v330h35v-320l85 35v-35l-85 -35v-345h-35z" />
    <glyph glyph-name="Nacute" unicode="&#x143;" horiz-adv-x="720" 
d="M100 0v700h75l390 -665h20v665h35v-700h-75l-390 665h-20v-665h-35zM350 785l80 115h40l-90 -115h-30z" />
    <glyph glyph-name="nacute" unicode="&#x144;" horiz-adv-x="575" 
d="M90 0v500h25l10 -90h5c8 16.667 20.333 33.334 37 50.001c36 33.333 78.667 50 128 50c58 0 105 -18.833 141 -56.5s54 -88.834 54 -153.501v-300h-35v300c0 52 -15.167 94.167 -45.5 126.5s-68.5 48.5 -114.5 48.5c-48 0 -88.333 -16.667 -121 -50s-49 -75 -49 -125
v-300h-35zM279 590l80 115h40l-90 -115h-30z" />
    <glyph glyph-name="Ncommaaccent" unicode="&#x145;" horiz-adv-x="720" 
d="M100 0v700h75l390 -665h20v665h35v-700h-75l-390 665h-20v-665h-35zM301 -220l35 130h40l-50 -130h-25z" />
    <glyph glyph-name="ncommaaccent" unicode="&#x146;" horiz-adv-x="575" 
d="M90 0v500h25l10 -90h5c8 16.667 20.333 33.334 37 50.001c36 33.333 78.667 50 128 50c58 0 105 -18.833 141 -56.5s54 -88.834 54 -153.501v-300h-35v300c0 52 -15.167 94.167 -45.5 126.5s-68.5 48.5 -114.5 48.5c-48 0 -88.333 -16.667 -121 -50s-49 -75 -49 -125
v-300h-35zM240 -220l35 130h40l-50 -130h-25z" />
    <glyph glyph-name="Ncaron" unicode="&#x147;" horiz-adv-x="720" 
d="M100 0v700h75l390 -665h20v665h35v-700h-75l-390 665h-20v-665h-35zM350 785l-105 115h40l85 -95l85 95h40l-105 -115h-40z" />
    <glyph glyph-name="ncaron" unicode="&#x148;" horiz-adv-x="575" 
d="M90 0v500h25l10 -90h5c8 16.667 20.333 33.334 37 50.001c36 33.333 78.667 50 128 50c58 0 105 -18.833 141 -56.5s54 -88.834 54 -153.501v-300h-35v300c0 52 -15.167 94.167 -45.5 126.5s-68.5 48.5 -114.5 48.5c-48 0 -88.333 -16.667 -121 -50s-49 -75 -49 -125
v-300h-35zM270 590l-105 115h40l85 -95l85 95h40l-105 -115h-40z" />
    <glyph glyph-name="napostrophe" unicode="&#x149;" horiz-adv-x="575" 
d="M90 0v500h25l10 -90h5c8 16.667 20.333 33.334 37 50.001c36 33.333 78.667 50 128 50c58 0 105 -18.833 141 -56.5s54 -88.834 54 -153.501v-300h-35v300c0 52 -15.167 94.167 -45.5 126.5s-68.5 48.5 -114.5 48.5c-48 0 -88.333 -16.667 -121 -50s-49 -75 -49 -125
v-300h-35zM40 575l35 130h40l-50 -130h-25z" />
    <glyph glyph-name="Eng" unicode="&#x14a;" horiz-adv-x="720" 
d="M100 0v700h75l390 -665h20v665h35v-800c0 -66.667 -33.333 -100 -100 -100h-75v35h75c20 0 35.833 5.83301 47.5 17.5s17.5 27.5 17.5 47.5v100h-40l-390 665h-20v-665h-35z" />
    <glyph glyph-name="eng" unicode="&#x14b;" horiz-adv-x="575" 
d="M90 0v500h25l10 -90h5c8 16.667 20.333 33.334 37 50.001c36 33.333 78.667 50 128 50c58 0 105 -18.833 141 -56.5s54 -88.834 54 -153.501v-405c0 -30 -8.33301 -53.333 -25 -70s-40 -25 -70 -25h-65v35h65c40 0 60 20 60 60v405c0 52 -15.167 94.167 -45.5 126.5
s-68.5 48.5 -114.5 48.5c-48 0 -88.333 -16.667 -121 -50s-49 -75 -49 -125v-300h-35z" />
    <glyph glyph-name="Omacron" unicode="&#x14c;" horiz-adv-x="760" 
d="M380 675c-80 0 -147.5 -30.333 -202.5 -91s-82.5 -138.667 -82.5 -234s27.5 -173.333 82.5 -234s122.5 -91 202.5 -91s147.5 30.333 202.5 91s82.5 138.667 82.5 234s-27.5 173.333 -82.5 234s-122.5 91 -202.5 91zM380 710c89.333 0 165 -33.667 227 -101
s93 -153.666 93 -258.999s-31 -191.666 -93 -258.999s-137.667 -101 -227 -101s-165 33.667 -227 101s-93 153.666 -93 258.999s31 191.666 93 258.999s137.667 101 227 101zM245 825v35h270v-35h-270z" />
    <glyph glyph-name="omacron" unicode="&#x14d;" horiz-adv-x="550" 
d="M275 475c-54 0 -99.167 -20.5 -135.5 -61.5s-54.5 -95.5 -54.5 -163.5s18.167 -122.5 54.5 -163.5s81.5 -61.5 135.5 -61.5s99.167 20.5 135.5 61.5s54.5 95.5 54.5 163.5s-18.167 122.5 -54.5 163.5s-81.5 61.5 -135.5 61.5zM275 510c64 0 117.5 -23.833 160.5 -71.5
s64.5 -110.5 64.5 -188.5s-21.5 -140.833 -64.5 -188.5s-96.5 -71.5 -160.5 -71.5s-117.5 23.833 -160.5 71.5s-64.5 110.5 -64.5 188.5s21.5 140.833 64.5 188.5s96.5 71.5 160.5 71.5zM140 630v35h270v-35h-270z" />
    <glyph glyph-name="Obreve" unicode="&#x14e;" horiz-adv-x="760" 
d="M380 675c-80 0 -147.5 -30.333 -202.5 -91s-82.5 -138.667 -82.5 -234s27.5 -173.333 82.5 -234s122.5 -91 202.5 -91s147.5 30.333 202.5 91s82.5 138.667 82.5 234s-27.5 173.333 -82.5 234s-122.5 91 -202.5 91zM380 710c89.333 0 165 -33.667 227 -101
s93 -153.666 93 -258.999s-31 -191.666 -93 -258.999s-137.667 -101 -227 -101s-165 33.667 -227 101s-93 153.666 -93 258.999s31 191.666 93 258.999s137.667 101 227 101zM255 900h35c2.66699 -24 11.667 -43.333 27 -58s36.333 -22 63 -22s47.667 7.33301 63 22
s24.333 34 27 58h35c-2.66699 -33.333 -15.5 -60.833 -38.5 -82.5s-51.833 -32.5 -86.5 -32.5s-63.5 10.833 -86.5 32.5s-35.833 49.167 -38.5 82.5z" />
    <glyph glyph-name="obreve" unicode="&#x14f;" horiz-adv-x="550" 
d="M275 475c-54 0 -99.167 -20.5 -135.5 -61.5s-54.5 -95.5 -54.5 -163.5s18.167 -122.5 54.5 -163.5s81.5 -61.5 135.5 -61.5s99.167 20.5 135.5 61.5s54.5 95.5 54.5 163.5s-18.167 122.5 -54.5 163.5s-81.5 61.5 -135.5 61.5zM275 510c64 0 117.5 -23.833 160.5 -71.5
s64.5 -110.5 64.5 -188.5s-21.5 -140.833 -64.5 -188.5s-96.5 -71.5 -160.5 -71.5s-117.5 23.833 -160.5 71.5s-64.5 110.5 -64.5 188.5s21.5 140.833 64.5 188.5s96.5 71.5 160.5 71.5zM150 705h35c2.66699 -24 11.667 -43.333 27 -58s36.333 -22 63 -22
s47.667 7.33301 63 22s24.333 34 27 58h35c-2.66699 -33.333 -15.5 -60.833 -38.5 -82.5s-51.833 -32.5 -86.5 -32.5s-63.5 10.833 -86.5 32.5s-35.833 49.167 -38.5 82.5z" />
    <glyph glyph-name="Ohungarumlaut" unicode="&#x150;" horiz-adv-x="760" 
d="M380 675c-80 0 -147.5 -30.333 -202.5 -91s-82.5 -138.667 -82.5 -234s27.5 -173.333 82.5 -234s122.5 -91 202.5 -91s147.5 30.333 202.5 91s82.5 138.667 82.5 234s-27.5 173.333 -82.5 234s-122.5 91 -202.5 91zM380 710c89.333 0 165 -33.667 227 -101
s93 -153.666 93 -258.999s-31 -191.666 -93 -258.999s-137.667 -101 -227 -101s-165 33.667 -227 101s-93 153.666 -93 258.999s31 191.666 93 258.999s137.667 101 227 101zM305 785l80 115h40l-90 -115h-30zM425 785l80 115h40l-90 -115h-30z" />
    <glyph glyph-name="ohungarumlaut" unicode="&#x151;" horiz-adv-x="550" 
d="M275 475c-54 0 -99.167 -20.5 -135.5 -61.5s-54.5 -95.5 -54.5 -163.5s18.167 -122.5 54.5 -163.5s81.5 -61.5 135.5 -61.5s99.167 20.5 135.5 61.5s54.5 95.5 54.5 163.5s-18.167 122.5 -54.5 163.5s-81.5 61.5 -135.5 61.5zM275 510c64 0 117.5 -23.833 160.5 -71.5
s64.5 -110.5 64.5 -188.5s-21.5 -140.833 -64.5 -188.5s-96.5 -71.5 -160.5 -71.5s-117.5 23.833 -160.5 71.5s-64.5 110.5 -64.5 188.5s21.5 140.833 64.5 188.5s96.5 71.5 160.5 71.5zM200 590l80 115h40l-90 -115h-30zM320 590l80 115h40l-90 -115h-30z" />
    <glyph glyph-name="OE" unicode="&#x152;" horiz-adv-x="1135" 
d="M370 25c76.667 0 141.667 29.833 195 89.5s80 138.167 80 235.5s-26.667 175.833 -80 235.5s-118.333 89.5 -195 89.5s-141.667 -29.833 -195 -89.5s-80 -138.167 -80 -235.5s26.667 -175.833 80 -235.5s118.333 -89.5 195 -89.5zM640 0l-0.00292969 180.001h-5
c-3.33301 -12 -9.16602 -25.333 -17.499 -40s-20.166 -31 -35.499 -49s-32.666 -34.333 -51.999 -49s-43 -27 -71 -37s-57.667 -15 -89 -15c-88 0 -161.667 33.167 -221 99.5s-89 153.166 -89 260.499s29.667 194.166 89 260.499s133 99.5 221 99.5
c38.667 0 74.667 -7.16699 108 -21.5s60.5 -32.5 81.5 -54.5s37.667 -42.667 50 -62s20.833 -36.666 25.5 -51.999h5v180h425v-35h-390v-295h370v-35h-370v-300h390v-35h-425z" />
    <glyph glyph-name="oe" unicode="&#x153;" horiz-adv-x="935" 
d="M835 140l34.999 0.000976562c-15.333 -48.667 -41 -85.834 -77 -111.501s-78.667 -38.5 -128 -38.5c-54.667 0 -100 17.667 -136 53s-57.333 72.666 -64 111.999c-6.66699 -39.333 -28 -76.666 -64 -111.999s-81.333 -53 -136 -53c-59.333 0 -110 24 -152 72
s-63 110.667 -63 188s21 140 63 188s92.667 72 152 72c54.667 0 100 -17.667 136 -53s57.333 -72.666 64 -111.999c6.66699 39.333 28 76.666 64 111.999s81.333 53 136 53c61.333 0 113.333 -23 156 -69s64 -104.667 64 -176v-25h-405
c3.33301 -67.333 21.833 -120 55.5 -158s76.834 -57 129.501 -57c36 0 70 9.33301 102 28s54.667 47.667 68 87zM264.999 25.001c49.333 0 91.666 20.667 126.999 62s53 95.666 53 162.999s-17.667 121.666 -53 162.999s-77.666 62 -126.999 62
s-91.666 -20.667 -126.999 -62s-53 -95.666 -53 -162.999s17.667 -121.666 53 -162.999s77.666 -62 126.999 -62zM479.999 275.001h370c-2.66699 59.333 -21.5 107.5 -56.5 144.5s-77.833 55.5 -128.5 55.5s-93.5 -18.5 -128.5 -55.5s-53.833 -85.167 -56.5 -144.5z" />
    <glyph glyph-name="Racute" unicode="&#x154;" horiz-adv-x="645" 
d="M100 0v700h265c65.333 0 116.666 -18.5 153.999 -55.5s56 -86.833 56 -149.5s-18.667 -112.5 -56 -149.5s-88.666 -55.5 -153.999 -55.5h-75l305 -290h-50l-305 290h-105v-290h-35zM135 325h230c55.333 0 98.333 15.167 129 45.5s46 71.833 46 124.5
s-15.333 94.167 -46 124.5s-73.667 45.5 -129 45.5h-230v-340zM305 785l80 115h40l-90 -115h-30z" />
    <glyph glyph-name="racute" unicode="&#x155;" horiz-adv-x="340" 
d="M90 0l-0.000976562 500h30l5 -50h5c18.667 33.333 50.334 50 95.001 50h100v-35h-100c-28.667 0 -52.5 -10.333 -71.5 -31s-28.5 -47 -28.5 -79v-355h-35zM194.999 590l80 115h40l-90 -115h-30z" />
    <glyph glyph-name="Rcommaaccent" unicode="&#x156;" horiz-adv-x="645" 
d="M100 0v700h265c65.333 0 116.666 -18.5 153.999 -55.5s56 -86.833 56 -149.5s-18.667 -112.5 -56 -149.5s-88.666 -55.5 -153.999 -55.5h-75l305 -290h-50l-305 290h-105v-290h-35zM135 325h230c55.333 0 98.333 15.167 129 45.5s46 71.833 46 124.5
s-15.333 94.167 -46 124.5s-73.667 45.5 -129 45.5h-230v-340zM265 -220l35 130h40l-50 -130h-25z" />
    <glyph glyph-name="rcommaaccent" unicode="&#x157;" horiz-adv-x="340" 
d="M90 0l-0.000976562 500h30l5 -50h5c18.667 33.333 50.334 50 95.001 50h100v-35h-100c-28.667 0 -52.5 -10.333 -71.5 -31s-28.5 -47 -28.5 -79v-355h-35zM54.999 -220l35 130h40l-50 -130h-25z" />
    <glyph glyph-name="Rcaron" unicode="&#x158;" horiz-adv-x="645" 
d="M100 0v700h265c65.333 0 116.666 -18.5 153.999 -55.5s56 -86.833 56 -149.5s-18.667 -112.5 -56 -149.5s-88.666 -55.5 -153.999 -55.5h-75l305 -290h-50l-305 290h-105v-290h-35zM135 325h230c55.333 0 98.333 15.167 129 45.5s46 71.833 46 124.5
s-15.333 94.167 -46 124.5s-73.667 45.5 -129 45.5h-230v-340zM305 785l-105 115h40l85 -95l85 95h40l-105 -115h-40z" />
    <glyph glyph-name="rcaron" unicode="&#x159;" horiz-adv-x="340" 
d="M90 0l-0.000976562 500h30l5 -50h5c18.667 33.333 50.334 50 95.001 50h100v-35h-100c-28.667 0 -52.5 -10.333 -71.5 -31s-28.5 -47 -28.5 -79v-355h-35zM194.999 590l-105 115h40l85 -95l85 95h40l-105 -115h-40z" />
    <glyph glyph-name="Sacute" unicode="&#x15a;" horiz-adv-x="615" 
d="M60 205h34.999c0 -49.333 20 -91.666 60 -126.999s91.667 -53 155 -53c64.667 0 115 14.833 151 44.5s54 66.5 54 110.5c0 39.333 -12 71 -36 95s-63.667 40.667 -119 50l-95 15c-126.667 19.333 -190 79.333 -190 180c0 54 20.5 99.167 61.5 135.5s95.5 54.5 163.5 54.5
c73.333 0 132.5 -20.5 177.5 -61.5s67.5 -92.167 67.5 -153.5h-35c0 51.333 -19 94.166 -57 128.499s-89 51.5 -153 51.5c-58 0 -104.167 -14.833 -138.5 -44.5s-51.5 -66.5 -51.5 -110.5c0 -39.333 12 -71.333 36 -96s63.667 -41 119 -49l95 -15
c126.667 -19.333 190 -79.333 190 -180c0 -54.667 -21.167 -100 -63.5 -136s-101.166 -54 -176.499 -54c-72.667 0 -132.5 21 -179.5 63s-70.5 92.667 -70.5 152zM289.999 785l80 115h40l-90 -115h-30z" />
    <glyph glyph-name="sacute" unicode="&#x15b;" horiz-adv-x="460" 
d="M45 145l35.001 0.00195312c0 -32.667 13 -60.834 39 -84.501s61.333 -35.5 106 -35.5c48 0 85 10 111 30s39 45 39 75c0 26.667 -7.16699 46.834 -21.5 60.501s-37.166 23.5 -68.499 29.5l-100 20c-48 8.66699 -81.667 24 -101 46s-29 50 -29 84
c0 38.667 15.667 71.667 47 99s72.333 41 123 41c53.333 0 96.666 -15 129.999 -45s50 -66.667 50 -110h-35c0 33.333 -13.167 61.666 -39.5 84.999s-61.5 35 -105.5 35s-77.5 -9.66699 -100.5 -29s-34.5 -44.666 -34.5 -75.999c0 -26.667 6.83301 -47.334 20.5 -62.001
s38.5 -25.667 74.5 -33l100 -20c42.667 -8.66699 74.167 -22.834 94.5 -42.501s30.5 -47.167 30.5 -82.5c0 -39.333 -16.5 -72.5 -49.5 -99.5s-78.167 -40.5 -135.5 -40.5c-54.667 0 -98.334 15 -131.001 45s-49 66.667 -49 110zM210.001 590.002l80 115h40l-90 -115h-30z
" />
    <glyph glyph-name="Scircumflex" unicode="&#x15c;" horiz-adv-x="615" 
d="M60 205h34.999c0 -49.333 20 -91.666 60 -126.999s91.667 -53 155 -53c64.667 0 115 14.833 151 44.5s54 66.5 54 110.5c0 39.333 -12 71 -36 95s-63.667 40.667 -119 50l-95 15c-126.667 19.333 -190 79.333 -190 180c0 54 20.5 99.167 61.5 135.5s95.5 54.5 163.5 54.5
c73.333 0 132.5 -20.5 177.5 -61.5s67.5 -92.167 67.5 -153.5h-35c0 51.333 -19 94.166 -57 128.499s-89 51.5 -153 51.5c-58 0 -104.167 -14.833 -138.5 -44.5s-51.5 -66.5 -51.5 -110.5c0 -39.333 12 -71.333 36 -96s63.667 -41 119 -49l95 -15
c126.667 -19.333 190 -79.333 190 -180c0 -54.667 -21.167 -100 -63.5 -136s-101.166 -54 -176.499 -54c-72.667 0 -132.5 21 -179.5 63s-70.5 92.667 -70.5 152zM179.999 785l105 115h40l105 -115h-40l-85 95l-85 -95h-40z" />
    <glyph glyph-name="scircumflex" unicode="&#x15d;" horiz-adv-x="460" 
d="M45 145l35.001 0.00195312c0 -32.667 13 -60.834 39 -84.501s61.333 -35.5 106 -35.5c48 0 85 10 111 30s39 45 39 75c0 26.667 -7.16699 46.834 -21.5 60.501s-37.166 23.5 -68.499 29.5l-100 20c-48 8.66699 -81.667 24 -101 46s-29 50 -29 84
c0 38.667 15.667 71.667 47 99s72.333 41 123 41c53.333 0 96.666 -15 129.999 -45s50 -66.667 50 -110h-35c0 33.333 -13.167 61.666 -39.5 84.999s-61.5 35 -105.5 35s-77.5 -9.66699 -100.5 -29s-34.5 -44.666 -34.5 -75.999c0 -26.667 6.83301 -47.334 20.5 -62.001
s38.5 -25.667 74.5 -33l100 -20c42.667 -8.66699 74.167 -22.834 94.5 -42.501s30.5 -47.167 30.5 -82.5c0 -39.333 -16.5 -72.5 -49.5 -99.5s-78.167 -40.5 -135.5 -40.5c-54.667 0 -98.334 15 -131.001 45s-49 66.667 -49 110zM100.001 590.002l105 115h40l105 -115h-40
l-85 95l-85 -95h-40z" />
    <glyph glyph-name="Scedilla" unicode="&#x15e;" horiz-adv-x="615" 
d="M255 -190v30h35c18.667 0 32.5 3.83301 41.5 11.5s13.5 17.167 13.5 28.5c0 12.667 -5 23.334 -15 32.001s-23.333 13 -40 13h-20v25l18 41c-68 4 -123 26.667 -165 68s-63 90 -63 146h35c0 -49.333 20 -91.666 60 -126.999s91.667 -53 155 -53
c64.667 0 115 14.833 151 44.5s54 66.5 54 110.5c0 39.333 -12 71 -36 95s-63.667 40.667 -119 50l-95 15c-126.667 19.333 -190 79.333 -190 180c0 54 20.5 99.167 61.5 135.5s95.5 54.5 163.5 54.5c73.333 0 132.5 -20.5 177.5 -61.5s67.5 -92.167 67.5 -153.5h-35
c0 51.333 -19 94.166 -57 128.499s-89 51.5 -153 51.5c-58 0 -104.167 -14.833 -138.5 -44.5s-51.5 -66.5 -51.5 -110.5c0 -39.333 12 -71.333 36 -96s63.667 -41 119 -49l95 -15c126.667 -19.333 190 -79.333 190 -180c0 -52.667 -20.167 -96.834 -60.5 -132.501
s-95.833 -54.834 -166.5 -57.501l-18 -40c20 0 36.667 -6.33301 50 -19s20 -28 20 -46c0 -23.333 -7.33301 -41.666 -22 -54.999s-35.667 -20 -63 -20h-35z" />
    <glyph glyph-name="scedilla" unicode="&#x15f;" horiz-adv-x="460" 
d="M180 -190v29.999h35c18.667 0 32.5 3.83301 41.5 11.5s13.5 17.167 13.5 28.5c0 12.667 -5 23.334 -15 32.001s-23.333 13 -40 13h-20v25l18 40c-51.333 2.66699 -92.166 18.834 -122.499 48.501s-45.5 65.167 -45.5 106.5h35c0 -32.667 13 -60.834 39 -84.501
s61.333 -35.5 106 -35.5c48 0 85 10 111 30s39 45 39 75c0 26.667 -7.16699 46.834 -21.5 60.501s-37.166 23.5 -68.499 29.5l-100 20c-48 8.66699 -81.667 24 -101 46s-29 50 -29 84c0 38.667 15.667 71.667 47 99s72.333 41 123 41c53.333 0 96.666 -15 129.999 -45
s50 -66.667 50 -110h-35c0 33.333 -13.167 61.666 -39.5 84.999s-61.5 35 -105.5 35s-77.5 -9.66699 -100.5 -29s-34.5 -44.666 -34.5 -75.999c0 -26.667 6.83301 -47.334 20.5 -62.001s38.5 -25.667 74.5 -33l100 -20c42.667 -8.66699 74.167 -22.834 94.5 -42.501
s30.5 -47.167 30.5 -82.5c0 -36.667 -14.333 -68 -43 -94s-68.334 -41 -119.001 -45l-18 -41c20 0 36.667 -6.33301 50 -19s20 -28 20 -46c0 -23.333 -7.33301 -41.666 -22 -54.999s-35.667 -20 -63 -20h-35z" />
    <glyph glyph-name="Scaron" unicode="&#x160;" horiz-adv-x="615" 
d="M60 205h34.999c0 -49.333 20 -91.666 60 -126.999s91.667 -53 155 -53c64.667 0 115 14.833 151 44.5s54 66.5 54 110.5c0 39.333 -12 71 -36 95s-63.667 40.667 -119 50l-95 15c-126.667 19.333 -190 79.333 -190 180c0 54 20.5 99.167 61.5 135.5s95.5 54.5 163.5 54.5
c73.333 0 132.5 -20.5 177.5 -61.5s67.5 -92.167 67.5 -153.5h-35c0 51.333 -19 94.166 -57 128.499s-89 51.5 -153 51.5c-58 0 -104.167 -14.833 -138.5 -44.5s-51.5 -66.5 -51.5 -110.5c0 -39.333 12 -71.333 36 -96s63.667 -41 119 -49l95 -15
c126.667 -19.333 190 -79.333 190 -180c0 -54.667 -21.167 -100 -63.5 -136s-101.166 -54 -176.499 -54c-72.667 0 -132.5 21 -179.5 63s-70.5 92.667 -70.5 152zM284.999 785l-105 115h40l85 -95l85 95h40l-105 -115h-40z" />
    <glyph glyph-name="scaron" unicode="&#x161;" horiz-adv-x="460" 
d="M45 145l35.001 0.00195312c0 -32.667 13 -60.834 39 -84.501s61.333 -35.5 106 -35.5c48 0 85 10 111 30s39 45 39 75c0 26.667 -7.16699 46.834 -21.5 60.501s-37.166 23.5 -68.499 29.5l-100 20c-48 8.66699 -81.667 24 -101 46s-29 50 -29 84
c0 38.667 15.667 71.667 47 99s72.333 41 123 41c53.333 0 96.666 -15 129.999 -45s50 -66.667 50 -110h-35c0 33.333 -13.167 61.666 -39.5 84.999s-61.5 35 -105.5 35s-77.5 -9.66699 -100.5 -29s-34.5 -44.666 -34.5 -75.999c0 -26.667 6.83301 -47.334 20.5 -62.001
s38.5 -25.667 74.5 -33l100 -20c42.667 -8.66699 74.167 -22.834 94.5 -42.501s30.5 -47.167 30.5 -82.5c0 -39.333 -16.5 -72.5 -49.5 -99.5s-78.167 -40.5 -135.5 -40.5c-54.667 0 -98.334 15 -131.001 45s-49 66.667 -49 110zM210.001 590.002l-105 115h40l85 -95l85 95
h40l-105 -115h-40z" />
    <glyph glyph-name="uni0162" unicode="&#x162;" horiz-adv-x="595" 
d="M240 -190v29.998h35c18.667 0 32.5 3.83301 41.5 11.5s13.5 17.167 13.5 28.5c0 12.667 -5 23.334 -15 32.001s-23.333 13 -40 13h-20v25l25 50v665h-250v35h535v-35h-250v-665l-25 -50c20 0 36.667 -6.33301 50 -19s20 -28 20 -46
c0 -23.333 -7.33301 -41.666 -22 -54.999s-35.667 -20 -63 -20h-35z" />
    <glyph glyph-name="uni0163" unicode="&#x163;" horiz-adv-x="335" 
d="M145 -190v29.998h35c18.667 0 32.5 3.83301 41.5 11.5s13.5 17.167 13.5 28.5c0 12.667 -5 23.334 -15 32.001s-23.333 13 -40 13h-20v25l22 50c-44.667 5.33301 -67 32 -67 80v385h-80v35h80v140h35v-140h135v-35h-135v-385c0 -30 15 -45 45 -45h90v-35h-68l-22 -50
c20 0 36.667 -6.33301 50 -19s20 -28 20 -46c0 -23.333 -7.33301 -41.666 -22 -54.999s-35.667 -20 -63 -20h-35z" />
    <glyph glyph-name="Tcaron" unicode="&#x164;" horiz-adv-x="595" 
d="M280 0v665h-250v35h535v-35h-250v-665h-35zM280 785l-105 115h40l85 -95l85 95h40l-105 -115h-40z" />
    <glyph glyph-name="tcaron" unicode="&#x165;" horiz-adv-x="335" 
d="M115 80v385h-80v35h80v140h35v-140h135v-35h-135v-385c0 -30 15 -45 45 -45h90v-35h-90c-25.333 0 -45 7 -59 21s-21 33.667 -21 59zM275 570l35 130h40l-50 -130h-25z" />
    <glyph glyph-name="Tbar" unicode="&#x166;" horiz-adv-x="595" 
d="M280 0v445h-165v35h165v185h-250v35h535v-35h-250v-185h165v-35h-165v-445h-35z" />
    <glyph glyph-name="tbar" unicode="&#x167;" horiz-adv-x="335" 
d="M115 80v180h-80v35h80v170h-80v35h80v140h35v-140h135v-35h-135v-170h135v-35h-135v-180c0 -30 15 -45 45 -45h90v-35h-90c-25.333 0 -45 7 -59 21s-21 33.667 -21 59z" />
    <glyph glyph-name="Umacron" unicode="&#x16a;" horiz-adv-x="700" 
d="M90 275l0.00195312 425h35v-425c0 -73.333 21.667 -133.333 65 -180s96.666 -70 159.999 -70s116.666 23.333 159.999 70s65 106.667 65 180v425h35v-425c0 -84 -24.833 -152.5 -74.5 -205.5s-111.5 -79.5 -185.5 -79.5s-135.833 26.5 -185.5 79.5
s-74.5 121.5 -74.5 205.5zM215.002 825v35h270v-35h-270z" />
    <glyph glyph-name="umacron" unicode="&#x16b;" horiz-adv-x="575" 
d="M85 200v299.999h35v-300c0 -52 15.167 -94.167 45.5 -126.5s68.5 -48.5 114.5 -48.5c48 0 88.333 16.667 121 50s49 75 49 125v300h35v-500h-25l-10 85h-5c-10 -18 -23 -34 -39 -48c-35.333 -31.333 -77.333 -47 -126 -47c-58 0 -105 18.833 -141 56.5
s-54 88.834 -54 153.501zM155 629.999v35h270v-35h-270z" />
    <glyph glyph-name="Ubreve" unicode="&#x16c;" horiz-adv-x="700" 
d="M90 275l0.00195312 425h35v-425c0 -73.333 21.667 -133.333 65 -180s96.666 -70 159.999 -70s116.666 23.333 159.999 70s65 106.667 65 180v425h35v-425c0 -84 -24.833 -152.5 -74.5 -205.5s-111.5 -79.5 -185.5 -79.5s-135.833 26.5 -185.5 79.5
s-74.5 121.5 -74.5 205.5zM225.002 900h35c2.66699 -24 11.667 -43.333 27 -58s36.333 -22 63 -22s47.667 7.33301 63 22s24.333 34 27 58h35c-2.66699 -33.333 -15.5 -60.833 -38.5 -82.5s-51.833 -32.5 -86.5 -32.5s-63.5 10.833 -86.5 32.5s-35.833 49.167 -38.5 82.5z
" />
    <glyph glyph-name="ubreve" unicode="&#x16d;" horiz-adv-x="575" 
d="M85 200v299.999h35v-300c0 -52 15.167 -94.167 45.5 -126.5s68.5 -48.5 114.5 -48.5c48 0 88.333 16.667 121 50s49 75 49 125v300h35v-500h-25l-10 85h-5c-10 -18 -23 -34 -39 -48c-35.333 -31.333 -77.333 -47 -126 -47c-58 0 -105 18.833 -141 56.5
s-54 88.834 -54 153.501zM160 704.999h35c2.66699 -24 11.667 -43.333 27 -58s36.333 -22 63 -22s47.667 7.33301 63 22s24.333 34 27 58h35c-2.66699 -33.333 -15.5 -60.833 -38.5 -82.5s-51.833 -32.5 -86.5 -32.5s-63.5 10.833 -86.5 32.5s-35.833 49.167 -38.5 82.5z
" />
    <glyph glyph-name="Uring" unicode="&#x16e;" horiz-adv-x="700" 
d="M90 275l0.00195312 425h35v-425c0 -73.333 21.667 -133.333 65 -180s96.666 -70 159.999 -70s116.666 23.333 159.999 70s65 106.667 65 180v425h35v-425c0 -84 -24.833 -152.5 -74.5 -205.5s-111.5 -79.5 -185.5 -79.5s-135.833 26.5 -185.5 79.5
s-74.5 121.5 -74.5 205.5zM430.002 855c0 -22.667 -7.66699 -41.667 -23 -57s-34.333 -23 -57 -23s-41.667 7.66699 -57 23s-23 34.333 -23 57s7.66699 41.667 23 57s34.333 23 57 23s41.667 -7.66699 57 -23s23 -34.333 23 -57zM300.002 855
c0 -15.333 4.5 -27.5 13.5 -36.5s21.167 -13.5 36.5 -13.5s27.5 4.5 36.5 13.5s13.5 21.167 13.5 36.5s-4.5 27.5 -13.5 36.5s-21.167 13.5 -36.5 13.5s-27.5 -4.5 -36.5 -13.5s-13.5 -21.167 -13.5 -36.5z" />
    <glyph glyph-name="uring" unicode="&#x16f;" horiz-adv-x="575" 
d="M85 200v299.999h35v-300c0 -52 15.167 -94.167 45.5 -126.5s68.5 -48.5 114.5 -48.5c48 0 88.333 16.667 121 50s49 75 49 125v300h35v-500h-25l-10 85h-5c-10 -18 -23 -34 -39 -48c-35.333 -31.333 -77.333 -47 -126 -47c-58 0 -105 18.833 -141 56.5
s-54 88.834 -54 153.501zM365 659.999c0 -22.667 -7.66699 -41.667 -23 -57s-34.333 -23 -57 -23s-41.667 7.66699 -57 23s-23 34.333 -23 57s7.66699 41.667 23 57s34.333 23 57 23s41.667 -7.66699 57 -23s23 -34.333 23 -57zM235 659.999c0 -15.333 4.5 -27.5 13.5 -36.5
s21.167 -13.5 36.5 -13.5s27.5 4.5 36.5 13.5s13.5 21.167 13.5 36.5s-4.5 27.5 -13.5 36.5s-21.167 13.5 -36.5 13.5s-27.5 -4.5 -36.5 -13.5s-13.5 -21.167 -13.5 -36.5z" />
    <glyph glyph-name="Uhungarumlaut" unicode="&#x170;" horiz-adv-x="700" 
d="M90 275l0.00195312 425h35v-425c0 -73.333 21.667 -133.333 65 -180s96.666 -70 159.999 -70s116.666 23.333 159.999 70s65 106.667 65 180v425h35v-425c0 -84 -24.833 -152.5 -74.5 -205.5s-111.5 -79.5 -185.5 -79.5s-135.833 26.5 -185.5 79.5
s-74.5 121.5 -74.5 205.5zM270.002 785l80 115h40l-90 -115h-30zM390.002 785l80 115h40l-90 -115h-30z" />
    <glyph glyph-name="uhungarumlaut" unicode="&#x171;" horiz-adv-x="575" 
d="M85 200v299.999h35v-300c0 -52 15.167 -94.167 45.5 -126.5s68.5 -48.5 114.5 -48.5c48 0 88.333 16.667 121 50s49 75 49 125v300h35v-500h-25l-10 85h-5c-10 -18 -23 -34 -39 -48c-35.333 -31.333 -77.333 -47 -126 -47c-58 0 -105 18.833 -141 56.5
s-54 88.834 -54 153.501zM210 589.999l80 115h40l-90 -115h-30zM330 589.999l80 115h40l-90 -115h-30z" />
    <glyph glyph-name="Uogonek" unicode="&#x172;" horiz-adv-x="700" 
d="M405 -150l-14.9971 0.00195312c-53.333 0 -80 21.667 -80 65c0 31.333 13.667 56.333 41 75h-1c-74 0 -135.833 26.5 -185.5 79.5s-74.5 121.5 -74.5 205.5v425h35v-425c0 -73.333 21.667 -133.333 65 -180s96.666 -70 159.999 -70s116.666 23.333 159.999 70
s65 106.667 65 180v425h35v-425c0 -74.667 -20.5 -137.834 -61.5 -189.501s-93.167 -82.167 -156.5 -91.5c-31.333 -18.667 -47 -41.667 -47 -69c0 -14.667 4.16699 -25.834 12.5 -33.501s19.166 -11.5 32.499 -11.5h15v-30z" />
    <glyph glyph-name="uogonek" unicode="&#x173;" horiz-adv-x="575" 
d="M85 200l0.00195312 300h35v-300c0 -52 15.167 -94.167 45.5 -126.5s68.5 -48.5 114.5 -48.5c48 0 88.333 16.667 121 50s49 75 49 125v300h35v-500c-20.667 -10.667 -35.834 -21.667 -45.501 -33s-14.5 -25.333 -14.5 -42c0 -14.667 4.16699 -25.834 12.5 -33.501
s19.166 -11.5 32.499 -11.5h15v-30h-15c-53.333 0 -80 21.667 -80 65c0 19.333 6.5 36.333 19.5 51s29.833 26 50.5 34l-10 85h-5c-10 -18 -23 -34 -39 -48c-35.333 -31.333 -77.333 -47 -126 -47c-58 0 -105 18.833 -141 56.5s-54 88.834 -54 153.501z" />
    <glyph glyph-name="Wcircumflex" unicode="&#x174;" horiz-adv-x="900" 
d="M200 0l-175 700h35l165 -665h20l170 665h70l170 -665h20l165 665h35l-175 -700h-70l-170 665h-20l-170 -665h-70zM325 785l105 115h40l105 -115h-40l-85 95l-85 -95h-40z" />
    <glyph glyph-name="wcircumflex" unicode="&#x175;" horiz-adv-x="710" 
d="M160 0l-135 500h35l122 -460h17l125 460h62l125 -460h17l122 460h35l-135 -500h-60l-127 465h-16l-127 -465h-60zM230 590l105 115h40l105 -115h-40l-85 95l-85 -95h-40z" />
    <glyph glyph-name="Ycircumflex" unicode="&#x176;" horiz-adv-x="585" 
d="M275 0v260l-260 440h40l225 -385h25l225 385h40l-260 -440v-260h-35zM170 785l105 115h40l105 -115h-40l-85 95l-85 -95h-40z" />
    <glyph glyph-name="ycircumflex" unicode="&#x177;" horiz-adv-x="450" 
d="M60 -200v35h65c15.333 0 26.5 3 33.5 9s13.833 18 20.5 36l34 95l-198 525h36l170 -450h18l160 450h36l-230 -645c-14 -36.667 -40.667 -55 -80 -55h-65zM105 590l105 115h40l105 -115h-40l-85 95l-85 -95h-40z" />
    <glyph glyph-name="Ydieresis" unicode="&#x178;" horiz-adv-x="585" 
d="M275 0v260l-260 440h40l225 -385h25l225 385h40l-260 -440v-260h-35zM355 835v45h45v-45h-45zM185 835v45h45v-45h-45z" />
    <glyph glyph-name="Zacute" unicode="&#x179;" horiz-adv-x="575" 
d="M50 0v30l425 635h-420v35h465v-30l-425 -635h430v-35h-475zM265 785l80 115h40l-90 -115h-30z" />
    <glyph glyph-name="zacute" unicode="&#x17a;" horiz-adv-x="420" 
d="M35 0v25l300 440h-295v35h340v-25l-300 -440h305v-35h-350zM200 590l80 115h40l-90 -115h-30z" />
    <glyph glyph-name="Zdotaccent" unicode="&#x17b;" horiz-adv-x="575" 
d="M50 0v30l425 635h-420v35h465v-30l-425 -635h430v-35h-475zM265 835v45h45v-45h-45z" />
    <glyph glyph-name="zdotaccent" unicode="&#x17c;" horiz-adv-x="420" 
d="M35 0v25l300 440h-295v35h340v-25l-300 -440h305v-35h-350zM190 640v45h45v-45h-45z" />
    <glyph glyph-name="Zcaron" unicode="&#x17d;" horiz-adv-x="575" 
d="M50 0v30l425 635h-420v35h465v-30l-425 -635h430v-35h-475zM265 785l-105 115h40l85 -95l85 95h40l-105 -115h-40z" />
    <glyph glyph-name="zcaron" unicode="&#x17e;" horiz-adv-x="420" 
d="M35 0v25l300 440h-295v35h340v-25l-300 -440h305v-35h-350zM190 590l-105 115h40l85 -95l85 95h40l-105 -115h-40z" />
    <glyph glyph-name="uni018F" unicode="&#x18f;" horiz-adv-x="750" 
d="M60 340l-0.000976562 24.998h595c0 92 -28.167 166.667 -84.5 224s-123.166 86 -200.499 86c-56 0 -107.667 -16.667 -155 -50s-82.333 -78.333 -105 -135h-35c22 66.667 60.333 120 115 160s114.667 60 180 60c89.333 0 165 -33.667 227 -101s93 -153.666 93 -258.999
s-30.667 -191.666 -92 -258.999s-135.666 -101 -222.999 -101c-86.667 0 -160.834 33.333 -222.501 100s-92.5 150 -92.5 250zM654.999 329.998h-560.004c2.66699 -90 31.334 -163.333 86.001 -220s119.334 -85 194.001 -85s139.334 28.333 194.001 85
s83.334 130 86.001 220z" />
    <glyph glyph-name="florin" unicode="&#x192;" horiz-adv-x="360" 
d="M-60 -200l10 34.999h60c27.333 0 44 15 50 45l107 485h-97l10 35h95l45 200c6 29.333 15.333 50 28 62s33.334 18 62.001 18h70l-10 -35h-65c-16 0 -27.333 -3.66699 -34 -11s-12 -18.666 -16 -33.999l-45 -200h110l-10 -35h-108l-107 -485
c-6 -29.333 -15.333 -50 -28 -62s-33.334 -18 -62.001 -18h-65z" />
    <glyph glyph-name="Aringacute" unicode="&#x1fa;" horiz-adv-x="620" 
d="M304 900l41 70.002h35l-48 -73c17.333 -4.66699 31.333 -14 42 -28s16 -30.333 16 -49c0 -22.667 -7.66699 -41.667 -23 -57s-34.333 -23 -57 -23s-41.667 7.66699 -57 23s-23 34.333 -23 57c0 21.333 7 39.666 21 54.999s31.667 23.666 53 24.999zM260 820.002
c0 -15.333 4.5 -27.5 13.5 -36.5s21.167 -13.5 36.5 -13.5s27.5 4.5 36.5 13.5s13.5 21.167 13.5 36.5s-4.5 27.5 -13.5 36.5s-21.167 13.5 -36.5 13.5s-27.5 -4.5 -36.5 -13.5s-13.5 -21.167 -13.5 -36.5zM15 0.00195312l265 700h60l265 -700h-35l-75 200h-370l-75 -200
h-35zM139 235.002h342l-161 425h-20z" />
    <glyph glyph-name="aringacute" unicode="&#x1fb;" horiz-adv-x="525" 
d="M261 725l39 70.002h40l-50 -74c16 -5.33301 29.167 -14.833 39.5 -28.5s15.5 -29.5 15.5 -47.5c0 -22.667 -7.66699 -41.667 -23 -57s-34.333 -23 -57 -23s-41.667 7.66699 -57 23s-23 34.333 -23 57c0 21.333 7.33301 39.666 22 54.999s32.667 23.666 54 24.999z
M215 645.002c0 -15.333 4.5 -27.5 13.5 -36.5s21.167 -13.5 36.5 -13.5s27.5 4.5 36.5 13.5s13.5 21.167 13.5 36.5s-4.5 27.5 -13.5 36.5s-21.167 13.5 -36.5 13.5s-27.5 -4.5 -36.5 -13.5s-13.5 -21.167 -13.5 -36.5zM440 0.00195312l-24.998 -0.00195312
c-1.33301 10.667 -2.33301 27.334 -3 50.001s-1.33398 39.334 -2.00098 50.001h-5c-38.667 -73.333 -100.334 -110 -185.001 -110c-49.333 0 -88.333 13.333 -117 40s-43 61.667 -43 105c0 46.667 16.167 84.167 48.5 112.5s77.833 42.5 136.5 42.5h160v35
c0 48 -12.667 85 -38 111s-61 39 -107 39c-42.667 0 -77 -10.5 -103 -31.5s-41.667 -50.5 -47 -88.5h-35c6 47.333 24.833 85 56.5 113s74.5 42 128.5 42c56 0 100 -16.333 132 -49s48 -78 48 -136v-325zM405.002 225l0.000976562 30.001h-160
c-48.667 0 -85.834 -10.833 -111.501 -32.5s-38.5 -50.834 -38.5 -87.501c0 -33.333 11 -60 33 -80s52.667 -30 92 -30c55.333 0 100 18 134 54s51 84.667 51 146z" />
    <glyph glyph-name="AEacute" unicode="&#x1fc;" horiz-adv-x="910" 
d="M-15 0l305 700h550v-35h-395v-295h375v-35h-375v-300h395v-35h-430v210h-299l-91 -210h-35zM126 245h284v420h-100zM420 785l80 115h40l-90 -115h-30z" />
    <glyph glyph-name="aeacute" unicode="&#x1fd;" horiz-adv-x="895" 
d="M440 275h370c-2.66699 59.333 -21.5 107.5 -56.5 144.5s-77.833 55.5 -128.5 55.5s-93.5 -18.5 -128.5 -55.5s-53.833 -85.167 -56.5 -144.5zM105 355l-35.002 0.000976562c4 45.333 22.667 82.5 56 111.5s78 43.5 134 43.5c50 0 89.167 -13.5 117.5 -40.5
s47.5 -58.5 57.5 -94.5c10.667 34.667 33 65.834 67 93.501s75 41.5 123 41.5c61.333 0 113.333 -23 156 -69s64 -104.667 64 -176v-25h-405c3.33301 -67.333 21.833 -120 55.5 -158s76.834 -57 129.501 -57c36 0 70 9.33301 102 28s54.667 47.667 68 87h35
c-15.333 -48.667 -41 -85.834 -77 -111.501s-78.667 -38.5 -128 -38.5c-54.667 0 -100 17.667 -136 53s-57.333 72.666 -64 111.999c-6.66699 -40 -27.667 -77.5 -63 -112.5s-82.666 -52.5 -141.999 -52.5c-49.333 0 -88.333 13.167 -117 39.5s-43 59.833 -43 100.5
c0 44 15.667 79.167 47 105.5s77.333 39.5 138 39.5h160v50c0 48 -12.667 85 -38 111s-61 39 -107 39c-47.333 0 -83.5 -11 -108.5 -33s-40.5 -51 -46.5 -87zM404.998 230.001l0.000976562 10.001h-160c-50.667 0 -88.334 -9.83301 -113.001 -29.5s-37 -46.5 -37 -80.5
c0 -30.667 11.167 -55.834 33.5 -75.501s52.833 -29.5 91.5 -29.5c56.667 0 101.667 19.333 135 58s50 87.667 50 147zM429.999 590.002l80 115h40l-90 -115h-30z" />
    <glyph glyph-name="Oslashacute" unicode="&#x1fe;" horiz-adv-x="760" 
d="M155 -35l45 85c-25.333 17.333 -48.666 40.333 -69.999 69c-46.667 64 -70 141 -70 231c0 105.333 31 191.666 93 258.999s137.667 101 227 101c40 0 76.333 -6.66699 109 -20c14 -6 27.667 -12.667 41 -20l35 65h40l-45 -85c25.333 -17.333 48.666 -40.333 69.999 -69
c46.667 -64 70 -141 70 -231c0 -105.333 -31 -191.666 -93 -258.999s-137.667 -101 -227 -101c-40 0 -76.333 6.66699 -109 20c-14 6 -27.667 12.667 -41 20l-35 -65h-40zM543 620l-298 -560c12 -6.66699 25 -12.667 39 -18c30 -11.333 62 -17 96 -17
c80 0 147.5 30.333 202.5 91s82.5 138.667 82.5 234c0 79.333 -20.333 148 -61 206c-18 26 -38.333 47.333 -61 64zM215 80l300 559.999c-12 6.66699 -24.667 12.334 -38 17.001c-32 12 -64.333 18 -97 18c-80 0 -147.5 -30.333 -202.5 -91s-82.5 -138.667 -82.5 -234
c0 -80.667 20 -149.334 60 -206.001c16.667 -25.333 36.667 -46.666 60 -63.999zM360 784.999l80 115h40l-90 -115h-30z" />
    <glyph glyph-name="oslashacute" unicode="&#x1ff;" horiz-adv-x="550" 
d="M105 -35l37 70c-61.333 48 -92 119.667 -92 215c0 78 21.5 140.833 64.5 188.5s96.5 71.5 160.5 71.5c37.333 0 71.666 -8.66699 102.999 -26l27 51h40l-37 -71c61.333 -48 92 -119.333 92 -214c0 -78 -21.5 -140.833 -64.5 -188.5s-96.5 -71.5 -160.5 -71.5
c-37.333 0 -71.666 8.66699 -102.999 26l-27 -51h-40zM160 65l204.999 390c-5.33301 2.66699 -14 6 -26 10c-21.333 6.66699 -42.666 10 -63.999 10c-54 0 -99.167 -20.5 -135.5 -61.5s-54.5 -95.5 -54.5 -163.5c0 -54 12.333 -101 37 -141c11.333 -17.333 24 -32 38 -44z
M389.999 435l-204.999 -390c5.33301 -2.66699 14 -6 26 -10c21.333 -6.66699 42.666 -10 63.999 -10c54 0 99.167 20.5 135.5 61.5s54.5 95.5 54.5 163.5c0 52.667 -12.667 99.667 -38 141c-10.667 16 -23 30.667 -37 44zM260 590l80 115h40l-90 -115h-30z" />
    <glyph glyph-name="Scommaaccent" unicode="&#x218;" horiz-adv-x="615" 
d="M60 205h34.999c0 -49.333 20 -91.666 60 -126.999s91.667 -53 155 -53c64.667 0 115 14.833 151 44.5s54 66.5 54 110.5c0 39.333 -12 71 -36 95s-63.667 40.667 -119 50l-95 15c-126.667 19.333 -190 79.333 -190 180c0 54 20.5 99.167 61.5 135.5s95.5 54.5 163.5 54.5
c73.333 0 132.5 -20.5 177.5 -61.5s67.5 -92.167 67.5 -153.5h-35c0 51.333 -19 94.166 -57 128.499s-89 51.5 -153 51.5c-58 0 -104.167 -14.833 -138.5 -44.5s-51.5 -66.5 -51.5 -110.5c0 -39.333 12 -71.333 36 -96s63.667 -41 119 -49l95 -15
c126.667 -19.333 190 -79.333 190 -180c0 -54.667 -21.167 -100 -63.5 -136s-101.166 -54 -176.499 -54c-72.667 0 -132.5 21 -179.5 63s-70.5 92.667 -70.5 152zM254.999 -220l35 130h40l-50 -130h-25z" />
    <glyph glyph-name="scommaaccent" unicode="&#x219;" horiz-adv-x="460" 
d="M45 145l35.001 0.00195312c0 -32.667 13 -60.834 39 -84.501s61.333 -35.5 106 -35.5c48 0 85 10 111 30s39 45 39 75c0 26.667 -7.16699 46.834 -21.5 60.501s-37.166 23.5 -68.499 29.5l-100 20c-48 8.66699 -81.667 24 -101 46s-29 50 -29 84
c0 38.667 15.667 71.667 47 99s72.333 41 123 41c53.333 0 96.666 -15 129.999 -45s50 -66.667 50 -110h-35c0 33.333 -13.167 61.666 -39.5 84.999s-61.5 35 -105.5 35s-77.5 -9.66699 -100.5 -29s-34.5 -44.666 -34.5 -75.999c0 -26.667 6.83301 -47.334 20.5 -62.001
s38.5 -25.667 74.5 -33l100 -20c42.667 -8.66699 74.167 -22.834 94.5 -42.501s30.5 -47.167 30.5 -82.5c0 -39.333 -16.5 -72.5 -49.5 -99.5s-78.167 -40.5 -135.5 -40.5c-54.667 0 -98.334 15 -131.001 45s-49 66.667 -49 110zM175.001 -219.998l35 130h40l-50 -130h-25z
" />
    <glyph glyph-name="uni021A" unicode="&#x21a;" horiz-adv-x="595" 
d="M280 0v665h-250v35h535v-35h-250v-665h-35zM240 -220l35 130h40l-50 -130h-25z" />
    <glyph glyph-name="uni021B" unicode="&#x21b;" horiz-adv-x="335" 
d="M115 80v385h-80v35h80v140h35v-140h135v-35h-135v-385c0 -30 15 -45 45 -45h90v-35h-90c-25.333 0 -45 7 -59 21s-21 33.667 -21 59zM145 -220l35 130h40l-50 -130h-25z" />
    <glyph glyph-name="uni0232" unicode="&#x232;" horiz-adv-x="585" 
d="M275 0v260l-260 440h40l225 -385h25l225 385h40l-260 -440v-260h-35zM160 825v35h270v-35h-270z" />
    <glyph glyph-name="uni0233" unicode="&#x233;" horiz-adv-x="450" 
d="M60 -200v35h65c15.333 0 26.5 3 33.5 9s13.833 18 20.5 36l34 95l-198 525h36l170 -450h18l160 450h36l-230 -645c-14 -36.667 -40.667 -55 -80 -55h-65zM95 630v35h270v-35h-270z" />
    <glyph glyph-name="uni0244" unicode="&#x244;" horiz-adv-x="700" 
d="M90 275v170h-75v35h75v220h35v-220h450v220h35v-220h75v-35h-75v-170c0 -84 -24.833 -152.5 -74.5 -205.5s-111.5 -79.5 -185.5 -79.5s-135.833 26.5 -185.5 79.5s-74.5 121.5 -74.5 205.5zM125 445l0.00195312 -170c0 -73.333 21.667 -133.333 65 -180
s96.666 -70 159.999 -70s116.666 23.333 159.999 70s65 106.667 65 180v170h-450z" />
    <glyph glyph-name="uni0259" unicode="&#x259;" horiz-adv-x="550" 
d="M50 240v24.9971h415c-5.33301 64.667 -25.666 115.834 -60.999 153.501s-78.333 56.5 -129 56.5c-48 0 -86.333 -12.667 -115 -38s-47 -51 -55 -77h-35c3.33301 12.667 9.16602 26.334 17.499 41.001s20.166 30.834 35.499 48.501s36.333 32.167 63 43.5
s56.334 17 89.001 17c64 0 117.5 -23.833 160.5 -71.5s64.5 -110.5 64.5 -188.5c0 -78.667 -21.667 -141.667 -65 -189s-98.333 -71 -165 -71c-61.333 0 -113.333 23.333 -156 70s-64 106.667 -64 180zM465 229.997h-380c2.66699 -61.333 21.5 -110.833 56.5 -148.5
s77.833 -56.5 128.5 -56.5c53.333 0 98.5 18.833 135.5 56.5s56.833 87.167 59.5 148.5z" />
    <glyph glyph-name="uni0289" unicode="&#x289;" horiz-adv-x="580" 
d="M90 200v134.999h-65v35h65v130h35v-130h330v130h35v-130h65v-35h-65v-335h-25l-10 85h-5c-10 -18 -23 -34 -39 -48c-35.333 -31.333 -77.333 -47 -126 -47c-58 0 -105 18.833 -141 56.5s-54 88.834 -54 153.501zM125 334.999v-135c0 -52 15.167 -94.167 45.5 -126.5
s68.5 -48.5 114.5 -48.5c48 0 88.333 16.667 121 50s49 75 49 125v135h-330z" />
    <glyph glyph-name="uni02BC" unicode="&#x2bc;" horiz-adv-x="135" 
d="M30 570l35 130h40l-50 -130h-25z" />
    <glyph glyph-name="circumflex" unicode="&#x2c6;" horiz-adv-x="310" 
d="M30 600l105 115h40l105 -115h-40l-85 95l-85 -95h-40z" />
    <glyph glyph-name="caron" unicode="&#x2c7;" horiz-adv-x="310" 
d="M135 600l-105 115h40l85 -95l85 95h40l-105 -115h-40z" />
    <glyph glyph-name="breve" unicode="&#x2d8;" horiz-adv-x="310" 
d="M30 705h35c2.66699 -24 11.667 -43.333 27 -58s36.333 -22 63 -22s47.667 7.33301 63 22s24.333 34 27 58h35c-2.66699 -33.333 -15.5 -60.833 -38.5 -82.5s-51.833 -32.5 -86.5 -32.5s-63.5 10.833 -86.5 32.5s-35.833 49.167 -38.5 82.5z" />
    <glyph glyph-name="dotaccent" unicode="&#x2d9;" horiz-adv-x="105" 
d="M30 640v45h45v-45h-45z" />
    <glyph glyph-name="ring" unicode="&#x2da;" horiz-adv-x="220" 
d="M190 670c0 -22.667 -7.66699 -41.667 -23 -57s-34.333 -23 -57 -23s-41.667 7.66699 -57 23s-23 34.333 -23 57s7.66699 41.667 23 57s34.333 23 57 23s41.667 -7.66699 57 -23s23 -34.333 23 -57zM60 670c0 -15.333 4.5 -27.5 13.5 -36.5s21.167 -13.5 36.5 -13.5
s27.5 4.5 36.5 13.5s13.5 21.167 13.5 36.5s-4.5 27.5 -13.5 36.5s-21.167 13.5 -36.5 13.5s-27.5 -4.5 -36.5 -13.5s-13.5 -21.167 -13.5 -36.5z" />
    <glyph glyph-name="ogonek" unicode="&#x2db;" horiz-adv-x="155" 
d="M125 -150l-14.998 0.00195312c-53.333 0 -80 21.667 -80 65c0 39.333 20 67.666 60 84.999v10h35v-10c-20.667 -10.667 -35.834 -21.667 -45.501 -33s-14.5 -25.333 -14.5 -42c0 -14.667 4.16699 -25.834 12.5 -33.501s19.166 -11.5 32.499 -11.5h15v-30z" />
    <glyph glyph-name="tilde" unicode="&#x2dc;" horiz-adv-x="345" 
d="M65 605h-35c0 27.333 7.5 49.166 22.5 65.499s34.167 24.5 57.5 24.5c20 0 42.833 -9.16699 68.5 -27.5s44.5 -27.5 56.5 -27.5c12.667 0 23.334 5 32.001 15s13 23.333 13 40h35c0 -27.333 -7.5 -49.166 -22.5 -65.499s-34.167 -24.5 -57.5 -24.5
c-20 0 -42.833 9.16699 -68.5 27.5s-44.5 27.5 -56.5 27.5c-12.667 0 -23.334 -5 -32.001 -15s-13 -23.333 -13 -40z" />
    <glyph glyph-name="hungarumlaut" unicode="&#x2dd;" horiz-adv-x="300" 
d="M30 600l80 115h40l-90 -115h-30zM150 600l80 115h40l-90 -115h-30z" />
    <glyph glyph-name="acutecomb" unicode="&#x301;" horiz-adv-x="0" 
d="M-375 790l80 115h40l-90 -115h-30z" />
    <glyph glyph-name="uni0302" unicode="&#x302;" horiz-adv-x="0" 
d="M-485 790l110 115h40l110 -115h-40l-90 95l-90 -95h-40z" />
    <glyph glyph-name="uni0304" unicode="&#x304;" horiz-adv-x="0" 
d="M-490 825v35h270v-35h-270z" />
    <glyph glyph-name="uni0306" unicode="&#x306;" horiz-adv-x="0" 
d="M-475 900h35c2.66699 -24 11.667 -43.333 27 -58s36.333 -22 63 -22s47.667 7.33301 63 22s24.333 34 27 58h35c-2.66699 -33.333 -15.5 -60.833 -38.5 -82.5s-51.833 -32.5 -86.5 -32.5s-63.5 10.833 -86.5 32.5s-35.833 49.167 -38.5 82.5z" />
    <glyph glyph-name="uni0307" unicode="&#x307;" horiz-adv-x="0" 
d="M-375 835v45h45v-45h-45z" />
    <glyph glyph-name="uni0308" unicode="&#x308;" horiz-adv-x="0" 
d="M-295 835v45h45v-45h-45zM-465 835v45h45v-45h-45z" />
    <glyph glyph-name="uni030A" unicode="&#x30a;" horiz-adv-x="0" 
d="M-355 925c-15.333 0 -28 -5.16699 -38 -15.5s-15 -23.166 -15 -38.499c0 -14 5 -26 15 -36s22.667 -15 38 -15s28 5 38 15s15 22 15 36c0 15.333 -5 28.166 -15 38.499s-22.667 15.5 -38 15.5zM-355 955c23.333 0 43.333 -8.33301 60 -25s25 -36.334 25 -59.001
c0 -22 -8.16699 -41 -24.5 -57s-36.5 -24 -60.5 -24s-44.167 8 -60.5 24s-24.5 35 -24.5 57c0 22.667 8.33301 42.334 25 59.001s36.667 25 60 25z" />
    <glyph glyph-name="uni030C" unicode="&#x30c;" horiz-adv-x="0" 
d="M-375 790l-110 115h40l90 -95l90 95h40l-110 -115h-40z" />
    <glyph glyph-name="uni0326" unicode="&#x326;" horiz-adv-x="135" 
d="M30 -230l35 130h40l-50 -130h-25z" />
    <glyph glyph-name="uni0400" unicode="&#x400;" horiz-adv-x="600" 
d="M100 0v700h430v-35h-395v-295h375v-35h-375v-300h395v-35h-430zM310 785l-90 115h40l80 -115h-30z" />
    <glyph glyph-name="uni0401" unicode="&#x401;" horiz-adv-x="600" 
d="M100 0v700h430v-35h-395v-295h375v-35h-375v-300h395v-35h-430zM380 835v45h45v-45h-45zM210 835v45h45v-45h-45z" />
    <glyph glyph-name="uni0402" unicode="&#x402;" horiz-adv-x="690" 
d="M200 0l0.000976562 664.999h-195v35h425v-35h-195v-280c39.333 33.333 94.333 50 165 50c66.667 0 121.667 -20.667 165 -62s65 -92.333 65 -153c0 -62.667 -21.333 -115 -64 -157s-96.334 -63 -161.001 -63h-45v35h45c54.667 0 100 17.667 136 53s54 79.333 54 132
c0 50.667 -18.333 93.334 -55 128.001s-83.334 52 -140.001 52c-39.333 0 -73.166 -5.33301 -101.499 -16s-49.5 -22 -63.5 -34v-350h-35z" />
    <glyph glyph-name="uni0403" unicode="&#x403;" horiz-adv-x="530" 
d="M100 0v700h405v-35h-370v-665h-35zM285 785l80 115h40l-90 -115h-30z" />
    <glyph glyph-name="uni0404" unicode="&#x404;" horiz-adv-x="735" 
d="M95 370l375.001 0.000976562v-35h-375c2.66699 -92 31.5 -166.667 86.5 -224s121.167 -86 198.5 -86c68.667 0 126.5 21.167 173.5 63.5s77.5 89.5 91.5 141.5h40c-5.33301 -19.333 -13 -39.166 -23 -59.499s-23.667 -41.5 -41 -63.5s-37 -41.5 -59 -58.5
s-48.833 -31 -80.5 -42s-65.5 -16.5 -101.5 -16.5c-89.333 0 -165 33.667 -227 101s-93 153.666 -93 258.999s31 191.666 93 258.999s137.667 101 227 101c44.667 0 85.667 -8 123 -24s67.666 -36.833 90.999 -62.5s42 -51 56 -76s24 -49.167 30 -72.5h-35
c-14 50 -44.667 95.833 -92 137.5s-105 62.5 -173 62.5c-76 0 -141.5 -28.333 -196.5 -85s-84.5 -130 -88.5 -220z" />
    <glyph glyph-name="uni0405" unicode="&#x405;" horiz-adv-x="615" 
d="M60 205h34.999c0 -49.333 20 -91.666 60 -126.999s91.667 -53 155 -53c64.667 0 115 14.833 151 44.5s54 66.5 54 110.5c0 39.333 -12 71 -36 95s-63.667 40.667 -119 50l-95 15c-126.667 19.333 -190 79.333 -190 180c0 54 20.5 99.167 61.5 135.5s95.5 54.5 163.5 54.5
c73.333 0 132.5 -20.5 177.5 -61.5s67.5 -92.167 67.5 -153.5h-35c0 51.333 -19 94.166 -57 128.499s-89 51.5 -153 51.5c-58 0 -104.167 -14.833 -138.5 -44.5s-51.5 -66.5 -51.5 -110.5c0 -39.333 12 -71.333 36 -96s63.667 -41 119 -49l95 -15
c126.667 -19.333 190 -79.333 190 -180c0 -54.667 -21.167 -100 -63.5 -136s-101.166 -54 -176.499 -54c-72.667 0 -132.5 21 -179.5 63s-70.5 92.667 -70.5 152z" />
    <glyph glyph-name="uni0406" unicode="&#x406;" horiz-adv-x="235" 
d="M100 0v700h35v-700h-35z" />
    <glyph glyph-name="uni0407" unicode="&#x407;" horiz-adv-x="235" 
d="M100 0v700h35v-700h-35zM180 835v45h45v-45h-45zM10 835v45h45v-45h-45z" />
    <glyph glyph-name="uni0408" unicode="&#x408;" horiz-adv-x="395" 
d="M20 0v35h180c20 0 35.833 5.83301 47.5 17.5s17.5 27.5 17.5 47.5v600h35v-600c0 -66.667 -33.333 -100 -100 -100h-180z" />
    <glyph glyph-name="uni0409" unicode="&#x409;" horiz-adv-x="1035" 
d="M0 -5l0.000976562 35.001h25c30.667 0 54.167 8.16699 70.5 24.5s26.166 43.166 29.499 80.499l50 565h385v-295h220c57.333 0 105 -19 143 -57s57 -85.667 57 -143c0 -60 -18.833 -109.167 -56.5 -147.5s-85.5 -57.5 -143.5 -57.5h-255v665h-320l-45 -530
c-8 -93.333 -53 -140 -135 -140h-25zM560.001 35.001l219.999 0.000976562c48 0 87.5 15.833 118.5 47.5s46.5 72.5 46.5 122.5c0 47.333 -15.667 86.666 -47 117.999s-70.666 47 -117.999 47h-220v-335z" />
    <glyph glyph-name="uni040A" unicode="&#x40a;" horiz-adv-x="1045" 
d="M570 35h225c48 0 86.667 14.667 116 44s44 68 44 116s-14.667 86.667 -44 116s-68 44 -116 44h-225v-320zM100 0v699.998h35v-310h400v310h35v-310h225c57.333 0 104.166 -18.167 140.499 -54.5s54.5 -83.166 54.5 -140.499s-18.167 -104.166 -54.5 -140.499
s-83.166 -54.5 -140.499 -54.5h-260v355h-400v-355h-35z" />
    <glyph glyph-name="uni040B" unicode="&#x40b;" horiz-adv-x="710" 
d="M200 0l-0.000976562 665h-195v35h425v-35h-195v-280c39.333 33.333 94.333 50 165 50c67.333 0 120.833 -19.5 160.5 -58.5s59.5 -91.167 59.5 -156.5v-220h-35v220c0 56 -16.333 100 -49 132s-78 48 -136 48c-39.333 0 -73.166 -5.33301 -101.499 -16
s-49.5 -22 -63.5 -34v-350h-35z" />
    <glyph glyph-name="uni040C" unicode="&#x40c;" horiz-adv-x="565" 
d="M100 0v700h35v-331l345 331h50l-360 -345l380 -355h-50l-365 341v-341h-35zM280 785l80 115h40l-90 -115h-30z" />
    <glyph glyph-name="uni040D" unicode="&#x40d;" horiz-adv-x="725" 
d="M100 0v700h35v-665h20l395 665h75v-700h-35v665h-20l-395 -665h-75zM345 785l-90 115h40l80 -115h-30z" />
    <glyph glyph-name="uni040E" unicode="&#x40e;" horiz-adv-x="580" 
d="M100 0v35h80c28 0 46.333 10 55 30l45 100l-260 535h40l232 -480h15l213 480h40l-290 -645c-16.667 -36.667 -46.667 -55 -90 -55h-80zM170 900h35c2.66699 -24 11.667 -43.333 27 -58s36.333 -22 63 -22s47.667 7.33301 63 22s24.333 34 27 58h35
c-2.66699 -33.333 -15.5 -60.833 -38.5 -82.5s-51.833 -32.5 -86.5 -32.5s-63.5 10.833 -86.5 32.5s-35.833 49.167 -38.5 82.5z" />
    <glyph glyph-name="uni040F" unicode="&#x40f;" horiz-adv-x="715" 
d="M100 0v700h35v-665h445v665h35v-700h-240v-140h-35v140h-240z" />
    <glyph glyph-name="uni0410" unicode="&#x410;" horiz-adv-x="620" 
d="M15 0l265 700h60l265 -700h-35l-75 200h-370l-75 -200h-35zM139 235h342l-161 425h-20z" />
    <glyph glyph-name="uni0411" unicode="&#x411;" horiz-adv-x="635" 
d="M100 0v700h440v-35h-405v-265h245c58 0 105 -18.333 141 -55s54 -85 54 -145s-18 -108.333 -54 -145s-83 -55 -141 -55h-280zM135 35h245c48 0 86.667 15 116 45s44 70 44 120s-14.667 90 -44 120s-68 45 -116 45h-245v-330z" />
    <glyph glyph-name="uni0412" unicode="&#x412;" horiz-adv-x="635" 
d="M100 0v700.001h260c59.333 0 107.5 -17.5 144.5 -52.5s55.5 -79.167 55.5 -132.5c0 -49.333 -18.333 -91 -55 -125c-16 -14 -34.333 -25.667 -55 -35v-5c22.667 -6.66699 42.667 -17.334 60 -32.001c40 -30.667 60 -75 60 -133c0 -55.333 -18 -100 -54 -134
s-84.667 -51 -146 -51h-270zM135 370.001l224.998 0.000976562c48.667 0 88.334 14 119.001 42s46 62.333 46 103c0 43.333 -15.167 79.166 -45.5 107.499s-70.166 42.5 -119.499 42.5h-225v-295zM134.998 35.002h235c52 0 92.5 13.5 121.5 40.5s43.5 63.5 43.5 109.5
s-14.5 82.5 -43.5 109.5s-69.5 40.5 -121.5 40.5h-235v-300z" />
    <glyph glyph-name="uni0413" unicode="&#x413;" horiz-adv-x="530" 
d="M100 0v700h405v-35h-370v-665h-35z" />
    <glyph glyph-name="uni0414" unicode="&#x414;" horiz-adv-x="665" 
d="M0 -145v180.001c33.333 0 58.333 8.16699 75 24.5s26.667 43.166 30 80.499l50 560h395v-665h75v-180h-35v145h-555v-145h-35zM90 35.001l425.002 -0.000976562v630h-330l-45 -525c-1.33301 -17.333 -4 -32.666 -8 -45.999s-8.16699 -23.5 -12.5 -30.5
s-8.83301 -12.833 -13.5 -17.5s-8.33398 -7.66699 -11.001 -9s-4.33398 -2 -5.00098 -2z" />
    <glyph glyph-name="uni0415" unicode="&#x415;" horiz-adv-x="600" 
d="M100 0v700h430v-35h-395v-295h375v-35h-375v-300h395v-35h-430z" />
    <glyph glyph-name="uni0416" unicode="&#x416;" horiz-adv-x="795" 
d="M15 0l330 355l-310 345h45l300 -335v335h35v-335l300 335h45l-310 -345l330 -355h-45l-320 345v-345h-35v345l-320 -345h-45z" />
    <glyph glyph-name="uni0417" unicode="&#x417;" horiz-adv-x="590" 
d="M45 190l34.999 -0.000976562c0 -47.333 18.333 -86.666 55 -117.999s86.667 -47 150 -47s113.333 15.667 150 47s55 70.666 55 117.999c0 41.333 -15.667 75.833 -47 103.5s-72.333 41.5 -123 41.5h-85v35h85c46.667 0 84.167 13.167 112.5 39.5s42.5 59.833 42.5 100.5
c0 48.667 -17 88.334 -51 119.001s-80.333 46 -139 46s-105 -15.333 -139 -46s-51 -70.334 -51 -119.001h-35c0 58.667 20.333 106.667 61 144s95.334 56 164.001 56s123.334 -18.667 164.001 -56s61 -85.333 61 -144c0 -71.333 -36.667 -123 -110 -155v-5
c83.333 -31.333 125 -84.666 125 -159.999c0 -59.333 -21 -107.5 -63 -144.5s-101 -55.5 -177 -55.5c-74.667 0 -133.334 18.833 -176.001 56.5s-64 85.5 -64 143.5z" />
    <glyph glyph-name="uni0418" unicode="&#x418;" horiz-adv-x="725" 
d="M100 0v700h35v-665h20l395 665h75v-700h-35v665h-20l-395 -665h-75z" />
    <glyph glyph-name="uni0419" unicode="&#x419;" horiz-adv-x="725" 
d="M100 0v700h35v-665h20l395 665h75v-700h-35v665h-20l-395 -665h-75zM238 900h35c2.66699 -24 11.667 -43.333 27 -58s36.333 -22 63 -22s47.667 7.33301 63 22s24.333 34 27 58h35c-2.66699 -33.333 -15.5 -60.833 -38.5 -82.5s-51.833 -32.5 -86.5 -32.5
s-63.5 10.833 -86.5 32.5s-35.833 49.167 -38.5 82.5z" />
    <glyph glyph-name="uni041A" unicode="&#x41a;" horiz-adv-x="565" 
d="M100 0v700h35v-331l345 331h50l-360 -345l380 -355h-50l-365 341v-341h-35z" />
    <glyph glyph-name="uni041B" unicode="&#x41b;" horiz-adv-x="670" 
d="M0 -5l0.000976562 35.001h25c30.667 0 54.167 8.16699 70.5 24.5s26.166 43.166 29.499 80.499l50 565h395v-700h-35v665h-330l-45 -530c-8 -93.333 -53 -140 -135 -140h-25z" />
    <glyph glyph-name="uni041C" unicode="&#x41c;" horiz-adv-x="890" 
d="M100 0v700h80l255 -665h20l255 665h80v-700h-35v665h-20l-255 -665h-70l-255 665h-20v-665h-35z" />
    <glyph glyph-name="uni041D" unicode="&#x41d;" horiz-adv-x="725" 
d="M100 0v700h35v-325h455v325h35v-700h-35v340h-455v-340h-35z" />
    <glyph glyph-name="uni041E" unicode="&#x41e;" horiz-adv-x="760" 
d="M380 675c-80 0 -147.5 -30.333 -202.5 -91s-82.5 -138.667 -82.5 -234s27.5 -173.333 82.5 -234s122.5 -91 202.5 -91s147.5 30.333 202.5 91s82.5 138.667 82.5 234s-27.5 173.333 -82.5 234s-122.5 91 -202.5 91zM380 710c89.333 0 165 -33.667 227 -101
s93 -153.666 93 -258.999s-31 -191.666 -93 -258.999s-137.667 -101 -227 -101s-165 33.667 -227 101s-93 153.666 -93 258.999s31 191.666 93 258.999s137.667 101 227 101z" />
    <glyph glyph-name="uni041F" unicode="&#x41f;" horiz-adv-x="725" 
d="M100 0v700h525v-700h-35v665h-455v-665h-35z" />
    <glyph glyph-name="uni0420" unicode="&#x420;" horiz-adv-x="635" 
d="M100 0v700h265c65.333 0 116.666 -18.5 153.999 -55.5s56 -86.833 56 -149.5s-18.667 -112.5 -56 -149.5s-88.666 -55.5 -153.999 -55.5h-230v-290h-35zM135 325h230c55.333 0 98.333 15.167 129 45.5s46 71.833 46 124.5s-15.333 94.167 -46 124.5
s-73.667 45.5 -129 45.5h-230v-340z" />
    <glyph glyph-name="uni0421" unicode="&#x421;" horiz-adv-x="740" 
d="M650 230l40.001 0.000976562c-5.33301 -19.333 -13 -39.166 -23 -59.499s-23.667 -41.5 -41 -63.5s-37 -41.5 -59 -58.5s-48.833 -31 -80.5 -42s-65.5 -16.5 -101.5 -16.5c-89.333 0 -165 33.667 -227 101s-93 153.666 -93 258.999s31 191.666 93 258.999
s137.667 101 227 101c44.667 0 85.667 -8 123 -24s67.666 -36.833 90.999 -62.5s42 -51 56 -76s24 -49.167 30 -72.5h-35c-14 50 -44.667 95.833 -92 137.5s-105 62.5 -173 62.5c-80 0 -147.5 -30.333 -202.5 -91s-82.5 -138.667 -82.5 -234s27.5 -173.333 82.5 -234
s122.5 -91 202.5 -91c68.667 0 126.5 21.167 173.5 63.5s77.5 89.5 91.5 141.5z" />
    <glyph glyph-name="uni0422" unicode="&#x422;" horiz-adv-x="595" 
d="M280 0v665h-250v35h535v-35h-250v-665h-35z" />
    <glyph glyph-name="uni0423" unicode="&#x423;" horiz-adv-x="580" 
d="M100 0v35h80c28 0 46.333 10 55 30l45 100l-260 535h40l232 -480h15l213 480h40l-290 -645c-16.667 -36.667 -46.667 -55 -90 -55h-80z" />
    <glyph glyph-name="uni0424" unicode="&#x424;" horiz-adv-x="795" 
d="M355 125h25v470h-25c-84 0 -149.167 -21.333 -195.5 -64s-69.5 -99.667 -69.5 -171s23.167 -128.333 69.5 -171s111.5 -64 195.5 -64zM415 125h25c83.333 0 148.333 21.333 195 64s70 99.667 70 171s-23.333 128.333 -70 171s-111.667 64 -195 64h-25v-470zM380 -20v110
h-25c-93.333 0 -166.666 24.667 -219.999 74s-80 114.666 -80 195.999s26.667 146.666 80 195.999s126.666 74 219.999 74h25v90h35v-90h25c93.333 0 166.666 -24.667 219.999 -74s80 -114.666 80 -195.999s-26.667 -146.666 -80 -195.999s-126.666 -74 -219.999 -74h-25
v-110h-35z" />
    <glyph glyph-name="uni0425" unicode="&#x425;" horiz-adv-x="600" 
d="M20 0l243 360l-228 340h40l215 -320h20l215 320h40l-228 -340l243 -360h-40l-230 340h-20l-230 -340h-40z" />
    <glyph glyph-name="uni0426" unicode="&#x426;" horiz-adv-x="725" 
d="M100 0v700h35v-665h435v665h35v-665h80v-180h-35v145h-550z" />
    <glyph glyph-name="uni0427" unicode="&#x427;" horiz-adv-x="675" 
d="M540 0l0.000976562 324.999c-18.667 -14.667 -40 -28 -64 -40c-54.667 -26.667 -110 -40 -166 -40c-76 0 -132.5 19.333 -169.5 58s-55.5 99.334 -55.5 182.001v215h35v-215c0 -72 15.167 -124.167 45.5 -156.5s78.5 -48.5 144.5 -48.5c60.667 0 117 14 169 42
c23.333 12 43.666 26.333 60.999 43v335h35v-700h-35z" />
    <glyph glyph-name="uni0428" unicode="&#x428;" horiz-adv-x="955" 
d="M100 0v700h35v-665h325v665h35v-665h325v665h35v-700h-755z" />
    <glyph glyph-name="uni0429" unicode="&#x429;" horiz-adv-x="975" 
d="M100 0v700h35v-665h325v665h35v-665h325v665h35v-665h80v-180h-35v145h-800z" />
    <glyph glyph-name="uni042A" unicode="&#x42a;" horiz-adv-x="680" 
d="M170 0v660.001h-155v40h190v-275h210c62.667 0 113.334 -19.333 152.001 -58s58 -89.334 58 -152.001c0 -64.667 -19.333 -116.667 -58 -156s-89.334 -59 -152.001 -59h-245zM205 35.001l210 0.000976562c52.667 0 95 16.167 127 48.5s48 76.166 48 131.499
s-15.333 98.333 -46 129s-73.667 46 -129 46h-210v-355z" />
    <glyph glyph-name="uni042B" unicode="&#x42b;" horiz-adv-x="790" 
d="M655 0v700h35v-700h-35zM100 0v700.001h35v-275h205c62.667 0 113.334 -19.333 152.001 -58s58 -89.334 58 -152.001c0 -64.667 -19.333 -116.667 -58 -156s-89.334 -59 -152.001 -59h-240zM135 35.001l205 0.000976562c52.667 0 95 16.167 127 48.5
s48 76.166 48 131.499s-15.333 98.333 -46 129s-73.667 46 -129 46h-205v-355z" />
    <glyph glyph-name="uni042C" unicode="&#x42c;" horiz-adv-x="620" 
d="M100 0v700.001h35v-275h220c62.667 0 113.334 -19.333 152.001 -58s58 -89.334 58 -152.001c0 -64.667 -19.333 -116.667 -58 -156s-89.334 -59 -152.001 -59h-255zM135 35.001l220 0.000976562c52.667 0 95 16.167 127 48.5s48 76.166 48 131.499
s-15.333 98.333 -46 129s-73.667 46 -129 46h-220v-355z" />
    <glyph glyph-name="uni042D" unicode="&#x42d;" horiz-adv-x="735" 
d="M50 230h39.999c14 -52 44.5 -99.167 91.5 -141.5s104.833 -63.5 173.5 -63.5c76.667 0 142.667 29 198 87s84.333 132.333 87 223h-380v35h380c-5.33301 91.333 -35 165 -89 221s-119.333 84 -196 84c-68 0 -125.667 -20.833 -173 -62.5s-78 -87.5 -92 -137.5h-35
c4.66699 23.333 14.167 47.666 28.5 72.999s33.333 50.5 57 75.5s54.334 45.667 92.001 62s78.5 24.5 122.5 24.5c89.333 0 165 -33.667 227 -101s93 -153.666 93 -258.999s-31 -191.666 -93 -258.999s-137.667 -101 -227 -101c-36 0 -69.833 5.5 -101.5 16.5
s-58.5 25 -80.5 42s-41.667 36.5 -59 58.5s-31 43.167 -41 63.5s-17.667 40.166 -23 59.499z" />
    <glyph glyph-name="uni042E" unicode="&#x42e;" horiz-adv-x="935" 
d="M565 675c-80 0 -145.833 -29.167 -197.5 -87.5s-77.5 -137.5 -77.5 -237.5s25.833 -179.167 77.5 -237.5s117.5 -87.5 197.5 -87.5s145.833 29.167 197.5 87.5s77.5 137.5 77.5 237.5s-25.833 179.167 -77.5 237.5s-117.5 87.5 -197.5 87.5zM100 0v699.999h35v-330h121
c4 102.667 35.333 185 94 247s130.334 93 215.001 93c88 0 161.667 -33.167 221 -99.5s89 -153.166 89 -260.499s-29.667 -194.166 -89 -260.499s-133 -99.5 -221 -99.5c-84.667 0 -156.334 31.167 -215.001 93.5s-90 146.166 -94 251.499h-121v-335h-35z" />
    <glyph glyph-name="uni042F" unicode="&#x42f;" horiz-adv-x="640" 
d="M50 0l280 280h-60c-60 0 -109.167 19.5 -147.5 58.5s-57.5 89.5 -57.5 151.5s19.167 112.5 57.5 151.5s87.5 58.5 147.5 58.5h270v-700h-35v280h-130l-280 -280h-45zM270 315h235v350h-235c-50 0 -90.833 -16.167 -122.5 -48.5s-47.5 -74.5 -47.5 -126.5
s15.833 -94.167 47.5 -126.5s72.5 -48.5 122.5 -48.5z" />
    <glyph glyph-name="uni0430" unicode="&#x430;" horiz-adv-x="525" 
d="M440 0l-24.998 -0.00195312c-1.33301 10.667 -2.33301 27.334 -3 50.001s-1.33398 39.334 -2.00098 50.001h-5c-38.667 -73.333 -100.334 -110 -185.001 -110c-49.333 0 -88.333 13.333 -117 40s-43 61.667 -43 105c0 46.667 16.167 84.167 48.5 112.5
s77.833 42.5 136.5 42.5h160v35c0 48 -12.667 85 -38 111s-61 39 -107 39c-42.667 0 -77 -10.5 -103 -31.5s-41.667 -50.5 -47 -88.5h-35c6 47.333 24.833 85 56.5 113s74.5 42 128.5 42c56 0 100 -16.333 132 -49s48 -78 48 -136v-325zM405.002 224.998l0.000976562 30.001
h-160c-48.667 0 -85.834 -10.833 -111.501 -32.5s-38.5 -50.834 -38.5 -87.501c0 -33.333 11 -60 33 -80s52.667 -30 92 -30c55.333 0 100 18 134 54s51 84.667 51 146z" />
    <glyph glyph-name="uni0431" unicode="&#x431;" 
d="M55 230l-0.000976562 15.0039c0 92.667 9.66699 165.667 29 219s51.333 93.666 96 120.999c36 22 94.333 38.667 175 50c30 5.33301 50 14.166 60 26.499s15 33.5 15 63.5h35c0 -41.333 -8.5 -71.333 -25.5 -90s-43.5 -30.334 -79.5 -35.001
c-75.333 -10.667 -128.666 -25.667 -159.999 -45c-32 -20 -55.5 -44.833 -70.5 -74.5s-26.5 -73.167 -34.5 -130.5h5c12.667 24 34.667 46.667 66 68s69.333 32 114 32c60.667 0 111.667 -21.667 153 -65s62 -98.333 62 -165s-21 -121.667 -63 -165s-94.333 -65 -157 -65
c-63.333 0 -115.833 22.167 -157.5 66.5s-62.5 102.166 -62.5 173.499zM274.999 415.004c-52.667 0 -96.667 -18.333 -132 -55s-53 -83.334 -53 -140.001s17.667 -103.334 53 -140.001s79.333 -55 132 -55s96.667 18.333 132 55s53 83.334 53 140.001
s-17.667 103.334 -53 140.001s-79.333 55 -132 55z" />
    <glyph glyph-name="uni0432" unicode="&#x432;" horiz-adv-x="520" 
d="M90 0v499.998h235c40 0 72.5 -12.5 97.5 -37.5s37.5 -57.5 37.5 -97.5c0 -33.333 -11 -61.666 -33 -84.999c-8 -10 -18.667 -18.333 -32 -25v-5c14.667 -6.66699 27 -14.667 37 -24c25.333 -25.333 38 -55.666 38 -90.999c0 -40 -12.5 -72.5 -37.5 -97.5
s-57.5 -37.5 -97.5 -37.5h-245zM125 269.998h200c30 0 54.167 8.83301 72.5 26.5s27.5 40.5 27.5 68.5c0 30 -9.16699 54.167 -27.5 72.5s-42.5 27.5 -72.5 27.5h-200v-195zM125 34.998h210c30 0 54.167 9.16699 72.5 27.5s27.5 42.5 27.5 72.5s-9.16699 54.167 -27.5 72.5
s-42.5 27.5 -72.5 27.5h-210v-200z" />
    <glyph glyph-name="uni0433" unicode="&#x433;" horiz-adv-x="400" 
d="M90 0v500h290v-35h-255v-465h-35z" />
    <glyph glyph-name="uni0434" unicode="&#x434;" horiz-adv-x="520" 
d="M0 -120v155c52 0 80.333 28.333 85 85l30 380h305v-465h75v-155h-35v120h-425v-120h-35zM75 35l310 0.000976562v430h-240l-25 -345c-2.66699 -32.667 -10.667 -56.334 -24 -71.001c-7.33301 -7.33301 -14.333 -12 -21 -14z" />
    <glyph glyph-name="uni0435" unicode="&#x435;" horiz-adv-x="550" 
d="M445 140l35 0.00292969c-3.33301 -12.667 -9.16602 -26.334 -17.499 -41.001s-20.166 -30.834 -35.499 -48.501s-36.333 -32.167 -63 -43.5s-56.334 -17 -89.001 -17c-64 0 -117.5 23.833 -160.5 71.5s-64.5 110.5 -64.5 188.5c0 78.667 21.667 141.667 65 189
s98.333 71 165 71c61.333 0 113.333 -23.333 156 -70s64 -106.667 64 -180v-25h-415c5.33301 -64.667 25.666 -115.834 60.999 -153.501s78.333 -56.5 129 -56.5c48 0 86.333 12.667 115 38s47 51 55 77zM85 270.003h380c-2.66699 61.333 -21.5 110.833 -56.5 148.5
s-77.833 56.5 -128.5 56.5c-53.333 0 -98.5 -18.833 -135.5 -56.5s-56.833 -87.167 -59.5 -148.5z" />
    <glyph glyph-name="uni0436" unicode="&#x436;" horiz-adv-x="615" 
d="M5 0l250 255l-235 245h45l225 -235v235h35v-235l225 235h45l-235 -245l250 -255h-45l-240 245v-245h-35v245l-240 -245h-45z" />
    <glyph glyph-name="uni0437" unicode="&#x437;" horiz-adv-x="455" 
d="M45 155l35 -0.00292969c0 -38.667 13 -70 39 -94s61.333 -36 106 -36c46 0 81.667 10.5 107 31.5s38 47.167 38 78.5c0 29.333 -12 53.333 -36 72s-58.667 28 -104 28h-45v35h50c39.333 0 70 9.83301 92 29.5s33 44.834 33 75.501c0 29.333 -11.5 53.333 -34.5 72
s-56.5 28 -100.5 28c-39.333 0 -71.666 -12 -96.999 -36s-38 -53.667 -38 -89h-35c0 45.333 16 83.333 48 114s72.667 46 122 46c53.333 0 95 -12.667 125 -38s45 -57.666 45 -96.999c0 -56.667 -26.667 -96.667 -80 -120v-5c19.333 -4.66699 39.166 -16.667 59.499 -36
s30.5 -45.666 30.5 -78.999c0 -41.333 -16 -75.833 -48 -103.5s-76 -41.5 -132 -41.5c-54 0 -97.5 15.5 -130.5 46.5s-49.5 70.5 -49.5 118.5z" />
    <glyph glyph-name="uni0438" unicode="&#x438;" horiz-adv-x="565" 
d="M90 0v500h35v-465h20l255 465h75v-500h-35v465h-20l-255 -465h-75z" />
    <glyph glyph-name="uni0439" unicode="&#x439;" horiz-adv-x="565" 
d="M90 0v500h35v-465h20l255 465h75v-500h-35v465h-20l-255 -465h-75zM160 705h35c2.66699 -24 11.667 -43.333 27 -58s36.333 -22 63 -22s47.667 7.33301 63 22s24.333 34 27 58h35c-2.66699 -33.333 -15.5 -60.833 -38.5 -82.5s-51.833 -32.5 -86.5 -32.5
s-63.5 10.833 -86.5 32.5s-35.833 49.167 -38.5 82.5z" />
    <glyph glyph-name="uni043A" unicode="&#x43a;" horiz-adv-x="465" 
d="M90 0v500h35v-233l275 233h50l-290 -245l300 -255h-50l-285 243v-243h-35z" />
    <glyph glyph-name="uni043B" unicode="&#x43b;" horiz-adv-x="535" 
d="M0 -5l-0.000976562 35h25c52 0 80.333 31.667 85 95l30 375h305v-500h-35v465h-239l-26 -340c-3.33301 -45.333 -14.666 -78.333 -33.999 -99s-48 -31 -86 -31h-25z" />
    <glyph glyph-name="uni043C" unicode="&#x43c;" horiz-adv-x="720" 
d="M90 0v500h80l180 -465h20l180 465h80v-500h-35v465h-20l-180 -465h-70l-180 465h-20v-465h-35z" />
    <glyph glyph-name="uni043D" unicode="&#x43d;" horiz-adv-x="570" 
d="M90 0v500h35v-235h320v235h35v-500h-35v230h-320v-230h-35z" />
    <glyph glyph-name="uni043E" unicode="&#x43e;" horiz-adv-x="550" 
d="M275 475c-54 0 -99.167 -20.5 -135.5 -61.5s-54.5 -95.5 -54.5 -163.5s18.167 -122.5 54.5 -163.5s81.5 -61.5 135.5 -61.5s99.167 20.5 135.5 61.5s54.5 95.5 54.5 163.5s-18.167 122.5 -54.5 163.5s-81.5 61.5 -135.5 61.5zM275 510c64 0 117.5 -23.833 160.5 -71.5
s64.5 -110.5 64.5 -188.5s-21.5 -140.833 -64.5 -188.5s-96.5 -71.5 -160.5 -71.5s-117.5 23.833 -160.5 71.5s-64.5 110.5 -64.5 188.5s21.5 140.833 64.5 188.5s96.5 71.5 160.5 71.5z" />
    <glyph glyph-name="uni043F" unicode="&#x43f;" horiz-adv-x="570" 
d="M90 0v500h390v-500h-35v465h-320v-465h-35z" />
    <glyph glyph-name="uni0440" unicode="&#x440;" horiz-adv-x="580" 
d="M90 -200v700h25l10 -110h5c11.333 22 26 42 44 60c40 40 87 60 141 60c59.333 0 110 -24 152 -72s63 -110.667 63 -188s-21 -140 -63 -188s-92.667 -72 -152 -72c-54 0 -101 20 -141 60c-18 18 -32.667 38 -44 60h-5v-310h-35zM310 25c52 0 95.833 20.5 131.5 61.5
s53.5 95.5 53.5 163.5s-17.833 122.5 -53.5 163.5s-79.5 61.5 -131.5 61.5s-95.833 -20.5 -131.5 -61.5s-53.5 -95.5 -53.5 -163.5s17.833 -122.5 53.5 -163.5s79.5 -61.5 131.5 -61.5z" />
    <glyph glyph-name="uni0441" unicode="&#x441;" horiz-adv-x="530" 
d="M450 165h35.0029c-2.66699 -16 -8.66699 -33 -18 -51s-22 -36.833 -38 -56.5s-37.5 -35.834 -64.5 -48.501s-56.833 -19 -89.5 -19c-64 0 -117.5 23.833 -160.5 71.5s-64.5 110.5 -64.5 188.5s21.5 140.833 64.5 188.5s96.5 71.5 160.5 71.5
c32.667 0 62.5 -6.33301 89.5 -19s48.5 -28.5 64.5 -47.5s28.5 -37.167 37.5 -54.5s15.167 -33.666 18.5 -48.999h-35c-10.667 34 -30.334 65 -59.001 93s-67.334 42 -116.001 42c-54 0 -99.167 -20.5 -135.5 -61.5s-54.5 -95.5 -54.5 -163.5s18.167 -122.5 54.5 -163.5
s81.5 -61.5 135.5 -61.5c49.333 0 88.166 14.333 116.499 43s47.833 61 58.5 97z" />
    <glyph glyph-name="uni0442" unicode="&#x442;" horiz-adv-x="425" 
d="M195 0v465h-175v35h385v-35h-175v-465h-35z" />
    <glyph glyph-name="uni0443" unicode="&#x443;" horiz-adv-x="450" 
d="M60 -200v35h65c15.333 0 26.5 3 33.5 9s13.833 18 20.5 36l34 95l-198 525h36l170 -450h18l160 450h36l-230 -645c-14 -36.667 -40.667 -55 -80 -55h-65z" />
    <glyph glyph-name="uni0444" unicode="&#x444;" horiz-adv-x="685" 
d="M300 35h25v430h-25c-65.333 0 -117.5 -19.5 -156.5 -58.5s-58.5 -91.167 -58.5 -156.5s19.5 -117.5 58.5 -156.5s91.167 -58.5 156.5 -58.5zM360 35h25c64.667 0 116.667 19.5 156 58.5s59 91.167 59 156.5s-19.667 117.5 -59 156.5s-91.333 58.5 -156 58.5h-25v-430z
M325 -200v200h-25c-74.667 0 -135 23 -181 69s-69 106.333 -69 181s23 135 69 181s106.333 69 181 69h25v200h35v-200h25c74.667 0 135 -23 181 -69s69 -106.333 69 -181s-23 -135 -69 -181s-106.333 -69 -181 -69h-25v-200h-35z" />
    <glyph glyph-name="uni0445" unicode="&#x445;" horiz-adv-x="440" 
d="M15 0l169 255l-164 245h40l150 -225h20l150 225h40l-164 -245l169 -255h-40l-155 235h-20l-155 -235h-40z" />
    <glyph glyph-name="uni0446" unicode="&#x446;" horiz-adv-x="570" 
d="M90 0v500h35v-465h310v465h35v-465h75v-155h-35v120h-420z" />
    <glyph glyph-name="uni0447" unicode="&#x447;" horiz-adv-x="535" 
d="M410 0v215c-43.333 -30 -95 -45 -155 -45c-120 0 -180 58.333 -180 175v155h35v-155c0 -48 11.667 -83.333 35 -106s60 -34 110 -34c70 0 121.667 16.667 155 50v245h35v-500h-35z" />
    <glyph glyph-name="uni0448" unicode="&#x448;" horiz-adv-x="785" 
d="M90 0v500h35v-465h250v465h35v-465h250v465h35v-500h-605z" />
    <glyph glyph-name="uni0449" unicode="&#x449;" horiz-adv-x="795" 
d="M90 0v500h35v-465h250v465h35v-465h250v465h35v-465h75v-155h-35v120h-645z" />
    <glyph glyph-name="uni044A" unicode="&#x44a;" horiz-adv-x="545" 
d="M140 0v465h-125v35h160v-185h160c51.333 0 92.5 -14.333 123.5 -43s46.5 -66 46.5 -112c0 -48.667 -15.333 -87.5 -46 -116.5s-72 -43.5 -124 -43.5h-195zM175 35h160c42 0 75 11.333 99 34s36 53 36 91c0 36 -12 65 -36 87s-57 33 -99 33h-160v-245z" />
    <glyph glyph-name="uni044B" unicode="&#x44b;" horiz-adv-x="660" 
d="M535 0v500h35v-500h-35zM90 0v500h35v-185h150c51.333 0 92.5 -14.333 123.5 -43s46.5 -66 46.5 -112c0 -48.667 -15.333 -87.5 -46 -116.5s-72 -43.5 -124 -43.5h-185zM125 35h150c42 0 75 11.333 99 34s36 53 36 91c0 36 -12 65 -36 87s-57 33 -99 33h-150v-245z" />
    <glyph glyph-name="uni044C" unicode="&#x44c;" horiz-adv-x="505" 
d="M90 0v500h35v-185h170c51.333 0 92.5 -14.333 123.5 -43s46.5 -66 46.5 -112c0 -48.667 -15.333 -87.5 -46 -116.5s-72 -43.5 -124 -43.5h-205zM125 35h170c42 0 75 11.333 99 34s36 53 36 91c0 36 -12 65 -36 87s-57 33 -99 33h-170v-245z" />
    <glyph glyph-name="uni044D" unicode="&#x44d;" horiz-adv-x="530" 
d="M45 165h35c10.667 -36 30.167 -68.333 58.5 -97s67.166 -43 116.499 -43c52.667 0 96.834 19.167 132.501 57.5s54.834 87.5 57.501 147.5h-245v35h245c-2.66699 64 -22.167 115 -58.5 153s-80.166 57 -131.499 57c-48.667 0 -87.334 -14 -116.001 -42
s-48.334 -59 -59.001 -93h-35c3.33301 15.333 9.5 31.666 18.5 48.999s21.5 35.5 37.5 54.5s37.5 34.833 64.5 47.5s56.833 19 89.5 19c64 0 117.5 -23.833 160.5 -71.5s64.5 -110.5 64.5 -188.5s-21.5 -140.833 -64.5 -188.5s-96.5 -71.5 -160.5 -71.5
c-32.667 0 -62.5 6.33301 -89.5 19s-48.5 28.834 -64.5 48.501s-28.667 38.5 -38 56.5s-15.333 35 -18 51z" />
    <glyph glyph-name="uni044E" unicode="&#x44e;" horiz-adv-x="710" 
d="M445 475c-49.333 0 -91.666 -20.667 -126.999 -62s-53 -95.666 -53 -162.999s17.667 -121.666 53 -162.999s77.666 -62 126.999 -62s91.666 20.667 126.999 62s53 95.666 53 162.999s-17.667 121.666 -53 162.999s-77.666 62 -126.999 62zM90 0l0.000976562 499.999h35
v-235h105c2.66699 71.333 24.5 130 65.5 176s90.833 69 149.5 69c59.333 0 110 -24 152 -72s63 -110.667 63 -188s-21 -140 -63 -188s-92.667 -72 -152 -72c-56.667 0 -105.334 21.833 -146.001 65.5s-63.667 101.834 -69 174.501h-105v-230h-35z" />
    <glyph glyph-name="uni044F" unicode="&#x44f;" horiz-adv-x="510" 
d="M40 0l190 190h-20c-48 0 -86.667 14.333 -116 43s-44 66 -44 112s14.667 83.333 44 112s68 43 116 43h210v-500h-35v190h-110l-190 -190h-45zM210 225h175v240h-175c-38 0 -68.333 -11 -91 -33s-34 -51 -34 -87s11.333 -65 34 -87s53 -33 91 -33z" />
    <glyph glyph-name="uni0450" unicode="&#x450;" horiz-adv-x="550" 
d="M445 140l35 0.00292969c-3.33301 -12.667 -9.16602 -26.334 -17.499 -41.001s-20.166 -30.834 -35.499 -48.501s-36.333 -32.167 -63 -43.5s-56.334 -17 -89.001 -17c-64 0 -117.5 23.833 -160.5 71.5s-64.5 110.5 -64.5 188.5c0 78.667 21.667 141.667 65 189
s98.333 71 165 71c61.333 0 113.333 -23.333 156 -70s64 -106.667 64 -180v-25h-415c5.33301 -64.667 25.666 -115.834 60.999 -153.501s78.333 -56.5 129 -56.5c48 0 86.333 12.667 115 38s47 51 55 77zM85 270.003h380c-2.66699 61.333 -21.5 110.833 -56.5 148.5
s-77.833 56.5 -128.5 56.5c-53.333 0 -98.5 -18.833 -135.5 -56.5s-56.833 -87.167 -59.5 -148.5zM265 590.003l-90 115h40l80 -115h-30z" />
    <glyph glyph-name="uni0451" unicode="&#x451;" horiz-adv-x="550" 
d="M445 140l35 0.00292969c-3.33301 -12.667 -9.16602 -26.334 -17.499 -41.001s-20.166 -30.834 -35.499 -48.501s-36.333 -32.167 -63 -43.5s-56.334 -17 -89.001 -17c-64 0 -117.5 23.833 -160.5 71.5s-64.5 110.5 -64.5 188.5c0 78.667 21.667 141.667 65 189
s98.333 71 165 71c61.333 0 113.333 -23.333 156 -70s64 -106.667 64 -180v-25h-415c5.33301 -64.667 25.666 -115.834 60.999 -153.501s78.333 -56.5 129 -56.5c48 0 86.333 12.667 115 38s47 51 55 77zM85 270.003h380c-2.66699 61.333 -21.5 110.833 -56.5 148.5
s-77.833 56.5 -128.5 56.5c-53.333 0 -98.5 -18.833 -135.5 -56.5s-56.833 -87.167 -59.5 -148.5zM340 640.003v45h45v-45h-45zM170 640.003v45h45v-45h-45z" />
    <glyph glyph-name="uni0452" unicode="&#x452;" horiz-adv-x="580" 
d="M100 0v570h-95v35h95v95h35v-95h185v-35h-185v-220h5c8 16.667 20.333 33.334 37 50.001c36 33.333 78.667 50 128 50c58 0 105 -18.833 141 -56.5s54 -88.834 54 -153.501v-310c0 -40 -11.667 -71.667 -35 -95s-55 -35 -95 -35h-55v35h55c30 0 53.333 8.33301 70 25
s25 40 25 70v310c0 52 -15.167 94.167 -45.5 126.5s-68.5 48.5 -114.5 48.5c-48 0 -88.333 -16.667 -121 -50s-49 -75 -49 -125v-240h-35z" />
    <glyph glyph-name="uni0453" unicode="&#x453;" horiz-adv-x="400" 
d="M90 0v500h290v-35h-255v-465h-35zM220 590l80 115h40l-90 -115h-30z" />
    <glyph glyph-name="uni0454" unicode="&#x454;" horiz-adv-x="530" 
d="M85 265h245.002v-35h-245c5.33301 -64 25.5 -114.167 60.5 -150.5s78.167 -54.5 129.5 -54.5c49.333 0 88.166 14.333 116.499 43s47.833 61 58.5 97h35c-2.66699 -16 -8.66699 -33 -18 -51s-22 -36.833 -38 -56.5s-37.5 -35.834 -64.5 -48.501s-56.833 -19 -89.5 -19
c-64 0 -117.5 23.833 -160.5 71.5s-64.5 110.5 -64.5 188.5s21.5 140.833 64.5 188.5s96.5 71.5 160.5 71.5c32.667 0 62.5 -6.33301 89.5 -19s48.5 -28.5 64.5 -47.5s28.5 -37.167 37.5 -54.5s15.167 -33.666 18.5 -48.999h-35c-10.667 34 -30.334 65 -59.001 93
s-67.334 42 -116.001 42c-51.333 0 -95.166 -19 -131.499 -57s-55.833 -89 -58.5 -153z" />
    <glyph glyph-name="uni0455" unicode="&#x455;" horiz-adv-x="460" 
d="M45 145l35.001 0.00195312c0 -32.667 13 -60.834 39 -84.501s61.333 -35.5 106 -35.5c48 0 85 10 111 30s39 45 39 75c0 26.667 -7.16699 46.834 -21.5 60.501s-37.166 23.5 -68.499 29.5l-100 20c-48 8.66699 -81.667 24 -101 46s-29 50 -29 84
c0 38.667 15.667 71.667 47 99s72.333 41 123 41c53.333 0 96.666 -15 129.999 -45s50 -66.667 50 -110h-35c0 33.333 -13.167 61.666 -39.5 84.999s-61.5 35 -105.5 35s-77.5 -9.66699 -100.5 -29s-34.5 -44.666 -34.5 -75.999c0 -26.667 6.83301 -47.334 20.5 -62.001
s38.5 -25.667 74.5 -33l100 -20c42.667 -8.66699 74.167 -22.834 94.5 -42.501s30.5 -47.167 30.5 -82.5c0 -39.333 -16.5 -72.5 -49.5 -99.5s-78.167 -40.5 -135.5 -40.5c-54.667 0 -98.334 15 -131.001 45s-49 66.667 -49 110z" />
    <glyph glyph-name="uni0456" unicode="&#x456;" horiz-adv-x="215" 
d="M90 0v500h35v-500h-35zM85 640v45h45v-45h-45z" />
    <glyph glyph-name="uni0457" unicode="&#x457;" horiz-adv-x="215" 
d="M90 0v500h35v-500h-35zM170 640v45h45v-45h-45zM0 640v45h45v-45h-45z" />
    <glyph glyph-name="uni0458" unicode="&#x458;" horiz-adv-x="215" 
d="M85 640v45h45v-45h-45zM-35 -200v35h80c30 0 45 15 45 45v620h35v-620c0 -25.333 -7 -45 -21 -59s-33.667 -21 -59 -21h-80z" />
    <glyph glyph-name="uni0459" unicode="&#x459;" horiz-adv-x="780" 
d="M435 35h155c35.333 0 63.333 10.167 84 30.5s31 46.833 31 79.5s-10.333 59.167 -31 79.5s-48.667 30.5 -84 30.5h-155v-220zM0 -5l-0.000976562 35h25c52 0 80.333 31.667 85 95l30 375h295v-210h155c45.333 0 81.666 -13.5 108.999 -40.5s41 -61.833 41 -104.5
s-13.667 -77.5 -41 -104.5s-63.666 -40.5 -108.999 -40.5h-190v465h-229l-26 -340c-3.33301 -45.333 -14.666 -78.333 -33.999 -99s-48 -31 -86 -31h-25z" />
    <glyph glyph-name="uni045A" unicode="&#x45a;" horiz-adv-x="800" 
d="M455 35h155c35.333 0 63.333 10.167 84 30.5s31 46.833 31 79.5s-10.333 59.167 -31 79.5s-48.667 30.5 -84 30.5h-155v-220zM90 0v500h35v-210h295v210h35v-210h155c45.333 0 81.666 -13.5 108.999 -40.5s41 -61.833 41 -104.5s-13.667 -77.5 -41 -104.5
s-63.666 -40.5 -108.999 -40.5h-190v255h-295v-255h-35z" />
    <glyph glyph-name="uni045B" unicode="&#x45b;" horiz-adv-x="580" 
d="M100 0v570h-95v35h95v95h35v-95h185v-35h-185v-220h5c8 16.667 20.333 33.334 37 50.001c36 33.333 78.667 50 128 50c58 0 105 -18.833 141 -56.5s54 -88.834 54 -153.501v-240h-35v240c0 52 -15.167 94.167 -45.5 126.5s-68.5 48.5 -114.5 48.5
c-48 0 -88.333 -16.667 -121 -50s-49 -75 -49 -125v-240h-35z" />
    <glyph glyph-name="uni045C" unicode="&#x45c;" horiz-adv-x="465" 
d="M90 0v500h35v-233l275 233h50l-290 -245l300 -255h-50l-285 243v-243h-35zM235 590l80 115h40l-90 -115h-30z" />
    <glyph glyph-name="uni045D" unicode="&#x45d;" horiz-adv-x="565" 
d="M90 0v500h35v-465h20l255 465h75v-500h-35v465h-20l-255 -465h-75zM265 590l-90 115h40l80 -115h-30z" />
    <glyph glyph-name="uni045E" unicode="&#x45e;" horiz-adv-x="450" 
d="M60 -200v35h65c15.333 0 26.5 3 33.5 9s13.833 18 20.5 36l34 95l-198 525h36l170 -450h18l160 450h36l-230 -645c-14 -36.667 -40.667 -55 -80 -55h-65zM105 705h35c2.66699 -24 11.667 -43.333 27 -58s36.333 -22 63 -22s47.667 7.33301 63 22s24.333 34 27 58h35
c-2.66699 -33.333 -15.5 -60.833 -38.5 -82.5s-51.833 -32.5 -86.5 -32.5s-63.5 10.833 -86.5 32.5s-35.833 49.167 -38.5 82.5z" />
    <glyph glyph-name="uni045F" unicode="&#x45f;" horiz-adv-x="560" 
d="M90 0v500h35v-465h310v465h35v-500h-170v-120h-35v120h-175z" />
    <glyph glyph-name="uni0462" unicode="&#x462;" horiz-adv-x="660" 
d="M150 0v554.999h-150v35h150v110h35v-110h190v-35h-190v-160h215c59.333 0 108.333 -18.667 147 -56s58 -83.666 58 -138.999c0 -58 -19.167 -105.833 -57.5 -143.5s-87.5 -56.5 -147.5 -56.5h-250zM185 34.999h215c50 0 90.833 15.5 122.5 46.5s47.5 70.5 47.5 118.5
c0 45.333 -16 83.333 -48 114s-72.667 46 -122 46h-215v-325z" />
    <glyph glyph-name="uni0463" unicode="&#x463;" horiz-adv-x="525" 
d="M120 0v465h-115v35h115v199h35v-199h145v-35h-145v-150h170c48 0 86.667 -14.333 116 -43s44 -66 44 -112c0 -48 -14.667 -86.667 -44 -116s-68 -44 -116 -44h-205zM155 35h170c38 0 68.333 11.333 91 34s34 53 34 91c0 36 -11.333 65 -34 87s-53 33 -91 33h-170v-245z
" />
    <glyph glyph-name="uni046A" unicode="&#x46a;" horiz-adv-x="765" 
d="M120 665l262 -260l263 260h-525zM50 0v60c0 98.667 26.5 178 79.5 238s123.167 94 210.5 102l-270 265v35h625v-35l-270 -265c87.333 -8 157.5 -42 210.5 -102s79.5 -139.333 79.5 -238v-60h-35v60c0 94.667 -26 168.5 -78 221.5s-119.333 80.833 -202 83.5v-365h-35v365
c-83.333 -2.66699 -150.833 -30.5 -202.5 -83.5s-77.5 -126.833 -77.5 -221.5v-60h-35z" />
    <glyph glyph-name="uni046B" unicode="&#x46b;" horiz-adv-x="595" 
d="M295 265h5l190 200h-385zM75 0h-35c0 74.667 19.5 135.334 58.5 182.001s91.167 72.667 156.5 78l-195 205v35h475v-35l-195 -205c65.333 -5.33301 117.5 -31.333 156.5 -78s58.5 -107.334 58.5 -182.001h-35c0 70.667 -17.833 126 -53.5 166s-86.167 61.333 -151.5 64
v-230h-35v230c-65.333 -2.66699 -115.833 -24 -151.5 -64s-53.5 -95.333 -53.5 -166z" />
    <glyph glyph-name="uni0472" unicode="&#x472;" horiz-adv-x="760" 
d="M95 325c5.33301 -89.333 35.1689 -161.666 89.502 -216.999s119.5 -83 195.5 -83c79.333 0 146.666 29.667 201.999 89s83 134.666 83 225.999c-31.333 -20 -78 -30 -140 -30c-33.333 0 -81.833 7.5 -145.5 22.5s-111.834 22.5 -144.501 22.5
c-55.333 0 -102 -10 -140 -30zM380.003 -10c-89.333 0 -165 33.667 -227 101s-93 153.666 -93 258.999s31 191.666 93 258.999s137.667 101 227 101s165 -33.667 227 -101s93 -153.666 93 -258.999s-31 -191.666 -93 -258.999s-137.667 -101 -227 -101zM235.003 390
c32.667 0 80.832 -7.49902 144.499 -22.499s112.167 -22.5 145.5 -22.5c55.333 0 102 10 140 30c-6.66699 89.333 -36.667 161.666 -90 216.999s-118.333 83 -195 83c-80 0 -147.167 -29 -201.5 -87s-82.166 -134 -83.499 -228c31.333 20 78 30 140 30z" />
    <glyph glyph-name="uni0473" unicode="&#x473;" horiz-adv-x="550" 
d="M275 510c64 0 117.5 -23.833 160.5 -71.5s64.5 -110.5 64.5 -188.5s-21.5 -140.833 -64.5 -188.5s-96.5 -71.5 -160.5 -71.5s-117.5 23.833 -160.5 71.5s-64.5 110.5 -64.5 188.5s21.5 140.833 64.5 188.5s96.5 71.5 160.5 71.5zM465 275
c-5.33301 61.333 -25.834 110.002 -61.501 146.002s-78.5 54 -128.5 54c-54 0 -98.833 -19.833 -134.5 -59.5s-54.167 -93.167 -55.5 -160.5c6 3.33301 15 6.66602 27 9.99902c22.667 6.66699 47 10 73 10c26.667 0 56.667 -3.33301 90 -10s63.333 -10 90 -10
s51.334 3.33301 74.001 10c12 3.33301 20.667 6.66602 26 9.99902zM464.999 245.002c-5.33301 -3.33301 -13.999 -6.66797 -25.999 -10.001c-22.667 -6.66699 -47.334 -10 -74.001 -10s-56.667 3.33301 -90 10s-63.333 10 -90 10c-26 0 -50.333 -3.33301 -73 -10
c-12 -3.33301 -21 -6.66602 -27 -9.99902c4 -60.667 24 -109.167 60 -145.5s79.333 -54.5 130 -54.5c54 0 98.833 19.833 134.5 59.5s54.167 93.167 55.5 160.5z" />
    <glyph glyph-name="uni0474" unicode="&#x474;" horiz-adv-x="630" 
d="M270 0l-250.001 699.999h38l237 -665h20l187 525c19.333 52.667 37.833 89.167 55.5 109.5s38.5 30.5 62.5 30.5c9.33301 0 16.666 -1.66699 21.999 -5c4.66699 -3.33301 7.33398 -5 8.00098 -5v-34l-2 2c-2 0.666992 -3.66699 1.33398 -5 2.00098
c-4.66699 3.33301 -10.667 5 -18 5c-33.333 0 -61.666 -35 -84.999 -105l-200 -560h-70z" />
    <glyph glyph-name="uni0475" unicode="&#x475;" horiz-adv-x="495" 
d="M205 0l-190.001 500h35l175 -465h20l132 350c16 42.667 31.333 72.5 46 89.5s32 25.5 52 25.5c9.33301 0 16.666 -1.66699 21.999 -5c4.66699 -3.33301 7.33398 -5 8.00098 -5v-34c-0.666992 0 -1.66699 0.5 -3 1.5s-2.66602 1.83301 -3.99902 2.5
c-4.66699 3.33301 -10.667 5 -18 5c-13.333 0 -25 -5.5 -35 -16.5s-21 -32.167 -33 -63.5l-147 -385h-60z" />
    <glyph glyph-name="uni048A" unicode="&#x48a;" horiz-adv-x="725" 
d="M100 0v700h35v-665h20l395 665h75v-665h90v-15l-60 -165h-25l35 145h-75v665h-20l-395 -665h-75zM240 900h35c2.66699 -24 11.667 -43.333 27 -58s36.333 -22 63 -22s47.667 7.33301 63 22s24.333 34 27 58h35c-2.66699 -33.333 -15.5 -60.833 -38.5 -82.5
s-51.833 -32.5 -86.5 -32.5s-63.5 10.833 -86.5 32.5s-35.833 49.167 -38.5 82.5z" />
    <glyph glyph-name="uni048B" unicode="&#x48b;" horiz-adv-x="570" 
d="M90 0v500h35v-465h20l255 465h75v-465h90v-10l-50 -145h-25l30 120h-80v465h-20l-255 -465h-75zM160 705h35c2.66699 -24 11.667 -43.333 27 -58s36.333 -22 63 -22s47.667 7.33301 63 22s24.333 34 27 58h35c-2.66699 -33.333 -15.5 -60.833 -38.5 -82.5
s-51.833 -32.5 -86.5 -32.5s-63.5 10.833 -86.5 32.5s-35.833 49.167 -38.5 82.5z" />
    <glyph glyph-name="uni048C" unicode="&#x48c;" horiz-adv-x="660" 
d="M150 0v554.999h-150v35h150v110h35v-110h190v-35h-190v-160h215c59.333 0 108.333 -18.667 147 -56s58 -83.666 58 -138.999c0 -58 -19.167 -105.833 -57.5 -143.5s-87.5 -56.5 -147.5 -56.5h-250zM185 34.999h215c50 0 90.833 15.5 122.5 46.5s47.5 70.5 47.5 118.5
c0 45.333 -16 83.333 -48 114s-72.667 46 -122 46h-215v-325z" />
    <glyph glyph-name="uni048D" unicode="&#x48d;" horiz-adv-x="525" 
d="M120 0v465h-115v35h115v199h35v-199h145v-35h-145v-150h170c48 0 86.667 -14.333 116 -43s44 -66 44 -112c0 -48 -14.667 -86.667 -44 -116s-68 -44 -116 -44h-205zM155 35h170c38 0 68.333 11.333 91 34s34 53 34 91c0 36 -11.333 65 -34 87s-53 33 -91 33h-170v-245z
" />
    <glyph glyph-name="uni048E" unicode="&#x48e;" horiz-adv-x="635" 
d="M100 0l0.000976562 700h265c65.333 0 116.666 -18.5 153.999 -55.5s56 -86.833 56 -149.5c0 -76.667 -28 -134 -84 -172l44 -63l-30 -20l-46 67l-25 -9c-21.333 -5.33301 -44.333 -8 -69 -8h-230v-290h-35zM135.001 325h230c19.333 0 37.333 1.66699 54 5l20 6l-49 69
l30 20l50 -73c46.667 29.333 70 77 70 143c0 52.667 -15.333 94.167 -46 124.5s-73.667 45.5 -129 45.5h-230v-340z" />
    <glyph glyph-name="uni048F" unicode="&#x48f;" horiz-adv-x="580" 
d="M90 -200v700h25l10 -110h5c11.333 22 26 42 44 60c40 40 87 60 141 60c59.333 0 110 -24 152 -72s63 -110.667 63 -188c0 -79.333 -22.667 -144 -68 -194l48 -66l-25 -20l-47 64c-35.333 -29.333 -76.333 -44 -123 -44c-54 0 -101 20 -141 60c-18 18 -32.667 38 -44 60
h-5v-310h-35zM417 63l-52 72l25 20l50 -70c36.667 40.667 55 95.667 55 165c0 68 -17.833 122.5 -53.5 163.5s-79.5 61.5 -131.5 61.5s-95.833 -20.5 -131.5 -61.5s-53.5 -95.5 -53.5 -163.5s17.833 -122.5 53.5 -163.5s79.5 -61.5 131.5 -61.5c40 0 75.667 12.667 107 38z
" />
    <glyph glyph-name="uni0490" unicode="&#x490;" 
d="M100 0v700h380v140h35v-175h-380v-665h-35z" />
    <glyph glyph-name="uni0491" unicode="&#x491;" horiz-adv-x="405" 
d="M90 0v500h260v120h35v-155h-260v-465h-35z" />
    <glyph glyph-name="uni0492" unicode="&#x492;" horiz-adv-x="520" 
d="M95 0v340h-75v35h75v325h400v-35h-365v-290h195v-35h-195v-340h-35z" />
    <glyph glyph-name="uni0493" unicode="&#x493;" horiz-adv-x="400" 
d="M90 0v230h-70v35h70v235h290v-35h-255v-200h180v-35h-180v-230h-35z" />
    <glyph glyph-name="uni0494" unicode="&#x494;" horiz-adv-x="605" 
d="M100 0v699.999h409v-35h-374v-330c14 8 28.333 14.667 43 20c34 13.333 74.667 20 122 20c74.667 0 135 -22.667 181 -68s69 -104.333 69 -177c0 -74 -21.333 -133.333 -64 -178s-98 -67 -166 -67v35c58 0 105 18.833 141 56.5s54 88.834 54 153.501
c0 66 -18.833 117.5 -56.5 154.5s-90.5 55.5 -158.5 55.5c-39.333 0 -79.333 -7.66699 -120 -23c-18.667 -8 -33.667 -15.333 -45 -22v-295h-35z" />
    <glyph glyph-name="uni0495" unicode="&#x495;" horiz-adv-x="490" 
d="M255 -200l-0.000976562 35.002c44 0 82.5 19.167 115.5 57.5s49.5 87.5 49.5 147.5c0 59.333 -16 106.666 -48 141.999s-74.333 53 -127 53c-28 0 -56 -6.66699 -84 -20c-11.333 -5.33301 -23.333 -12 -36 -20v-195h-35v500h290v-35h-255v-233
c9.33301 6 21.333 12.333 36 19c32.667 12.667 60.667 19 84 19c62.667 0 113.334 -21 152.001 -63s58 -97.667 58 -167c0 -70.667 -19.667 -128.334 -59 -173.001s-86.333 -67 -141 -67z" />
    <glyph glyph-name="uni0496" unicode="&#x496;" horiz-adv-x="810" 
d="M15 0l330 355l-310 345h45l300 -335v335h35v-335l300 335h45l-310 -345l297 -320h63v-180h-35v145h-40l-320 345v-345h-35v345l-320 -345h-45z" />
    <glyph glyph-name="uni0497" unicode="&#x497;" horiz-adv-x="635" 
d="M5 0l250 255l-235 245h45l225 -235v235h35v-235l225 235h45l-235 -245l215 -220h60v-155h-35v120h-35l-240 245v-245h-35v245l-240 -245h-45z" />
    <glyph glyph-name="uni0498" unicode="&#x498;" horiz-adv-x="590" 
d="M270 -145l-0.00195312 134.999c-70 2.66699 -125 22.667 -165 60s-60 84 -60 140h35c0 -47.333 18.333 -86.666 55 -117.999s86.667 -47 150 -47s113.333 15.667 150 47s55 70.666 55 117.999c0 41.333 -15.667 75.833 -47 103.5s-72.333 41.5 -123 41.5h-85v35h85
c46.667 0 84.167 13.167 112.5 39.5s42.5 59.833 42.5 100.5c0 48.667 -17 88.334 -51 119.001s-80.333 46 -139 46s-105 -15.333 -139 -46s-51 -70.334 -51 -119.001h-35c0 58.667 20.333 106.667 61 144s95.334 56 164.001 56s123.334 -18.667 164.001 -56
s61 -85.333 61 -144c0 -71.333 -36.667 -123 -110 -155v-5c83.333 -31.333 125 -84.666 125 -159.999c0 -56 -19.333 -102.167 -58 -138.5s-92.667 -56.5 -162 -60.5v-136h-35z" />
    <glyph glyph-name="uni0499" unicode="&#x499;" horiz-adv-x="455" 
d="M210 -120v110.997c-50 3.33301 -90 20 -120 50s-45 68 -45 114h35c0 -38.667 13 -70 39 -94s61.333 -36 106 -36c46 0 81.667 10.5 107 31.5s38 47.167 38 78.5c0 29.333 -12 53.333 -36 72s-58.667 28 -104 28h-45v35h50c39.333 0 70 9.83301 92 29.5
s33 44.834 33 75.501c0 29.333 -11.5 53.333 -34.5 72s-56.5 28 -100.5 28c-39.333 0 -71.666 -12 -96.999 -36s-38 -53.667 -38 -89h-35c0 45.333 16 83.333 48 114s72.667 46 122 46c53.333 0 95 -12.667 125 -38s45 -57.666 45 -96.999
c0 -56.667 -26.667 -96.667 -80 -120v-5c19.333 -4.66699 39.166 -16.667 59.499 -36s30.5 -45.666 30.5 -78.999c0 -39.333 -14.167 -72.333 -42.5 -99s-67.5 -41.667 -117.5 -45v-111h-35z" />
    <glyph glyph-name="uni049A" unicode="&#x49a;" horiz-adv-x="575" 
d="M100 0v700h35v-331l345 331h50l-360 -345l342 -320h63v-180h-35v145h-40l-365 341v-341h-35z" />
    <glyph glyph-name="uni049B" unicode="&#x49b;" horiz-adv-x="480" 
d="M90 0v500h35v-233l275 233h50l-290 -245l260 -220h60v-155h-35v120h-35l-285 242v-242h-35z" />
    <glyph glyph-name="uni049C" unicode="&#x49c;" horiz-adv-x="580" 
d="M100 0v700h35v-330h65v110h35v-110h50l220 330h40l-230 -345l250 -355h-45l-235 335h-50v-105h-35v105h-65v-335h-35z" />
    <glyph glyph-name="uni049D" unicode="&#x49d;" horiz-adv-x="470" 
d="M90 0v500h35v-225h45v80h35v-80h29l179 225h42l-195 -245l205 -255h-42l-193 240h-25v-85h-35v85h-45v-240h-35z" />
    <glyph glyph-name="uni049E" unicode="&#x49e;" horiz-adv-x="560" 
d="M95 0v565h-80v35h80v100h35v-100h75v-35h-75v-196l345 331h50l-360 -345l380 -355h-50l-365 341v-341h-35z" />
    <glyph glyph-name="uni049F" unicode="&#x49f;" horiz-adv-x="460" 
d="M85 0v565h-80v35h80v100h35v-100h110v-35h-110v-298l275 233h50l-290 -245l300 -255h-50l-285 243v-243h-35z" />
    <glyph glyph-name="uni04A0" unicode="&#x4a0;" horiz-adv-x="575" 
d="M110 0v665h-95v35h130v-331l345 331h50l-360 -345l380 -355h-50l-365 341v-341h-35z" />
    <glyph glyph-name="uni04A1" unicode="&#x4a1;" horiz-adv-x="475" 
d="M100 0v465h-100v35h135v-233l275 233h50l-290 -245l300 -255h-50l-285 243v-243h-35z" />
    <glyph glyph-name="uni04A2" unicode="&#x4a2;" horiz-adv-x="740" 
d="M100 0v700h35v-325h450v325h35v-665h80v-180h-35v145h-80v340h-450v-340h-35z" />
    <glyph glyph-name="uni04A3" unicode="&#x4a3;" horiz-adv-x="580" 
d="M90 0v500h35v-235h320v235h35v-465h75v-155h-35v120h-75v230h-320v-230h-35z" />
    <glyph glyph-name="uni04A4" unicode="&#x4a4;" horiz-adv-x="980" 
d="M100 0v700h35v-325h430v325h390v-35h-355v-665h-35v340h-430v-340h-35z" />
    <glyph glyph-name="uni04A5" unicode="&#x4a5;" horiz-adv-x="720" 
d="M90 0v500h35v-235h300v235h275v-35h-240v-465h-35v230h-300v-230h-35z" />
    <glyph glyph-name="uni04A6" unicode="&#x4a6;" horiz-adv-x="1035" 
d="M100 0l-0.00195312 700.001h470v-370c10 6 25.333 13.333 46 22c40.667 15.333 82 23 124 23c72.667 0 130.834 -21.833 174.501 -65.5s65.5 -101.834 65.5 -174.501c0 -76.667 -21.167 -137.5 -63.5 -182.5s-97.833 -67.5 -166.5 -67.5v35
c58.667 0 105.834 19.167 141.501 57.5s53.5 90.833 53.5 157.5c0 65.333 -17.833 115.833 -53.5 151.5s-86.167 53.5 -151.5 53.5c-44 0 -85.333 -7.33301 -124 -22c-20 -8 -35.333 -15 -46 -21v-297h-35v665h-400v-665h-35z" />
    <glyph glyph-name="uni04A7" unicode="&#x4a7;" horiz-adv-x="795" 
d="M90 0l0.000976562 499.999h345v-267c10 7.33301 21 13.333 33 18c29.333 12.667 56.666 19 81.999 19c62.667 0 113.334 -21 152.001 -63s58 -97.667 58 -167c0 -72 -18.833 -130 -56.5 -174s-83.834 -66 -138.501 -66v35c44.667 0 82.5 18.5 113.5 55.5
s46.5 86.833 46.5 149.5c0 60.667 -16.333 108.334 -49 143.001s-74.667 52 -126 52c-26.667 0 -54 -6 -82 -18c-10 -4 -21 -9.66699 -33 -17v-200h-35v465h-275v-465h-35z" />
    <glyph glyph-name="uni04A8" unicode="&#x4a8;" horiz-adv-x="770" 
d="M665 25l-0.000976562 -34.9971c-44 0 -83 5 -117 15c-16.667 4 -30.334 9 -41.001 15c-11.333 -6 -23.333 -11 -36 -15c-28.667 -10 -60.667 -15 -96 -15c-87.333 0 -161.666 33.667 -222.999 101s-92 153.666 -92 258.999s30.667 191.666 92 258.999s135 101 221 101
v-35c-76 0 -141.333 -30.333 -196 -91s-82 -138.667 -82 -234s27.333 -173.333 82 -234s120.667 -91 198 -91c22.667 0 44.667 2.66699 66 8l24 9c-116.667 71.333 -175 177.333 -175 318c0 86.667 20.667 155 62 205s92.333 75 153 75c55.333 0 103.333 -25.167 144 -75.5
s61 -118.5 61 -204.5c0 -68 -15.167 -129.833 -45.5 -185.5s-70.166 -99.834 -119.499 -132.501l32 -9c28 -5.33301 57.333 -8 88 -8zM507.999 60.0029c50 26.667 90.333 66.167 121 118.5s46 112.833 46 181.5c0 78.667 -16.333 139.167 -49 181.5s-73 63.5 -121 63.5
c-50 0 -92.5 -21.667 -127.5 -65s-52.5 -103.333 -52.5 -180c0 -69.333 16 -129.5 48 -180.5s77 -90.833 135 -119.5z" />
    <glyph glyph-name="uni04A9" unicode="&#x4a9;" horiz-adv-x="555" 
d="M375 55c29.333 18 52.5 44.667 69.5 80s25.5 77 25.5 125c0 46.667 -9.66699 83.334 -29 110.001s-41.333 40 -66 40s-46.667 -13.333 -66 -40s-29 -63.334 -29 -110.001c0 -48 8.5 -89.667 25.5 -125s40.167 -62 69.5 -80zM480 25v-35c-44 0 -78.667 8 -104 24
c-28.667 -16 -62.334 -24 -101.001 -24c-64 0 -117.5 23.833 -160.5 71.5s-64.5 110.5 -64.5 188.5s21.5 140.833 64.5 188.5s96.5 71.5 160.5 71.5v-35c-54 0 -99.167 -20.5 -135.5 -61.5s-54.5 -95.5 -54.5 -163.5s18.167 -122.5 54.5 -163.5s81.5 -61.5 135.5 -61.5
c32 0 55.333 3.33301 70 10c-66.667 50 -100 125 -100 225c0 56.667 13 101.667 39 135s56.333 50 91 50s65 -16.667 91 -50s39 -78.333 39 -135c0 -100 -33.333 -175 -100 -225c14.667 -6.66699 36.334 -10 65.001 -10h10z" />
    <glyph glyph-name="uni04AA" unicode="&#x4aa;" horiz-adv-x="735" 
d="M360 -145l0.00195312 136.001c-84.667 4 -155.834 39.167 -213.501 105.5s-86.5 150.833 -86.5 253.5c0 105.333 31 191.666 93 258.999s137.667 101 227 101c44.667 0 85.667 -8 123 -24s67.666 -36.833 90.999 -62.5s42 -51 56 -76s24 -49.167 30 -72.5h-35
c-14 50 -44.667 95.833 -92 137.5s-105 62.5 -173 62.5c-80 0 -147.5 -30.333 -202.5 -91s-82.5 -138.667 -82.5 -234s27.5 -173.333 82.5 -234s122.5 -91 202.5 -91c68.667 0 126.5 21.167 173.5 63.5s77.5 89.5 91.5 141.5h40c-6.66699 -24.667 -17 -49.5 -31 -74.5
s-32.5 -50 -55.5 -75s-52.167 -45.667 -87.5 -62s-74 -25.5 -116 -27.5v-136h-35z" />
    <glyph glyph-name="uni04AB" unicode="&#x4ab;" horiz-adv-x="530" 
d="M256 -120l0.00195312 110.998c-59.333 4 -108.5 29.5 -147.5 76.5s-58.5 107.833 -58.5 182.5c0 78 21.5 140.833 64.5 188.5s96.5 71.5 160.5 71.5c32.667 0 62.5 -6.33301 89.5 -19s48.5 -28.5 64.5 -47.5s28.5 -37.167 37.5 -54.5s15.167 -33.666 18.5 -48.999h-35
c-10.667 34 -30.334 65 -59.001 93s-67.334 42 -116.001 42c-54 0 -99.167 -20.5 -135.5 -61.5s-54.5 -95.5 -54.5 -163.5s18.167 -122.5 54.5 -163.5s81.5 -61.5 135.5 -61.5c49.333 0 88.166 14.333 116.499 43s47.833 61 58.5 97h35
c-3.33301 -15.333 -9.16602 -31.666 -17.499 -48.999s-19.833 -35.5 -34.5 -54.5s-34.5 -35 -59.5 -48s-52.833 -20.5 -83.5 -22.5v-111h-34z" />
    <glyph glyph-name="uni04AC" unicode="&#x4ac;" horiz-adv-x="595" 
d="M360 -145v145h-80v665h-250v35h535v-35h-250v-630h80v-180h-35z" />
    <glyph glyph-name="uni04AD" unicode="&#x4ad;" horiz-adv-x="425" 
d="M270 -120v120h-75v465h-175v35h385v-35h-175v-430h75v-155h-35z" />
    <glyph glyph-name="uni04AE" unicode="&#x4ae;" horiz-adv-x="585" 
d="M275 0v260l-260 440h40l225 -385h25l225 385h40l-260 -440v-260h-35z" />
    <glyph glyph-name="uni04AF" unicode="&#x4af;" horiz-adv-x="465" 
d="M215 -200v200h-10l-190 500h36l175 -460h13l175 460h36l-190 -500h-10v-200h-35z" />
    <glyph glyph-name="uni04B0" unicode="&#x4b0;" horiz-adv-x="585" 
d="M275 0v260h-145v35h124l-239 405h40l225 -385h25l225 385h40l-240 -405h125v-35h-145v-260h-35z" />
    <glyph glyph-name="uni04B1" unicode="&#x4b1;" horiz-adv-x="465" 
d="M215 -200v200h-100v35h76l-176 465h36l175 -460h13l175 460h36l-177 -465h77v-35h-100v-200h-35z" />
    <glyph glyph-name="uni04B2" unicode="&#x4b2;" horiz-adv-x="620" 
d="M20 0l245 360l-230 340h40l215 -320h20l215 320h40l-230 -340l221 -325h64v-180h-35v145h-45l-230 340h-20l-230 -340h-40z" />
    <glyph glyph-name="uni04B3" unicode="&#x4b3;" horiz-adv-x="460" 
d="M15 0l169 255l-164 245h40l150 -225h20l150 225h40l-164 -245l145 -220h59v-155h-35v120h-40l-155 235h-20l-155 -235h-40z" />
    <glyph glyph-name="uni04B4" unicode="&#x4b4;" horiz-adv-x="860" 
d="M260 0v665h-230v35h490v-35h-225v-630h410v665h35v-665h80v-180h-35v145h-525z" />
    <glyph glyph-name="uni04B5" unicode="&#x4b5;" horiz-adv-x="660" 
d="M180 0v465h-160v35h340v-35h-145v-430h310v465h35v-465h75v-155h-35v120h-420z" />
    <glyph glyph-name="uni04B6" unicode="&#x4b6;" horiz-adv-x="695" 
d="M620 -145l0.000976562 144.999h-80v325c-18.667 -14.667 -40 -28 -64 -40c-54.667 -26.667 -110 -40 -166 -40c-76 0 -132.5 19.333 -169.5 58s-55.5 99.334 -55.5 182.001v215h35v-215c0 -72 15.167 -124.167 45.5 -156.5s78.5 -48.5 144.5 -48.5
c60.667 0 117 14 169 42c23.333 12 43.666 26.333 60.999 43v335h35v-665h80v-180h-35z" />
    <glyph glyph-name="uni04B7" unicode="&#x4b7;" horiz-adv-x="545" 
d="M485 -120v120h-75v215c-43.333 -30 -95 -45 -155 -45c-120 0 -180 58.333 -180 175v155h35v-155c0 -48 11.667 -83.333 35 -106s60 -34 110 -34c70 0 121.667 16.667 155 50v245h35v-465h75v-155h-35z" />
    <glyph glyph-name="uni04B8" unicode="&#x4b8;" horiz-adv-x="675" 
d="M310 135v110.002c-76 0 -132.5 19.333 -169.5 58s-55.5 99.334 -55.5 182.001v215h35v-215c0 -72 15.167 -124.167 45.5 -156.5s78.5 -48.5 144.5 -48.5v150h35v-148c53.333 6 101.333 21.333 144 46c16.667 9.33301 33.667 21.666 51 36.999v335h35v-700h-35v325
c-13.333 -10.667 -31.333 -22.334 -54 -35.001c-42.667 -22.667 -89.667 -37.334 -141 -44.001v-111h-35z" />
    <glyph glyph-name="uni04B9" unicode="&#x4b9;" horiz-adv-x="535" 
d="M245 100v70c-113.333 2.66699 -170 61 -170 175v155h35v-155c0 -46 11 -80.5 33 -103.5s56 -35.167 102 -36.5v95h30v-95c60.667 4 105.667 20.667 135 50v245h35v-500h-35v215c-44.667 -26.667 -89.667 -41.667 -135 -45v-70h-30z" />
    <glyph glyph-name="uni04BA" unicode="&#x4ba;" horiz-adv-x="670" 
d="M100 0l0.000976562 700h35v-325c19.333 14.667 41.666 28 66.999 40c57.333 26.667 113.333 40 168 40c146.667 0 220 -80 220 -240v-215h-35v215c0 72 -15 124.167 -45 156.5s-76.667 48.5 -140 48.5c-61.333 0 -119.333 -14.333 -174 -43
c-24.667 -12.667 -45 -26.667 -61 -42v-335h-35z" />
    <glyph glyph-name="uni04BB" unicode="&#x4bb;" horiz-adv-x="580" 
d="M95 0v700h35v-290h5c8 16.667 20.333 33.334 37 50.001c36 33.333 78.667 50 128 50c58 0 105 -18.833 141 -56.5s54 -88.834 54 -153.501v-300h-35v300c0 52 -15.167 94.167 -45.5 126.5s-68.5 48.5 -114.5 48.5c-48 0 -88.333 -16.667 -121 -50s-49 -75 -49 -125v-300
h-35z" />
    <glyph glyph-name="uni04BC" unicode="&#x4bc;" horiz-adv-x="790" 
d="M0 410l-0.000976562 29.999h35v-20c0 -33.333 16.667 -50 50 -50h15c2.66699 97.333 34.334 178.333 95.001 243s134 97 220 97c86.667 0 160.834 -33.333 222.501 -100s92.5 -150 92.5 -250v-25h-595c0 -92 28.167 -166.667 84.5 -224s123.166 -86 200.499 -86
c56 0 107.667 16.667 155 50s82.333 78.333 105 135h35c-22 -66.667 -60.333 -120 -115 -160s-114.667 -60 -180 -60c-90.667 0 -166 32 -226 96s-91.333 147 -94 249h-20c-25.333 0 -45 6.83301 -59 20.5s-21 31.834 -21 54.501zM134.999 369.999h560.004
c-2.66699 90 -31.334 163.333 -86.001 220s-119.334 85 -194.001 85s-139.334 -28.333 -194.001 -85s-83.334 -130 -86.001 -220z" />
    <glyph glyph-name="uni04BD" unicode="&#x4bd;" horiz-adv-x="585" 
d="M0 300v25.002h35v-15c0 -15.333 2.66699 -25.833 8 -31.5s14.333 -8.5 27 -8.5h15c4 72.667 27.5 130.834 70.5 174.501s96.167 65.5 159.5 65.5c61.333 0 113.333 -23.333 156 -70s64 -106.667 64 -180v-25h-415c5.33301 -64.667 25.666 -115.834 60.999 -153.501
s78.333 -56.5 129 -56.5c48 0 86.333 12.667 115 38s47 51 55 77h35c-3.33301 -12.667 -9.16602 -26.334 -17.499 -41.001s-20.166 -30.834 -35.499 -48.501s-36.333 -32.167 -63 -43.5s-56.334 -17 -89.001 -17c-61.333 0 -113.5 22.5 -156.5 67.5
s-65.833 104.167 -68.5 177.5h-15c-22 0 -39.167 5.83301 -51.5 17.5s-18.5 27.5 -18.5 47.5zM120 270.002h380c-2.66699 61.333 -21.5 110.833 -56.5 148.5s-77.833 56.5 -128.5 56.5c-53.333 0 -98.5 -18.833 -135.5 -56.5s-56.833 -87.167 -59.5 -148.5z" />
    <glyph glyph-name="uni04BE" unicode="&#x4be;" horiz-adv-x="790" 
d="M405 -145v135.998c-87.333 4 -159.333 37.5 -216 100.5s-86.334 144.167 -89.001 243.5h-20c-25.333 0 -45 6.83301 -59 20.5s-21 31.834 -21 54.501v30h35v-20c0 -33.333 16.667 -50 50 -50h15c2.66699 97.333 34.334 178.333 95.001 243s134 97 220 97
c86.667 0 160.834 -33.333 222.501 -100s92.5 -150 92.5 -250v-25h-595c0 -92 28.167 -166.667 84.5 -224s123.166 -86 200.499 -86c56 0 107.667 16.667 155 50s82.333 78.333 105 135h35c-21.333 -63.333 -57 -114.666 -107 -153.999s-106 -61 -168 -65v-136h-35z
M135 369.998h560.004c-2.66699 90 -31.334 163.333 -86.001 220s-119.334 85 -194.001 85s-139.334 -28.333 -194.001 -85s-83.334 -130 -86.001 -220z" />
    <glyph glyph-name="uni04BF" unicode="&#x4bf;" horiz-adv-x="585" 
d="M295 -120l0.00195312 111.001c-59.333 4 -108.5 28 -147.5 72s-59.833 101.333 -62.5 172h-15c-22 0 -39.167 5.83301 -51.5 17.5s-18.5 27.5 -18.5 47.5v25h35v-15c0 -15.333 2.66699 -25.833 8 -31.5s14.333 -8.5 27 -8.5h15c4 72.667 27.5 130.834 70.5 174.501
s96.167 65.5 159.5 65.5c61.333 0 113.333 -23.333 156 -70s64 -106.667 64 -180v-25h-415c5.33301 -64.667 25.666 -115.834 60.999 -153.501s78.333 -56.5 129 -56.5c48 0 86.333 12.667 115 38s47 51 55 77h35c-3.33301 -12 -8.83301 -24.833 -16.5 -38.5
s-18.334 -28.834 -32.001 -45.501s-32.5 -31 -56.5 -43s-50.667 -19.333 -80 -22v-111h-35zM120.002 270.001h380c-2.66699 61.333 -21.5 110.833 -56.5 148.5s-77.833 56.5 -128.5 56.5c-53.333 0 -98.5 -18.833 -135.5 -56.5s-56.833 -87.167 -59.5 -148.5z" />
    <glyph glyph-name="uni04C0" unicode="&#x4c0;" horiz-adv-x="235" 
d="M100 0v700h35v-700h-35z" />
    <glyph glyph-name="uni04C1" unicode="&#x4c1;" horiz-adv-x="795" 
d="M15 0l330 355l-310 345h45l300 -335v335h35v-335l300 335h45l-310 -345l330 -355h-45l-320 345v-345h-35v345l-320 -345h-45zM270 900h35c2.66699 -24 11.667 -43.333 27 -58s36.333 -22 63 -22s47.667 7.33301 63 22s24.333 34 27 58h35
c-2.66699 -33.333 -15.5 -60.833 -38.5 -82.5s-51.833 -32.5 -86.5 -32.5s-63.5 10.833 -86.5 32.5s-35.833 49.167 -38.5 82.5z" />
    <glyph glyph-name="uni04C2" unicode="&#x4c2;" horiz-adv-x="615" 
d="M5 0l250 255l-235 245h45l225 -235v235h35v-235l225 235h45l-235 -245l250 -255h-45l-240 245v-245h-35v245l-240 -245h-45zM185 705h35c2.66699 -24 11.667 -43.333 27 -58s36.333 -22 63 -22s47.667 7.33301 63 22s24.333 34 27 58h35
c-2.66699 -33.333 -15.5 -60.833 -38.5 -82.5s-51.833 -32.5 -86.5 -32.5s-63.5 10.833 -86.5 32.5s-35.833 49.167 -38.5 82.5z" />
    </font>
</defs>
</svg>
